<svg width="103" height="151" viewBox="0 0 103 151" fill="none" xmlns="http://www.w3.org/2000/svg">
<path d="M9.4722 19.7914C9.49683 19.1291 9.37089 18.4698 9.10387 17.8632C8.83684 17.2566 8.43567 16.7184 7.93058 16.2893C6.69896 15.4514 5.0149 15.7279 3.59896 16.2306C2.74757 16.4749 1.97022 16.9269 1.33679 17.546C-0.054022 19.0793 0.390035 21.4839 1.01841 23.4528C2.01734 26.6107 3.24668 29.6911 4.69652 32.669C4.80099 32.9637 5.0017 33.2146 5.26625 33.3812C5.66004 33.5739 11.2987 32.6188 11.7427 32.602C14.03 32.5015 12.1533 30.6247 11.3992 27.8179C11.0976 26.7288 10.2514 25.782 9.88274 24.7012C9.32139 23.1009 9.55598 21.4839 9.4722 19.7914Z" fill="white"/>
<path d="M5.52606 33.8588C5.37488 33.8702 5.22308 33.8473 5.08201 33.7917C4.73236 33.5856 4.46343 33.2664 4.31958 32.8869C2.85985 29.8785 1.62213 26.7674 0.61633 23.5785C0.0298436 21.7101 -0.573395 19.029 1.02688 17.2696C1.70367 16.5956 2.53926 16.1029 3.4566 15.8369C5.45903 15.1247 7.04255 15.1666 8.17363 15.9458C8.72835 16.4124 9.16808 17.0005 9.45869 17.6645C9.7493 18.3286 9.88296 19.0506 9.84931 19.7747C9.84931 20.2607 9.84931 20.7382 9.84931 21.2074C9.77965 22.3545 9.90718 23.505 10.2263 24.609C10.408 25.0892 10.6382 25.5497 10.9134 25.9831C11.2646 26.5355 11.546 27.1293 11.7512 27.7509C11.9717 28.5227 12.2518 29.2763 12.589 30.0047C13.0666 31.1023 13.4269 31.8898 13.0499 32.5182C12.8879 32.7157 12.6808 32.8714 12.446 32.972C12.2112 33.0726 11.9557 33.1153 11.7009 33.0963C11.592 33.0963 10.8631 33.2053 10.218 33.3058C8.66498 33.5738 7.09878 33.7584 5.52606 33.8588ZM6.02039 16.1636C5.24038 16.1892 4.47013 16.3449 3.74147 16.6244C2.95336 16.8451 2.23318 17.2599 1.64687 17.8309C0.339847 19.272 0.884442 21.6598 1.41228 23.3271C2.40665 26.4843 3.63036 29.5646 5.07363 32.5434C5.14184 32.7517 5.27371 32.9334 5.45066 33.0628C5.79417 33.1131 8.74336 32.669 10.1509 32.4596C11.1061 32.3171 11.5753 32.2501 11.7261 32.2417C12.2539 32.2417 12.3712 32.0993 12.3963 32.0574C12.5304 31.8396 12.1869 31.052 11.8853 30.3817C11.5246 29.6133 11.2248 28.8177 10.9888 28.0023C10.8095 27.4524 10.5588 26.9285 10.2431 26.4439C9.94527 25.9599 9.69284 25.4495 9.48904 24.919C9.14231 23.7255 9.00066 22.4818 9.07012 21.2409C9.07012 20.7801 9.07012 20.3193 9.07012 19.8501C9.07012 19.0123 8.80201 17.4371 7.71282 16.6747C7.21565 16.3323 6.62399 16.1536 6.02039 16.1636Z" fill="#231F20"/>
<path d="M79.4736 135.388C79.5909 135.773 83.4031 142.133 83.4031 142.133C83.4031 142.133 87.5923 143.381 90.7174 140.65L87.4582 132.548L79.4736 135.388Z" fill="white"/>
<path d="M85.7072 142.845C84.8871 142.85 84.0699 142.746 83.2774 142.535C83.18 142.503 83.0969 142.438 83.0428 142.35C81.8866 140.423 79.1888 135.899 79.0631 135.505C79.0312 135.403 79.0405 135.292 79.089 135.197C79.1375 135.101 79.2214 135.029 79.3228 134.994L87.3242 132.12C87.4265 132.085 87.5387 132.09 87.6371 132.135C87.7355 132.181 87.8125 132.262 87.852 132.363L91.1028 140.499C91.1342 140.58 91.1397 140.668 91.1187 140.752C91.0977 140.836 91.0512 140.911 90.9855 140.968C89.5136 142.216 87.6365 142.883 85.7072 142.845ZM83.6628 141.764C84.3918 141.931 87.6342 142.551 90.198 140.516L87.2153 133.042L80.0434 135.614C80.6466 136.737 82.448 139.728 83.6628 141.764Z" fill="#231F20"/>
<path d="M44.8626 141.177L34.6577 148.55C34.7164 151.483 41.0085 150.695 46.798 149.304C52.5875 147.914 53.7437 146.69 53.7437 146.69L53.6012 141.663L44.8626 141.177Z" fill="#231F20"/>
<path d="M38.5703 150.98C37.3327 151.082 36.0948 150.789 35.0346 150.142C34.781 149.96 34.5732 149.722 34.4278 149.445C34.2823 149.169 34.2032 148.863 34.1968 148.55C34.1971 148.483 34.2132 148.417 34.2437 148.358C34.2743 148.298 34.3185 148.246 34.3727 148.207L44.5776 140.834C44.6544 140.776 44.75 140.749 44.8457 140.759L53.5843 141.244C53.6896 141.247 53.7897 141.29 53.8633 141.365C53.9369 141.44 53.9782 141.541 53.9781 141.647L54.1122 146.674C54.1152 146.729 54.1071 146.784 54.0884 146.836C54.0697 146.887 54.0407 146.935 54.0033 146.975C53.8692 147.109 52.5873 148.316 46.8481 149.698C44.1449 150.431 41.3685 150.861 38.5703 150.98ZM35.0681 148.751C35.091 148.898 35.1428 149.039 35.2205 149.165C35.2981 149.292 35.4001 149.402 35.5206 149.489C36.8443 150.519 40.8073 150.327 46.6722 148.894C51.2384 147.796 52.8638 146.808 53.2911 146.498L53.1738 142.057L44.963 141.605L35.0681 148.751Z" fill="#231F20"/>
<path d="M53.2912 133.042L53.6012 141.663C53.6012 141.663 48.5072 143.951 44.8626 141.177L43.2791 131.04L53.2912 133.042Z" fill="white"/>
<path d="M49.2613 142.979C47.5917 143.018 45.9562 142.503 44.6113 141.513C44.5264 141.446 44.4695 141.351 44.4521 141.244L42.8602 131.107C42.8498 131.04 42.8557 130.971 42.8776 130.907C42.8995 130.843 42.9367 130.785 42.9859 130.738C43.0347 130.69 43.0947 130.655 43.1606 130.636C43.2264 130.617 43.296 130.614 43.3629 130.629L53.3751 132.631C53.4677 132.652 53.5508 132.702 53.6115 132.775C53.6721 132.848 53.7069 132.939 53.7102 133.034L54.0202 141.647C54.027 141.731 54.0072 141.815 53.9636 141.887C53.92 141.959 53.8548 142.016 53.7773 142.049C52.3451 142.644 50.8122 142.96 49.2613 142.979ZM45.2565 140.926C48.1889 143.037 52.1351 141.764 53.174 141.37L52.8808 133.377L43.7819 131.551L45.2565 140.926Z" fill="#231F20"/>
<path d="M38.5117 71.0085L66.8977 65.395L89.6198 135.38C88.1125 136.591 86.3169 137.392 84.408 137.703C82.4991 138.015 80.5422 137.826 78.7279 137.156L54.6317 89.6672L54.8831 137.231C49.7052 139.661 43.1533 136.888 43.1533 136.888C38.6541 122.72 35.6128 70.9331 35.6128 70.9331" fill="#231F20"/>
<path d="M49.9481 138.656C47.5569 138.624 45.1915 138.156 42.9689 137.273C42.9137 137.249 42.8643 137.213 42.8238 137.168C42.7834 137.124 42.7529 137.071 42.7343 137.013C38.2687 122.954 35.1938 71.4777 35.1519 70.9582C35.1485 70.9032 35.156 70.848 35.174 70.7959C35.1919 70.7438 35.22 70.6957 35.2566 70.6544C35.2932 70.6132 35.3376 70.5796 35.3872 70.5555C35.4368 70.5314 35.4907 70.5174 35.5457 70.5142C35.6558 70.5116 35.7628 70.5507 35.8452 70.6238C35.9275 70.6968 35.9792 70.7984 35.9898 70.908C35.9898 71.4274 39.0646 122.343 43.4716 136.578C44.5106 136.971 49.99 138.882 54.4389 136.963L54.1876 89.6755C54.1867 89.5813 54.2177 89.4895 54.2755 89.415C54.3332 89.3405 54.4145 89.2876 54.506 89.265C54.5985 89.243 54.6957 89.2525 54.7822 89.2919C54.8687 89.3314 54.9395 89.3986 54.9835 89.4828L78.996 136.829C80.6853 137.416 82.4931 137.577 84.2598 137.3C86.0264 137.022 87.6975 136.314 89.1255 135.237L66.6127 65.8726L38.587 71.3855C38.4759 71.4066 38.361 71.3828 38.2675 71.3191C38.174 71.2555 38.1096 71.1573 38.0885 71.0462C38.0674 70.9351 38.0913 70.8202 38.155 70.7267C38.2186 70.6332 38.3168 70.5688 38.4279 70.5477L66.8138 64.9342C66.9135 64.9127 67.0177 64.9291 67.106 64.9802C67.1943 65.0313 67.2604 65.1135 67.2914 65.2107L90.0136 135.204C90.0392 135.284 90.0402 135.37 90.0163 135.451C89.9924 135.531 89.9447 135.603 89.8795 135.656C88.3127 136.923 86.4458 137.766 84.4587 138.102C82.4717 138.438 80.4316 138.256 78.5352 137.575C78.4454 137.536 78.3715 137.468 78.3257 137.382L55.0338 91.4685L55.2684 137.265C55.2706 137.344 55.2496 137.422 55.2079 137.489C55.1661 137.556 55.1056 137.609 55.0338 137.642C53.4338 138.35 51.6973 138.696 49.9481 138.656Z" fill="#231F20"/>
<path d="M83.3948 142.133C83.3948 142.133 84.4253 146.757 84.861 147.277C85.2967 147.796 100.42 151.123 101.257 149.346C102.095 147.57 90.7342 140.65 90.7342 140.65C90.7342 140.65 86.5869 142.719 83.3948 142.133Z" fill="#231F20"/>
<path d="M99.2551 150.276C95.0659 150.276 85.0872 148.207 84.5343 147.545C83.9813 146.883 83.2356 143.356 82.9926 142.225C82.9764 142.157 82.9779 142.085 82.9969 142.018C83.016 141.95 83.052 141.889 83.1016 141.839C83.1482 141.79 83.2064 141.754 83.2709 141.733C83.3353 141.713 83.4039 141.709 83.4702 141.722C86.4864 142.275 90.4829 140.298 90.5248 140.281C90.5859 140.246 90.6553 140.227 90.7259 140.227C90.7965 140.227 90.8658 140.246 90.927 140.281C101.442 146.707 101.903 148.869 101.609 149.497C101.383 149.992 100.772 150.134 100.26 150.193C99.9278 150.245 99.5918 150.273 99.2551 150.276ZM83.9394 142.602C84.2289 144.097 84.6436 145.566 85.1794 146.992C87.7754 147.75 90.4172 148.34 93.0886 148.76C98.7859 149.723 100.629 149.439 100.855 149.145C101.199 148.391 96.4651 144.654 90.684 141.102C89.8462 141.521 86.7126 142.87 83.9394 142.602Z" fill="#231F20"/>
<path d="M47.4013 24.9777L37.8415 28.5469C37.8415 28.5469 33.0491 63.1328 34.4232 73.3293C34.4232 73.3293 61.9964 74.8793 70.6429 70.112C70.6429 70.112 65.7248 44.3904 66.6129 39.6231C67.181 36.2368 67.5225 32.8164 67.6351 29.3847L56.0645 25.1955L47.4013 24.9777Z" fill="#FF7991"/>
<path d="M87.0141 22.992C87.2488 22.1275 87.3338 21.2292 87.2655 20.3361C87.0979 19.1296 87.4079 16.5825 87.0979 15.6609C86.7879 14.7393 83.4114 12.0163 83.6628 11.5136C83.9027 11.2117 84.2344 10.9961 84.6078 10.8993C84.9811 10.8026 85.3758 10.83 85.7322 10.9774C86.4695 11.3377 89.2428 14.3288 89.2428 14.3288C92.0244 12.8206 94.8228 11.4969 97.5458 9.90497C97.8528 9.71032 98.1818 9.55282 98.526 9.43578C98.9615 9.32831 99.4127 9.29993 99.8582 9.352C100.333 9.35981 100.797 9.48966 101.207 9.72903C102.564 10.6758 99.8749 13.0804 99.2047 13.9769C98.2425 15.1003 97.3764 16.3026 96.6158 17.5712C96.0544 18.6436 95.116 21.1069 94.1525 21.7017C93.6629 22.0196 93.1404 22.2837 92.5941 22.4893L91.6139 24.4666L87.0141 22.992Z" fill="white"/>
<path d="M91.6139 24.852H91.4882L86.8634 23.4025C86.8116 23.3872 86.7634 23.3618 86.7215 23.3277C86.6796 23.2937 86.6448 23.2518 86.6191 23.2043C86.5935 23.1569 86.5774 23.1048 86.5719 23.0511C86.5663 22.9974 86.5714 22.9432 86.5869 22.8915C86.8074 22.073 86.8867 21.223 86.8215 20.3779C86.7688 19.6668 86.7688 18.9526 86.8215 18.2415C86.8817 17.4217 86.8451 16.5978 86.7125 15.7866C86.2332 15.0794 85.6706 14.4324 85.0369 13.8596C83.6209 12.4352 83.0596 11.832 83.3193 11.346C83.6087 10.9448 84.026 10.6541 84.5027 10.5216C84.9793 10.3891 85.4868 10.4228 85.9417 10.6171C87.1757 11.5629 88.3175 12.6233 89.3517 13.7842C90.3571 13.2479 91.3625 12.7285 92.368 12.2174C94.0436 11.3796 95.7193 10.4831 97.395 9.52794C97.7303 9.31458 98.0905 9.14295 98.4674 9.01686C98.9526 8.90028 99.4545 8.86909 99.9504 8.9247C100.501 8.92651 101.04 9.08017 101.509 9.36876C101.658 9.46884 101.784 9.6 101.878 9.75329C101.972 9.90657 102.032 10.0783 102.053 10.2569C102.171 11.3209 100.989 12.6447 100.126 13.6082C99.9085 13.8512 99.7158 14.0606 99.5985 14.2115L98.9031 15.0996C98.1995 15.9203 97.5766 16.8069 97.0431 17.7471C96.9174 17.9901 96.7666 18.3001 96.6074 18.652C96.0209 19.9255 95.2836 21.5174 94.4374 22.0034C93.944 22.3146 93.4222 22.5783 92.879 22.7909L91.9993 24.6174C91.9626 24.688 91.9073 24.7471 91.8393 24.7885C91.7714 24.8298 91.6934 24.8518 91.6139 24.852ZM87.4917 22.7071L91.3961 23.922L92.2339 22.2463C92.2574 22.1953 92.291 22.1497 92.3328 22.1122C92.3746 22.0748 92.4236 22.0463 92.4769 22.0285C92.9939 21.8339 93.4883 21.5839 93.9515 21.2828C94.5882 20.889 95.3255 19.2971 95.8115 18.2498C95.979 17.8896 96.1298 17.5628 96.2555 17.3115C96.8153 16.321 97.469 15.3867 98.2077 14.5215C98.4423 14.2366 98.6685 13.9433 98.8947 13.6836C99.0705 13.4537 99.2579 13.2327 99.4561 13.0217C100.084 12.3179 101.257 11.0193 101.132 10.3323C101.126 10.2702 101.106 10.2103 101.073 10.1577C101.039 10.1052 100.993 10.0616 100.939 10.0306C100.594 9.8358 100.204 9.73201 99.808 9.72903C99.4104 9.6839 99.0082 9.70656 98.6182 9.79605C98.3073 9.90881 98.0096 10.0549 97.7301 10.2317C96.0544 11.1952 94.3788 12.0833 92.7031 12.9379C91.6139 13.4993 90.5163 14.0606 89.4271 14.6136C89.3458 14.6569 89.2525 14.6721 89.1616 14.657C89.0707 14.6418 88.9874 14.5971 88.9244 14.5298C87.8979 13.3669 86.7769 12.2908 85.5731 11.3125C85.3308 11.223 85.0691 11.1991 84.8145 11.2433C84.56 11.2874 84.3217 11.398 84.1236 11.5639C84.5767 12.1626 85.0783 12.7231 85.6234 13.2396C86.3789 13.8768 87.0194 14.6392 87.5169 15.4934C87.6921 16.3954 87.7429 17.3172 87.6677 18.2331C87.6195 18.9025 87.6195 19.5745 87.6677 20.2439C87.7468 21.069 87.6874 21.9016 87.4917 22.7071Z" fill="#231F20"/>
<path d="M92.1836 13.935C93.7952 14.1636 95.3497 14.6922 96.7666 15.4933L92.1836 13.935Z" fill="white"/>
<path d="M96.7666 15.9123C96.6865 15.9107 96.6084 15.8876 96.5404 15.8452C95.1744 15.0772 93.6769 14.5714 92.125 14.3539C92.0151 14.3393 91.9154 14.2817 91.8479 14.1938C91.7804 14.1058 91.7504 13.9947 91.7647 13.8847C91.7793 13.7748 91.8369 13.6751 91.9249 13.6076C92.0128 13.5401 92.1239 13.5102 92.2339 13.5244C93.9109 13.7576 95.5285 14.3062 97.0012 15.1415C97.093 15.2029 97.1569 15.2981 97.1789 15.4064C97.2008 15.5146 97.1791 15.6272 97.1185 15.7196C97.0818 15.7797 97.03 15.8291 96.9683 15.8629C96.9065 15.8968 96.837 15.9138 96.7666 15.9123Z" fill="#231F20"/>
<path d="M93.5074 14.622C93.4437 14.6207 93.3813 14.605 93.3246 14.5759C93.268 14.5469 93.2188 14.5053 93.1806 14.4544C93.113 14.3666 93.083 14.2555 93.0972 14.1456C93.1113 14.0357 93.1684 13.9358 93.256 13.8679L98.0987 10.0725C98.1417 10.0349 98.192 10.0064 98.2465 9.98889C98.3009 9.97138 98.3584 9.96521 98.4153 9.97075C98.4722 9.97629 98.5274 9.99343 98.5774 10.0211C98.6275 10.0488 98.6713 10.0864 98.7063 10.1317C98.7412 10.1769 98.7665 10.2289 98.7807 10.2843C98.7948 10.3397 98.7974 10.3974 98.7884 10.4539C98.7793 10.5104 98.7588 10.5644 98.7281 10.6126C98.6974 10.6609 98.6571 10.7023 98.6098 10.7344L93.7671 14.5298C93.6931 14.5884 93.6017 14.6208 93.5074 14.622Z" fill="#231F20"/>
<path d="M95.4847 15.2504C95.4265 15.2513 95.3688 15.2398 95.3153 15.2167C95.2619 15.1936 95.214 15.1594 95.1747 15.1163C95.1357 15.0781 95.1047 15.0325 95.0836 14.9821C95.0624 14.9318 95.0515 14.8777 95.0515 14.8231C95.0515 14.7685 95.0624 14.7144 95.0836 14.664C95.1047 14.6137 95.1357 14.5681 95.1747 14.5298L99.9085 10.0223C99.9461 9.9822 99.9916 9.95026 100.042 9.92842C100.092 9.90659 100.147 9.89532 100.202 9.89532C100.257 9.89532 100.311 9.90659 100.362 9.92842C100.412 9.95026 100.457 9.9822 100.495 10.0223C100.534 10.0612 100.565 10.1076 100.587 10.1586C100.608 10.2096 100.619 10.2644 100.619 10.3197C100.619 10.375 100.608 10.4298 100.587 10.4808C100.565 10.5319 100.534 10.5782 100.495 10.6171L95.7612 15.1247C95.6876 15.199 95.5892 15.2438 95.4847 15.2504Z" fill="#231F20"/>
<path d="M89.2178 14.2952C89.2178 14.2952 91.6391 17.2025 91.0861 19.4563L89.2178 14.2952Z" fill="white"/>
<path d="M91.0861 19.8752H90.9772C90.9241 19.8625 90.8741 19.8393 90.8301 19.8071C90.7861 19.7748 90.7489 19.734 90.7208 19.6872C90.6927 19.6404 90.6743 19.5885 90.6665 19.5344C90.6587 19.4804 90.6618 19.4254 90.6756 19.3725C91.1783 17.345 88.9245 14.6052 88.8994 14.5801C88.8642 14.5377 88.8376 14.4889 88.8213 14.4363C88.805 14.3836 88.7992 14.3283 88.8043 14.2735C88.8093 14.2186 88.8251 14.1653 88.8508 14.1166C88.8765 14.0679 88.9115 14.0246 88.9538 13.9894C88.9962 13.9542 89.0451 13.9277 89.0977 13.9114C89.1503 13.8951 89.2056 13.8893 89.2604 13.8943C89.3153 13.8994 89.3686 13.9152 89.4174 13.9409C89.4661 13.9665 89.5093 14.0015 89.5445 14.0439C89.645 14.1696 92.058 17.1355 91.4883 19.5736C91.4629 19.6606 91.41 19.7371 91.3375 19.7915C91.265 19.8458 91.1768 19.8752 91.0861 19.8752Z" fill="#231F20"/>
<path d="M37.8414 28.5469L19.4928 38.7098L11.1144 23.989L1.89819 28.3709C1.89819 28.3709 4.34468 45.6304 7.15982 50.5569C9.97495 55.4834 31.1052 49.1828 39.1987 42.6142L37.8414 28.5469Z" fill="#FF7991"/>
<path d="M67.635 29.3847L78.9794 34.6798L86.3272 20.8723L94.5045 23.0004C94.5045 23.0004 89.2094 47.1804 83.3361 46.7782C77.4629 46.3761 56.2991 39.3298 56.2991 39.3298L67.635 29.3847Z" fill="#FF7991"/>
<path d="M34.2889 64.2974C34.1778 64.2974 34.0712 64.2533 33.9927 64.1747C33.9141 64.0962 33.87 63.9896 33.87 63.8785C33.7611 54.6623 36.8694 34.085 36.903 33.8755C36.9111 33.821 36.93 33.7687 36.9584 33.7215C36.9869 33.6743 37.0244 33.6332 37.0687 33.6005C37.1131 33.5678 37.1635 33.5442 37.217 33.531C37.2705 33.5178 37.326 33.5153 37.3805 33.5236C37.4896 33.5422 37.5872 33.6023 37.6528 33.6914C37.7185 33.7805 37.747 33.8915 37.7324 34.0012C37.7324 34.2106 34.5989 54.7377 34.7078 63.8701C34.7078 63.982 34.664 64.0894 34.5856 64.1693C34.5073 64.2492 34.4008 64.2952 34.2889 64.2974Z" fill="#231F20"/>
<path d="M83.336 47.1971C79.5406 47.1385 60.7144 41.1982 59.8765 40.9385C59.8246 40.9223 59.7764 40.896 59.7348 40.861C59.6931 40.826 59.6588 40.7831 59.6339 40.7348C59.6089 40.6865 59.5938 40.6337 59.5895 40.5795C59.5851 40.5253 59.5915 40.4707 59.6084 40.419C59.6237 40.3663 59.6494 40.3173 59.684 40.2747C59.7186 40.2321 59.7614 40.1969 59.8098 40.1711C59.8582 40.1453 59.9113 40.1295 59.966 40.1246C60.0206 40.1197 60.0757 40.1258 60.1279 40.1425C60.329 40.2012 79.6495 46.309 83.3276 46.3593C83.4387 46.3593 83.5453 46.4034 83.6239 46.482C83.7024 46.5606 83.7466 46.6671 83.7466 46.7782C83.7466 46.8893 83.7024 46.9959 83.6239 47.0744C83.5453 47.153 83.4387 47.1971 83.3276 47.1971H83.336Z" fill="#231F20"/>
<path d="M76.5329 39.9331C76.4654 39.9335 76.3989 39.9162 76.3402 39.8828C76.2913 39.8581 76.2478 39.8238 76.2124 39.7819C76.1769 39.7401 76.1502 39.6916 76.1338 39.6393C76.1174 39.5869 76.1116 39.5319 76.1169 39.4773C76.1221 39.4227 76.1382 39.3697 76.1643 39.3215L84.5427 23.2685C84.5682 23.2193 84.6033 23.1756 84.6459 23.1401C84.6885 23.1045 84.7377 23.0778 84.7907 23.0614C84.8437 23.0451 84.8995 23.0394 84.9547 23.0447C85.0099 23.0501 85.0635 23.0663 85.1124 23.0925C85.208 23.1458 85.2796 23.2337 85.3123 23.3381C85.3451 23.4426 85.3365 23.5556 85.2883 23.6539L76.9099 39.7069C76.8742 39.7758 76.8201 39.8335 76.7535 39.8734C76.6869 39.9134 76.6106 39.934 76.5329 39.9331Z" fill="#231F20"/>
<path d="M6.93363 15.862C5.71877 15.1163 4.14363 15.862 3.02093 16.6998C2.67066 16.9482 2.38367 17.2753 2.18309 17.655C2.08904 17.8488 2.05865 18.0675 2.09627 18.2796C2.13388 18.4918 2.23758 18.6866 2.39255 18.8363C2.59608 18.949 2.8227 19.0136 3.05505 19.0253C3.28741 19.0369 3.51934 18.9952 3.73309 18.9034L6.46444 18.1744C5.82083 19.0174 5.35869 19.9844 5.10714 21.0147C4.93107 21.5823 4.93107 22.1898 5.10714 22.7574C5.20455 23.0379 5.39233 23.2781 5.64101 23.4404C5.8897 23.6027 6.18522 23.6777 6.4812 23.6539" fill="white"/>
<path d="M6.28848 24.1147C5.93814 24.0935 5.60164 23.9704 5.32032 23.7605C5.03901 23.5506 4.82513 23.2631 4.70497 22.9334C4.5083 22.2832 4.5083 21.5894 4.70497 20.9393C4.89142 20.2207 5.1732 19.5304 5.5428 18.8866L3.86713 19.3306C3.59534 19.4357 3.30319 19.4775 3.01285 19.4528C2.72251 19.4281 2.44161 19.3376 2.19145 19.1882C1.96209 18.9825 1.80609 18.7076 1.74712 18.4052C1.68816 18.1028 1.72944 17.7894 1.8647 17.5125C2.09375 17.0657 2.42712 16.6806 2.83659 16.3898C3.61577 15.7866 5.59307 14.4879 7.22685 15.5017C7.27456 15.53 7.31605 15.5677 7.3488 15.6124C7.38155 15.6572 7.4049 15.7081 7.41743 15.7621C7.42995 15.8162 7.4314 15.8722 7.42169 15.9268C7.41198 15.9814 7.3913 16.0334 7.36091 16.0798C7.33345 16.1273 7.29658 16.1686 7.25257 16.2013C7.20856 16.2339 7.15833 16.2573 7.10497 16.2698C7.05162 16.2824 6.99626 16.2839 6.9423 16.2743C6.88834 16.2646 6.83691 16.2441 6.79118 16.2139C5.59307 15.485 3.9928 16.5574 3.35605 17.0517C3.05492 17.2573 2.80543 17.5297 2.62713 17.8477C2.5723 17.9578 2.55101 18.0816 2.56591 18.2038C2.5808 18.3259 2.63122 18.441 2.71091 18.5347C2.86418 18.6016 3.02962 18.6361 3.19686 18.6361C3.36409 18.6361 3.52953 18.6016 3.6828 18.5347L6.41416 17.8142C6.49748 17.788 6.58714 17.7902 6.66904 17.8205C6.75094 17.8509 6.82043 17.9076 6.86658 17.9817C6.9171 18.0527 6.94425 18.1376 6.94425 18.2247C6.94425 18.3118 6.9171 18.3967 6.86658 18.4677C6.23615 19.2482 5.77147 20.1491 5.50091 21.1152C5.35004 21.6009 5.35004 22.1209 5.50091 22.6066C5.56249 22.7964 5.68399 22.961 5.84716 23.0759C6.01033 23.1907 6.20635 23.2495 6.40578 23.2434C6.51688 23.2245 6.63094 23.2505 6.72286 23.3157C6.81477 23.3809 6.87702 23.48 6.89591 23.5911C6.9148 23.7022 6.88878 23.8162 6.82357 23.9081C6.75836 24.0001 6.65931 24.0623 6.54821 24.0812L6.28848 24.1147Z" fill="#231F20"/>
<path d="M44.3681 11.455C44.2078 11.2435 44.0033 11.0694 43.7689 10.945C43.5345 10.8206 43.2758 10.7487 43.0108 10.7344C42.7723 10.7256 42.5392 10.8063 42.3573 10.9606C42.1574 11.1779 42.0339 11.4544 42.0054 11.7482C41.8335 12.5321 41.8335 13.3438 42.0054 14.1277C42.1785 14.9155 42.6053 15.6248 43.2202 16.1469C43.9073 16.6915 44.854 16.8171 45.231 15.8704C45.5092 15.1265 45.5757 14.3201 45.4234 13.5407C45.2711 12.7613 44.9058 12.0394 44.3681 11.455Z" fill="white"/>
<path d="M44.2846 16.9847C43.7984 16.9681 43.332 16.7881 42.9608 16.4736C42.2718 15.895 41.792 15.1061 41.5951 14.2282C41.4201 13.3995 41.4201 12.5434 41.5951 11.7147C41.6314 11.329 41.8001 10.9678 42.0727 10.6925C42.3321 10.4666 42.6672 10.3469 43.0111 10.3574C43.3343 10.3676 43.6515 10.4478 43.9408 10.5924C44.2301 10.7371 44.4846 10.9427 44.6867 11.1952C45.2738 11.8378 45.6726 12.6296 45.8396 13.4837C46.0066 14.3379 45.9353 15.2216 45.6335 16.0379C45.5577 16.2576 45.4296 16.4554 45.2603 16.6145C45.091 16.7736 44.8855 16.8892 44.6616 16.9512C44.5381 16.98 44.4112 16.9913 44.2846 16.9847ZM42.9943 11.1198C42.8586 11.112 42.7246 11.1537 42.6173 11.2371C42.4924 11.3963 42.4167 11.5885 42.3994 11.7901C42.2437 12.5192 42.2437 13.2729 42.3994 14.002C42.5607 14.6967 42.9393 15.3219 43.4802 15.7866C43.6046 15.9061 43.7543 15.996 43.9183 16.0496C44.0822 16.1033 44.2561 16.1194 44.427 16.0966C44.5247 16.0661 44.6133 16.0118 44.6849 15.9387C44.7566 15.8656 44.809 15.776 44.8376 15.6777C45.0749 14.9997 45.1223 14.2698 44.9746 13.5668C44.827 12.8638 44.4898 12.2147 43.9997 11.6896C43.8796 11.5381 43.7301 11.4125 43.5602 11.3204C43.3903 11.2282 43.2035 11.1714 43.0111 11.1533L42.9943 11.1198Z" fill="#231F20"/>
<path d="M60.3626 14.9906C62.0383 13.1139 62.8761 9.51955 62.6331 7.22387C62.365 4.52604 59.818 0.646846 56.6007 2.04604C56.3673 2.18023 56.1067 2.26039 55.8383 2.28063C55.4361 2.28063 55.1429 1.92036 54.8496 1.6355C53.4337 0.278199 51.1966 0.227925 49.278 0.663601C47.0876 1.08333 45.105 2.23563 43.6561 3.93117C42.7491 5.07587 42.2533 6.49232 42.2485 7.9528C42.2485 9.2682 42.9439 10.2987 43.0864 11.5806C43.3126 13.6585 43.0864 16.8087 45.4491 17.7974C48.1218 18.9369 52.001 17.7304 54.7072 17.2193C56.2907 16.926 58.6199 16.5071 59.8934 15.4514C60.06 15.3086 60.2168 15.1547 60.3626 14.9906Z" fill="white"/>
<path d="M48.1302 18.6855C47.1592 18.7123 46.1928 18.5412 45.29 18.1828C43.0864 17.2528 42.9021 14.7058 42.7764 12.6615C42.7764 12.3012 42.7178 11.9493 42.6843 11.6225C42.6093 11.0995 42.4802 10.5856 42.2989 10.0893C42.036 9.40845 41.8833 8.69008 41.8464 7.96119C41.8525 6.40379 42.3806 4.89338 43.3462 3.67145C44.8564 1.89923 46.9247 0.693689 49.211 0.253072C50.6689 -0.0736845 53.4002 -0.375305 55.1681 1.33388L55.2854 1.45118C55.4948 1.66064 55.6959 1.85334 55.8802 1.86172C56.0324 1.83897 56.1797 1.79083 56.3159 1.71929L56.4583 1.66064C57.0044 1.41208 57.6031 1.3012 58.202 1.33772C58.8009 1.37424 59.3816 1.55703 59.8935 1.8701C60.7759 2.4754 61.5172 3.26413 62.0667 4.18236C62.6162 5.10058 62.9609 6.12664 63.0772 7.19037C63.3202 9.61172 62.4991 13.2982 60.6978 15.2755C60.54 15.4528 60.3692 15.6181 60.1867 15.7698C58.8713 16.8674 56.6091 17.2947 54.9586 17.6047H54.8078L53.3081 17.9231C51.6131 18.3555 49.8779 18.611 48.1302 18.6855ZM51.3224 0.839563C50.6656 0.847526 50.0114 0.923331 49.3702 1.06578C47.275 1.46812 45.3785 2.56998 43.9913 4.19092C43.1404 5.26081 42.6742 6.58582 42.6675 7.95281C42.7041 8.59347 42.8427 9.22419 43.0781 9.82118C43.2752 10.3644 43.4183 10.9256 43.5054 11.4969C43.5054 11.832 43.564 12.1923 43.5891 12.5693C43.7316 14.4796 43.8908 16.6496 45.6167 17.3785C47.6945 18.2666 50.694 17.6131 53.0986 17.0936L54.6319 16.7752H54.7743C56.341 16.482 58.4775 16.0798 59.6254 15.0996C59.7779 14.9736 59.9207 14.8364 60.0527 14.689C61.6697 12.9044 62.4405 9.43578 62.2143 7.24065C62.1119 6.30874 61.8115 5.40948 61.3332 4.60317C60.8549 3.79685 60.2098 3.10211 59.441 2.56551C59.0439 2.31925 58.5921 2.17508 58.1258 2.14584C57.6594 2.1166 57.1931 2.20321 56.7683 2.39794L56.6427 2.45659C56.3901 2.60818 56.0992 2.6838 55.8048 2.67442C55.3537 2.61437 54.9428 2.38345 54.657 2.02929L54.5481 1.92037C53.6492 1.16337 52.4959 0.776933 51.3224 0.839563Z" fill="#231F20"/>
<path d="M48.0799 21.7436L46.798 27.8933C46.798 27.8933 48.7167 31.7977 52.797 30.8174C56.8772 29.8371 57.5726 26.712 57.5726 26.7036L57.9748 20.1098L58.2261 16.0463C58.3091 15.6357 58.3344 15.2155 58.3015 14.7979C58.1675 14.379 57.6899 14.0606 57.4637 13.7171C57.0912 13.1897 56.7687 12.6287 56.5002 12.0415C55.9333 10.8978 55.5327 9.67897 55.3105 8.42199C53.7628 8.5096 52.2358 8.03335 51.0124 7.08145C50.5515 7.84388 51.9088 8.61469 51.7999 9.5028C50.3253 9.23469 48.4486 8.71523 47.4097 7.60929C46.8902 7.54226 44.8124 11.1366 44.4856 12.5693C44.0478 14.4332 43.9598 16.3622 44.2259 18.2582C44.6699 21.4588 48.0799 21.7436 48.0799 21.7436Z" fill="white"/>
<path d="M51.5067 31.3955C48.08 31.3955 46.4378 28.1112 46.4127 28.0442C46.3877 27.9537 46.3877 27.8582 46.4127 27.7677L47.6108 22.0536C46.6668 21.9052 45.7925 21.4664 45.1093 20.7982C44.4262 20.13 43.968 19.2657 43.7986 18.3252C43.525 16.3701 43.6187 14.3811 44.0751 12.4604C44.2846 11.4969 46.3792 7.04795 47.4265 7.17363C47.5223 7.19064 47.6103 7.23757 47.6778 7.30768C48.6651 8.19811 49.8911 8.78055 51.2051 8.98335C51.1321 8.85003 51.0509 8.72132 50.9621 8.59795C50.6354 8.12038 50.2248 7.52552 50.6186 6.92227C50.6501 6.87127 50.6915 6.82716 50.7405 6.79261C50.7894 6.75805 50.8449 6.73375 50.9035 6.72119C51.0217 6.70713 51.1409 6.73694 51.2386 6.80498C52.3776 7.70065 53.8054 8.14777 55.2519 8.06173C55.3535 8.05778 55.4532 8.0902 55.533 8.15317C55.6129 8.21613 55.6677 8.30551 55.6875 8.40525C55.9091 9.61892 56.3012 10.7952 56.8521 11.899C57.1116 12.4506 57.4201 12.9777 57.7738 13.4742C57.8645 13.5865 57.9625 13.6929 58.067 13.7925C58.3405 14.0215 58.5607 14.3074 58.7121 14.6304C58.7872 14.9867 58.7872 15.3548 58.7121 15.7112C58.6897 15.8192 58.6729 15.9282 58.6619 16.038L58.0167 26.6953C58.0167 26.6953 57.3381 30.122 52.9227 31.1861C52.4607 31.3121 51.9854 31.3824 51.5067 31.3955ZM47.2338 27.8263C47.5856 28.4631 49.3367 31.1777 52.6881 30.4069C56.4667 29.502 57.1454 26.645 57.1538 26.6198L57.7989 16.0212C57.8058 15.8861 57.8226 15.7517 57.8492 15.619C57.8922 15.3899 57.9091 15.1566 57.8994 14.9236C57.79 14.7161 57.6422 14.5313 57.4638 14.379C57.3293 14.2505 57.2034 14.1134 57.0867 13.9685C56.7013 13.4417 56.3648 12.8808 56.0813 12.2928C55.5542 11.2297 55.1656 10.1034 54.9251 8.94146C53.7488 8.95846 52.5901 8.6543 51.5738 8.06173L51.6575 8.19579C52.0081 8.59676 52.199 9.11266 52.1938 9.64525C52.1866 9.70161 52.1681 9.75593 52.1392 9.8049C52.1104 9.85388 52.072 9.89648 52.0262 9.93011C51.9801 9.96497 51.9272 9.9897 51.8709 10.0027C51.8146 10.0157 51.7561 10.0167 51.6994 10.0055C50.1035 9.82113 48.5882 9.20403 47.3175 8.22092C46.2439 9.57406 45.4107 11.1016 44.8543 12.7369C44.4307 14.5488 44.3426 16.423 44.5946 18.2666C45.0302 21.065 47.9459 21.3582 48.1135 21.3666C48.1729 21.3745 48.2302 21.3941 48.282 21.4243C48.3337 21.4545 48.379 21.4947 48.4151 21.5426C48.4485 21.5893 48.4718 21.6425 48.4833 21.6988C48.4949 21.7551 48.4944 21.8132 48.4821 21.8693L47.2338 27.8263Z" fill="#231F20"/>
<path d="M47.4014 24.9777C48.1043 25.1156 48.8303 25.0802 49.5165 24.8743C50.2026 24.6685 50.8283 24.2985 51.3392 23.7963C53.1406 22.062 53.0149 20.6042 53.0149 20.6042C51.5845 21.6055 49.8218 22.0139 48.0968 21.7436L47.4014 24.9777Z" fill="#231F20"/>
<path d="M48.2308 25.4804C47.9179 25.4839 47.6057 25.4501 47.3008 25.3798C47.1967 25.3539 47.1066 25.2891 47.0489 25.1987C46.9912 25.1083 46.9704 24.9992 46.9908 24.8939L47.6694 21.6598C47.6793 21.6065 47.6999 21.5557 47.73 21.5105C47.7601 21.4653 47.799 21.4267 47.8444 21.3969C47.8898 21.3672 47.9408 21.3469 47.9942 21.3374C48.0477 21.3279 48.1025 21.3292 48.1554 21.3415C49.7654 21.5819 51.4066 21.2016 52.7467 20.2774C52.8074 20.2348 52.8781 20.2087 52.9519 20.2016C53.0257 20.1946 53.1001 20.2069 53.1677 20.2374C53.2354 20.2678 53.2939 20.3153 53.3376 20.3752C53.3813 20.4351 53.4086 20.5053 53.417 20.579C53.417 20.6461 53.551 22.2547 51.624 24.1063C50.7168 24.9915 49.4982 25.4849 48.2308 25.4804ZM47.8956 24.6425C48.4719 24.6925 49.0522 24.6164 49.5962 24.4196C50.1402 24.2229 50.6349 23.9101 51.0459 23.5031C51.6758 22.9392 52.1564 22.2282 52.4451 21.4336C51.2073 22.101 49.7967 22.3785 48.3983 22.2296L47.8956 24.6425Z" fill="#231F20"/>
<path d="M51.3895 11.6812C51.3895 11.6812 49.1357 14.7979 49.6216 15.3677C50.1076 15.9374 51.5486 15.6274 51.5486 15.6274" fill="white"/>
<path d="M50.7106 16.1385C50.4539 16.1582 50.1959 16.1236 49.9534 16.0369C49.7108 15.9503 49.4893 15.8137 49.3031 15.6358C48.8339 15.0912 49.4288 13.6752 51.0458 11.4466C51.1125 11.3582 51.211 11.2992 51.3204 11.282C51.4298 11.2648 51.5416 11.2908 51.6323 11.3544C51.6779 11.3861 51.7165 11.4266 51.746 11.4736C51.7755 11.5206 51.7951 11.5732 51.8037 11.628C51.8124 11.6828 51.8098 11.7388 51.7961 11.7926C51.7825 11.8464 51.7581 11.8968 51.7244 11.9409C50.7274 13.3233 49.9063 14.8315 49.9733 15.1666C50.1493 15.3593 50.9536 15.3425 51.4563 15.2336C51.5102 15.2213 51.5661 15.2197 51.6206 15.2291C51.6751 15.2384 51.7273 15.2584 51.774 15.288C51.8208 15.3176 51.8612 15.3562 51.8929 15.4015C51.9247 15.4468 51.9471 15.498 51.959 15.552C51.9793 15.6617 51.9567 15.775 51.8959 15.8685C51.8351 15.962 51.7407 16.0287 51.6323 16.0547C51.3286 16.1129 51.0199 16.141 50.7106 16.1385Z" fill="#231F20"/>
<path d="M54.0144 12.2771C54.3055 12.2628 54.5252 11.9177 54.505 11.5064C54.4848 11.0951 54.2324 10.7732 53.9413 10.7875C53.6501 10.8018 53.4304 11.1468 53.4506 11.5581C53.4708 11.9695 53.7232 12.2913 54.0144 12.2771Z" fill="#231F20"/>
<path d="M49.4928 11.5291C49.5947 11.1301 49.4484 10.7481 49.1659 10.676C48.8835 10.6038 48.5719 10.8688 48.47 11.2678C48.368 11.6668 48.5144 12.0488 48.7968 12.1209C49.0793 12.1931 49.3909 11.9281 49.4928 11.5291Z" fill="#231F20"/>
<path d="M50.1493 20.445C49.836 20.4597 49.5233 20.405 49.2336 20.2848C48.944 20.1646 48.6844 19.9818 48.4736 19.7496C47.5101 18.5515 47.9374 16.6412 47.9542 16.5574C47.9757 16.4614 48.0303 16.3761 48.1084 16.3164C48.1866 16.2566 48.2832 16.2263 48.3815 16.2307C53.2996 16.4652 53.3163 16.4904 53.4755 16.6831C53.5142 16.7305 53.5418 16.7859 53.5563 16.8454C53.5708 16.9048 53.5718 16.9667 53.5593 17.0266C53.4277 17.7888 53.1239 18.5109 52.6712 19.1379C52.3802 19.5336 52.0023 19.8573 51.5665 20.0839C51.1307 20.3105 50.6487 20.434 50.1577 20.445H50.1493ZM48.725 17.0936C48.5868 17.8283 48.7304 18.5881 49.1271 19.2217C49.259 19.3643 49.4224 19.4742 49.6042 19.5425C49.786 19.6109 49.9813 19.6359 50.1744 19.6155C50.5345 19.6017 50.8868 19.5063 51.2047 19.3365C51.5225 19.1667 51.7977 18.9269 52.0093 18.6352C52.3037 18.2415 52.5198 17.795 52.6461 17.3198C51.825 17.2444 50.0823 17.1523 48.7501 17.0852L48.725 17.0936Z" fill="#231F20"/>
<path d="M56.9275 14.5298C56.8856 13.1893 58.2512 11.3796 59.7175 12.209C59.9688 12.3775 60.1837 12.5949 60.3492 12.8483C60.5148 13.1016 60.6276 13.3857 60.681 13.6836C61.3261 16.4652 59.1645 17.4036 57.6983 18.0571" fill="white"/>
<path d="M57.7318 18.4593C57.6495 18.4619 57.5683 18.4403 57.4983 18.3971C57.4283 18.3539 57.3725 18.291 57.338 18.2163C57.2919 18.1185 57.2863 18.0064 57.3224 17.9044C57.3584 17.8024 57.4333 17.7188 57.5307 17.6717C59.0304 17.0098 60.8318 16.1971 60.2704 13.7842C60.186 13.2969 59.9118 12.8631 59.508 12.5777C59.3393 12.4694 59.143 12.4118 58.9425 12.4118C58.742 12.4118 58.5457 12.4694 58.3769 12.5777C58.0652 12.7946 57.8092 13.0824 57.6301 13.4174C57.451 13.7523 57.3537 14.1249 57.3464 14.5047C57.3464 14.6158 57.3023 14.7224 57.2237 14.8009C57.1451 14.8795 57.0386 14.9236 56.9275 14.9236C56.8164 14.9236 56.7098 14.8795 56.6312 14.8009C56.5527 14.7224 56.5085 14.6158 56.5085 14.5047C56.5194 13.987 56.6554 13.4796 56.9049 13.0259C57.1543 12.5721 57.5099 12.1855 57.9413 11.899C58.2401 11.7161 58.5837 11.6193 58.9341 11.6193C59.2845 11.6193 59.6281 11.7161 59.9269 11.899C60.221 12.0879 60.4746 12.3332 60.6731 12.6209C60.8716 12.9085 61.011 13.2327 61.0831 13.5747C61.8121 16.6663 59.4075 17.7639 57.9161 18.4006C57.861 18.4363 57.7974 18.4565 57.7318 18.4593Z" fill="#231F20"/>
</svg>
