<svg width="256" height="193" viewBox="0 0 256 193" fill="none" xmlns="http://www.w3.org/2000/svg">
<path d="M169.08 20.9598C169.08 20.9598 170.066 16.9458 169.317 14.0138L162.207 14.5324C162.207 14.5324 162.207 21.1454 164.216 22.1057C166.226 23.0659 169.605 20.6909 169.605 20.6909" fill="white"/>
<path d="M165.311 22.6626C164.882 22.6717 164.457 22.5819 164.069 22.4002C161.964 21.3823 161.88 15.2302 161.88 14.5324C161.879 14.4496 161.909 14.3693 161.965 14.3085C162.021 14.2476 162.099 14.2108 162.181 14.2059L169.298 13.6873C169.375 13.6794 169.453 13.7006 169.516 13.7467C169.578 13.7929 169.622 13.8607 169.637 13.937C170.22 16.216 169.791 19.0584 169.541 20.3708C169.615 20.3577 169.691 20.37 169.757 20.4056C169.823 20.4412 169.875 20.4981 169.905 20.5671C169.935 20.636 169.94 20.7129 169.921 20.7854C169.901 20.8578 169.858 20.9215 169.797 20.9662C169.676 21.0494 167.327 22.6626 165.311 22.6626ZM162.54 14.8204C162.584 16.7922 162.962 21.1134 164.357 21.7856C165.637 22.4258 167.73 21.4079 168.773 20.8061C168.882 20.3132 169.612 16.965 169.061 14.3467L162.54 14.8204Z" fill="#231F20"/>
<path d="M149.311 60.4716C146.751 64.0054 137.503 83.2108 136.882 84.1071C136.024 85.349 133.304 85.7203 132.184 86.559C130.853 87.5577 129.932 89.5422 129.279 91.0402C129.005 91.5652 128.868 92.1511 128.882 92.7431C128.891 93.0436 128.999 93.3328 129.19 93.5647C129.382 93.7966 129.645 93.958 129.938 94.0235C130.21 94.0184 130.477 93.9591 130.726 93.8492C130.974 93.7393 131.198 93.5809 131.384 93.3833L134.028 91.1811C134.29 91.7828 133.964 92.4614 133.708 93.0504C133.452 93.6394 133.298 94.446 133.784 94.8749C133.969 95.0239 134.19 95.1211 134.424 95.1566C135.928 95.4639 137.471 94.6124 138.444 93.4345C139.416 92.2566 140.696 91.6932 141.234 90.2336C141.874 88.5563 144.728 85.7908 145.554 84.1967C146.13 83.0892 144.056 82.3338 144.831 81.3351L149.951 74.7605L156.466 66.3549" fill="white"/>
<path d="M135.032 95.4831C134.817 95.4826 134.603 95.4612 134.392 95.4191C134.098 95.3735 133.822 95.2497 133.592 95.0606C133.087 94.606 133.023 93.7802 133.432 92.8583L133.477 92.7431C133.634 92.4294 133.746 92.0954 133.81 91.7508L131.596 93.5625C131.379 93.7944 131.116 93.9784 130.824 94.103C130.532 94.2275 130.217 94.2898 129.9 94.286C129.537 94.2132 129.208 94.0224 128.965 93.7433C128.722 93.4642 128.578 93.1126 128.556 92.7431C128.531 92.0959 128.677 91.4536 128.978 90.8802C129.516 89.6574 130.514 87.3784 131.986 86.2773C132.61 85.8831 133.284 85.5731 133.989 85.3554C135.058 84.9649 136.159 84.5552 136.613 83.9022C136.792 83.6398 137.932 81.3415 139.25 78.7296C142.45 72.3278 147.256 62.7251 149.048 60.2604C149.071 60.2185 149.102 60.182 149.14 60.1533C149.178 60.1245 149.222 60.1043 149.268 60.0938C149.315 60.0834 149.363 60.0831 149.409 60.0928C149.456 60.1026 149.5 60.1222 149.538 60.1504C149.577 60.1786 149.608 60.2147 149.632 60.2562C149.655 60.2978 149.669 60.3438 149.673 60.3912C149.677 60.4387 149.67 60.4864 149.654 60.5312C149.638 60.576 149.613 60.6168 149.58 60.6509C147.826 63.0452 142.828 73.0512 139.839 79.0241C138.213 82.2762 137.356 83.9919 137.157 84.2799C136.588 85.1058 135.378 85.5603 134.213 85.9764C133.57 86.1755 132.955 86.4552 132.383 86.8086C131.045 87.8073 130.092 90.0095 129.58 91.1427C129.326 91.6142 129.2 92.1439 129.215 92.6791C129.223 92.8988 129.301 93.1101 129.438 93.2819C129.575 93.4537 129.764 93.5768 129.976 93.633C130.434 93.6007 130.862 93.3946 131.173 93.0568L133.816 90.861C133.855 90.8269 133.902 90.8027 133.952 90.7904C134.002 90.7781 134.054 90.7782 134.104 90.7906C134.154 90.8023 134.201 90.8258 134.24 90.8592C134.279 90.8927 134.309 90.935 134.328 90.9826C134.426 91.319 134.453 91.672 134.406 92.0192C134.36 92.3664 134.242 92.7001 134.06 92.9992L134.015 93.1144C133.906 93.3577 133.592 94.1963 134.015 94.5612C134.158 94.6724 134.328 94.7432 134.508 94.7661C135.212 94.8466 135.924 94.7399 136.574 94.4566C137.223 94.1733 137.787 93.7236 138.207 93.1528C138.568 92.7294 138.966 92.3394 139.397 91.9877C140.07 91.4926 140.601 90.8306 140.94 90.0672C141.311 89.0813 142.367 87.7945 143.384 86.5526C144.098 85.7567 144.74 84.8998 145.304 83.9919C145.471 83.6718 145.304 83.4029 144.914 82.8971C144.524 82.3914 144.056 81.796 144.607 81.0854L156.223 66.1052C156.249 66.0703 156.282 66.0409 156.32 66.0187C156.358 65.9966 156.4 65.9821 156.443 65.9762C156.487 65.9702 156.531 65.9729 156.573 65.9841C156.615 65.9952 156.655 66.0147 156.69 66.0412C156.758 66.0965 156.802 66.1761 156.813 66.2633C156.824 66.3504 156.8 66.4383 156.748 66.5086L145.087 81.5144C144.882 81.7768 144.972 81.9753 145.394 82.5194C145.816 83.0636 146.226 83.5886 145.842 84.3248C145.265 85.2734 144.606 86.1689 143.871 87.0007C142.949 88.0003 142.163 89.1175 141.535 90.3232C141.157 91.1863 140.562 91.9364 139.807 92.4998C139.406 92.8243 139.032 93.1796 138.687 93.5625C138.252 94.1273 137.701 94.5914 137.07 94.9229C136.439 95.2544 135.744 95.4455 135.032 95.4831Z" fill="#231F20"/>
<path d="M145.24 42.4698C145.24 42.4698 146.975 58.5319 145.471 62.2386C143.794 66.3869 136.626 81.9177 136.626 81.9177L144.581 86.8727C144.581 86.8727 152.191 74.9973 152.978 70.1128C153.765 65.2282 145.24 42.4698 145.24 42.4698Z" fill="#FF7991"/>
<path d="M112.882 116.244L112.447 137.095C112.425 138.08 112.062 139.028 111.42 139.776C110.779 140.524 109.897 141.027 108.927 141.198L96.7669 143.33C95.9037 143.481 95.0151 143.361 94.2225 142.987C93.4298 142.614 92.7718 142.005 92.3381 141.243L86.7893 131.519L89.9893 130.027L94.6933 138.58C94.9576 139.063 95.3663 139.451 95.8621 139.689C96.3579 139.928 96.916 140.006 97.4581 139.912L106.757 138.317C107.364 138.213 107.915 137.9 108.316 137.433C108.717 136.965 108.942 136.373 108.952 135.757L109.407 119.349L112.882 116.244Z" fill="white"/>
<path d="M180.216 74.8437L179.647 113.895L195.999 133.388L192.447 141.448C192.447 141.448 167.026 126.794 162.706 120.764C158.386 114.733 157.74 100.195 157.74 100.195L143.512 114.477L138.047 142.043L127.167 141.448C127.167 141.448 128.549 122.134 128.549 113.69C128.549 105.246 150.053 76.2009 150.053 76.2009L180.216 74.8437Z" fill="#231F20"/>
<path d="M138.047 142.363L127.167 141.768C127.083 141.761 127.005 141.722 126.949 141.659C126.921 141.628 126.898 141.592 126.884 141.552C126.87 141.513 126.864 141.471 126.866 141.429C126.866 141.237 128.248 122.031 128.248 113.69C128.248 105.233 148.933 77.1996 149.816 76.0088C149.844 75.9712 149.879 75.9402 149.92 75.9181C149.961 75.8959 150.007 75.8832 150.053 75.8808L180.191 74.5236C180.234 74.5204 180.278 74.5268 180.319 74.5423C180.36 74.5578 180.397 74.582 180.428 74.6132C180.459 74.6442 180.483 74.6812 180.5 74.7219C180.516 74.7626 180.524 74.8062 180.524 74.8501L179.954 113.773L196.229 133.17C196.27 133.215 196.297 133.27 196.306 133.329C196.315 133.388 196.306 133.449 196.28 133.503L192.735 141.576C192.718 141.618 192.693 141.655 192.659 141.685C192.626 141.715 192.586 141.737 192.543 141.749C192.502 141.766 192.459 141.775 192.415 141.775C192.371 141.775 192.327 141.766 192.287 141.749C191.244 141.147 166.764 127.025 162.444 120.975C158.604 115.63 157.65 103.991 157.458 100.95L143.807 114.631L138.36 142.107C138.347 142.18 138.308 142.246 138.25 142.293C138.193 142.34 138.121 142.365 138.047 142.363ZM127.532 141.147L137.772 141.71L143.186 114.413C143.197 114.351 143.226 114.293 143.269 114.247L157.509 99.9643C157.554 99.9207 157.61 99.8909 157.672 99.8784C157.733 99.8659 157.796 99.8713 157.855 99.8939C157.912 99.9164 157.961 99.955 157.996 100.005C158.031 100.055 158.051 100.114 158.053 100.176C158.053 100.316 158.744 114.682 162.962 120.572C166.943 126.122 189.394 139.297 192.3 140.987L195.628 133.42L179.404 114.087C179.354 114.027 179.327 113.953 179.327 113.875L179.896 75.1702L150.252 76.5082C148.735 78.5695 128.901 105.707 128.901 113.683C128.901 121.455 127.717 138.58 127.538 141.147H127.532Z" fill="#231F20"/>
<path d="M179.468 33.6993C170.86 29.3589 148.716 28.1746 145.471 34.7812C142.911 40.0307 150.7 67.6929 150.7 67.6929L178.092 73.3521C178.092 73.3521 183.762 35.8631 179.468 33.6993Z" fill="#FF7991"/>
<path d="M147.288 81.3095L149.925 54.1787L180.972 56.2337L180.159 78.7104L147.288 81.3095Z" fill="#231F20"/>
<path d="M147.288 81.6296C147.246 81.6301 147.205 81.6218 147.166 81.6053C147.128 81.5888 147.093 81.5643 147.064 81.5336C147.031 81.5003 147.006 81.46 146.991 81.4157C146.975 81.3714 146.97 81.3242 146.975 81.2775L149.605 54.1467C149.608 54.1054 149.62 54.0652 149.639 54.0284C149.657 53.9916 149.683 53.9588 149.715 53.932C149.746 53.9053 149.783 53.885 149.822 53.8724C149.862 53.8598 149.903 53.8551 149.944 53.8586L180.991 55.9136C181.073 55.9185 181.151 55.9553 181.207 56.0162C181.263 56.077 181.293 56.1573 181.292 56.2401L180.479 78.7232C180.475 78.8012 180.443 78.875 180.389 78.9314C180.335 78.9878 180.262 79.0229 180.184 79.0305L147.314 81.6296H147.288ZM150.207 54.5116L147.647 80.9574L179.852 78.3967L180.645 56.5089L150.207 54.5116Z" fill="#231F20"/>
<path d="M159.397 29.3781L159.986 35.1397C159.986 35.1397 161.349 38.219 164.92 36.6762C165.946 36.2325 166.828 35.5128 167.469 34.5973C168.109 33.6818 168.483 32.6063 168.549 31.4907L167.41 21.1262C167.41 21.1262 164.395 20.1275 164.178 13.9882C164.178 13.9882 160.594 13.9882 154.936 14.2507C154.936 14.2507 154.156 23.7958 155.103 26.6061C156.05 29.4165 159.397 29.3781 159.397 29.3781Z" fill="white"/>
<path d="M163.039 37.4636C162.336 37.4456 161.652 37.2348 161.06 36.8544C160.469 36.474 159.993 35.9384 159.685 35.3062C159.682 35.2721 159.682 35.2378 159.685 35.2038L159.122 29.6982C158.232 29.6342 155.647 29.2245 154.815 26.747C153.861 23.9046 154.597 14.654 154.629 14.2571C154.637 14.1766 154.674 14.1017 154.733 14.0463C154.791 13.991 154.868 13.9589 154.949 13.9562C160.549 13.7129 164.165 13.6937 164.204 13.6937C164.29 13.6937 164.373 13.727 164.435 13.7867C164.497 13.8463 164.533 13.9278 164.536 14.0138C164.741 19.8523 167.512 20.8381 167.544 20.8445C167.604 20.8657 167.657 20.9034 167.697 20.9532C167.736 21.003 167.761 21.063 167.768 21.1262L168.882 31.4651C168.815 32.6517 168.42 33.7965 167.742 34.7727C167.065 35.7489 166.13 36.5185 165.042 36.9963C164.413 37.286 163.731 37.445 163.039 37.4636V37.4636ZM160.312 35.0757C160.492 35.4406 161.759 37.7069 164.792 36.4009C165.762 35.985 166.597 35.3071 167.203 34.4432C167.809 33.5793 168.162 32.5635 168.223 31.5099L167.103 21.3823C166.399 21.0366 164.133 19.5322 163.864 14.3403C162.885 14.3403 159.73 14.3979 155.244 14.59C155.122 16.2032 154.604 24.0774 155.416 26.5229C156.229 28.9684 159.256 29.0452 159.391 29.0388C159.474 29.0397 159.554 29.0706 159.617 29.1259C159.679 29.1812 159.719 29.2571 159.73 29.3397L160.312 35.0757Z" fill="#231F20"/>
<path d="M166.303 21.3439C166.341 20.8111 166.553 20.3055 166.904 19.9035C167.775 18.9112 169.599 18.2198 170.424 19.609C171.743 21.8304 169.375 24.692 166.975 24.0902" fill="white"/>
<path d="M167.634 24.4999C167.386 24.4995 167.138 24.4673 166.898 24.4039C166.856 24.3942 166.816 24.3761 166.781 24.3508C166.746 24.3254 166.716 24.2934 166.693 24.2564C166.671 24.2195 166.656 24.1784 166.649 24.1356C166.642 24.0928 166.644 24.0491 166.655 24.007C166.665 23.9645 166.684 23.9246 166.71 23.8893C166.736 23.8541 166.769 23.8244 166.806 23.8018C166.844 23.7792 166.885 23.7642 166.928 23.7577C166.972 23.7511 167.016 23.7532 167.058 23.7637C167.59 23.8744 168.143 23.8253 168.648 23.6225C169.152 23.4198 169.586 23.0725 169.893 22.6242C170.219 22.2323 170.418 21.75 170.463 21.2421C170.507 20.7341 170.396 20.2246 170.143 19.7818C170.05 19.6049 169.915 19.4538 169.75 19.342C169.585 19.2303 169.394 19.1614 169.196 19.1416C168.807 19.1463 168.423 19.2344 168.071 19.4001C167.718 19.5657 167.406 19.8051 167.154 20.1019C166.849 20.4504 166.665 20.8884 166.629 21.3503C166.627 21.3937 166.616 21.4363 166.597 21.4754C166.578 21.5145 166.551 21.5495 166.518 21.5781C166.485 21.6067 166.447 21.6285 166.406 21.6421C166.364 21.6558 166.321 21.661 166.277 21.6575C166.19 21.651 166.109 21.6104 166.052 21.5445C165.994 21.4786 165.965 21.3927 165.97 21.3054C166.017 20.6998 166.257 20.1252 166.655 19.6666C166.974 19.2887 167.373 18.9868 167.824 18.783C168.275 18.5792 168.765 18.4786 169.26 18.4887C169.558 18.5172 169.844 18.6193 170.093 18.7857C170.343 18.9522 170.546 19.1779 170.687 19.4425C171.003 19.9988 171.145 20.6371 171.095 21.275C171.045 21.9129 170.804 22.5211 170.405 23.0211C170.089 23.4647 169.674 23.829 169.193 24.0855C168.712 24.3421 168.179 24.4839 167.634 24.4999V24.4999Z" fill="#231F20"/>
<path d="M159.679 32.1501C160.913 31.815 162.016 31.1115 162.84 30.1335C163.183 29.7685 163.423 29.319 163.536 28.8309C163.648 28.3427 163.629 27.8335 163.48 27.3552C162.985 27.9718 162.36 28.4725 161.65 28.822C160.94 29.1714 160.163 29.3613 159.372 29.3781L159.679 32.1501Z" fill="#231F20"/>
<path d="M159.679 32.4702C159.611 32.4713 159.546 32.4486 159.493 32.4062C159.457 32.38 159.427 32.3465 159.405 32.3079C159.383 32.2693 159.369 32.2264 159.365 32.1821L159.084 29.4101C159.079 29.3649 159.084 29.3193 159.099 29.2762C159.113 29.2332 159.137 29.1937 159.167 29.1604C159.198 29.1271 159.236 29.1007 159.278 29.0831C159.32 29.0654 159.365 29.0569 159.41 29.058H159.525C160.247 29.0165 160.952 28.8241 161.594 28.4933C162.237 28.1625 162.803 27.7007 163.256 27.1375C163.29 27.0922 163.335 27.057 163.387 27.0355C163.439 27.0141 163.495 27.0073 163.551 27.0159C163.608 27.0244 163.661 27.0478 163.706 27.0838C163.751 27.1198 163.786 27.167 163.807 27.2207C163.975 27.7551 163.996 28.3249 163.867 28.8701C163.739 29.4154 163.466 29.9159 163.077 30.3192C162.209 31.3502 161.045 32.0898 159.743 32.4382L159.679 32.4702ZM159.749 29.6918L159.96 31.7404C160.98 31.3651 161.889 30.74 162.604 29.9223C162.841 29.673 163.026 29.3784 163.147 29.0561C163.268 28.7339 163.322 28.3905 163.308 28.0465C162.361 29.0093 161.096 29.5941 159.749 29.6918V29.6918Z" fill="#231F20"/>
<path d="M158.405 24.6152C158.102 24.6327 157.803 24.542 157.56 24.3591C156.959 23.8598 157.746 21.888 158.508 20.3324C158.545 20.256 158.611 20.1975 158.691 20.1699C158.772 20.1423 158.86 20.1478 158.936 20.1851C159.013 20.2225 159.071 20.2887 159.099 20.3691C159.126 20.4495 159.121 20.5377 159.084 20.6141C158.367 22.0801 157.855 23.6101 157.989 23.8918C158.232 24.0902 159.007 23.8918 159.442 23.7509C159.481 23.7343 159.522 23.7256 159.564 23.7253C159.606 23.725 159.648 23.7331 159.687 23.7493C159.725 23.7654 159.76 23.7891 159.79 23.8191C159.819 23.8491 159.842 23.8847 159.858 23.9238C159.89 24.0019 159.889 24.0895 159.857 24.1674C159.825 24.2453 159.763 24.3073 159.685 24.3399C159.277 24.5043 158.844 24.5974 158.405 24.6152V24.6152Z" fill="#231F20"/>
<path d="M155.96 20.294C156.158 20.294 156.319 19.8784 156.319 19.3657C156.319 18.853 156.158 18.4375 155.96 18.4375C155.763 18.4375 155.602 18.853 155.602 19.3657C155.602 19.8784 155.763 20.294 155.96 20.294Z" fill="#231F20"/>
<path d="M161.592 20.294C161.79 20.294 161.951 19.8784 161.951 19.3657C161.951 18.853 161.79 18.4375 161.592 18.4375C161.394 18.4375 161.234 18.853 161.234 19.3657C161.234 19.8784 161.394 20.294 161.592 20.294Z" fill="#231F20"/>
<path d="M159.628 26.8174C158.879 26.8206 158.141 26.6334 157.484 26.2732C157.448 26.251 157.417 26.2219 157.393 26.1876C157.368 26.1534 157.351 26.1146 157.341 26.0736C157.332 26.0326 157.33 25.9901 157.337 25.9486C157.344 25.907 157.359 25.8673 157.381 25.8315C157.404 25.7958 157.433 25.7648 157.467 25.7403C157.501 25.7158 157.54 25.6983 157.581 25.6888C157.622 25.6793 157.664 25.678 157.706 25.6849C157.747 25.6918 157.787 25.7068 157.823 25.7291C158.483 26.0876 159.235 26.2402 159.982 26.1671C160.729 26.0941 161.437 25.7988 162.015 25.3194C162.048 25.2933 162.086 25.2743 162.127 25.2633C162.168 25.2524 162.211 25.2499 162.253 25.2559C162.294 25.2618 162.335 25.2762 162.371 25.2981C162.407 25.3201 162.438 25.3491 162.463 25.3834C162.515 25.4505 162.537 25.5354 162.527 25.6194C162.516 25.7034 162.472 25.7796 162.405 25.8315C161.617 26.4641 160.638 26.8115 159.628 26.8174Z" fill="#231F20"/>
<path d="M184.447 70.8554L170.367 87.276C170.367 87.276 171.41 92.1157 170.444 92.5767C169.477 93.0376 164.492 94.6637 163.724 93.3833C163.257 92.4861 163.078 91.4667 163.212 90.4641L161.932 90.368C161.932 90.368 161.439 88.3067 162.437 87.0839C163.436 85.8612 176.965 67.7441 176.965 67.7441" fill="white"/>
<path d="M165.151 94.2027C164.357 94.2027 163.717 94.0299 163.442 93.5625C162.979 92.7087 162.773 91.7396 162.847 90.7714L161.887 90.7073C161.817 90.7011 161.751 90.673 161.698 90.627C161.645 90.581 161.608 90.5195 161.592 90.4513C161.592 90.3616 161.068 88.217 162.168 86.8791C163.154 85.6755 176.549 67.7377 176.684 67.552C176.739 67.49 176.816 67.4509 176.898 67.4426C176.981 67.4343 177.064 67.4573 177.131 67.5072C177.197 67.557 177.243 67.63 177.259 67.7117C177.274 67.7935 177.258 67.8782 177.215 67.949C176.658 68.6916 163.672 86.0788 162.674 87.3016C161.976 88.153 162.104 89.523 162.188 90.0672L163.231 90.1376C163.276 90.1405 163.321 90.1528 163.362 90.1737C163.403 90.1946 163.439 90.2237 163.468 90.2592C163.496 90.2951 163.516 90.3363 163.528 90.3802C163.54 90.4242 163.544 90.4701 163.538 90.5153C163.412 91.4424 163.575 92.3858 164.005 93.2169C164.562 94.1451 169.01 92.8904 170.303 92.2822C170.68 92.1029 170.559 89.7215 170.04 87.3528C170.03 87.3036 170.032 87.2528 170.044 87.204C170.056 87.1553 170.079 87.1099 170.111 87.0711L184.191 70.6505C184.219 70.6177 184.253 70.5908 184.292 70.5713C184.33 70.5518 184.372 70.5401 184.415 70.5368C184.459 70.5335 184.502 70.5388 184.543 70.5522C184.584 70.5657 184.622 70.5871 184.655 70.6153C184.687 70.6435 184.714 70.6778 184.734 70.7164C184.753 70.7549 184.765 70.797 184.768 70.8401C184.772 70.8832 184.766 70.9265 184.753 70.9676C184.739 71.0086 184.718 71.0466 184.69 71.0794L170.712 87.372C171.052 88.9853 171.627 92.3846 170.578 92.8775C170.149 93.076 167.16 94.2027 165.151 94.2027Z" fill="#231F20"/>
<path d="M90.61 102.173C90.1287 101.419 89.3893 100.866 88.53 100.617C87.1805 100.099 85.7653 99.7711 84.3252 99.6442" fill="white"/>
<path d="M179.468 33.6993C179.468 33.6993 194.668 54.9725 194.828 58.9352C194.988 62.8979 174.648 83.6269 174.648 83.6269L166.54 77.3212C166.54 77.3212 180.952 59.5242 180.684 57.7701C180.415 56.016 171.244 43.6285 171.244 43.6285C171.244 43.6285 171.967 35.511 179.468 33.6993Z" fill="#FF7991"/>
<path d="M152.978 56.3233C152.978 56.3233 150.879 41.0678 153.407 30.5817L156.94 30.236C156.94 30.236 155.327 40.9974 156.856 57.4948L152.978 56.3233Z" fill="#231F20"/>
<path d="M156.869 57.8149C156.84 57.8209 156.809 57.8209 156.78 57.8149L152.882 56.6434C152.824 56.6261 152.773 56.5929 152.733 56.5476C152.694 56.5023 152.668 56.4467 152.658 56.3873C152.658 56.2337 150.584 40.9718 153.112 30.524C153.129 30.4604 153.165 30.4035 153.216 30.3611C153.266 30.3187 153.328 30.2929 153.394 30.2872L156.92 29.9415C156.969 29.9361 157.017 29.942 157.063 29.9586C157.108 29.9753 157.15 30.0023 157.183 30.0375C157.215 30.0738 157.239 30.1165 157.254 30.1629C157.268 30.2093 157.272 30.2582 157.266 30.3064C157.266 30.4152 155.679 41.1894 157.189 57.482C157.194 57.5339 157.187 57.5862 157.166 57.6342C157.146 57.6823 157.115 57.7246 157.074 57.7573C157.015 57.8008 156.942 57.8213 156.869 57.8149V57.8149ZM153.266 56.0736L156.511 57.0531C155.231 42.7195 156.319 32.6815 156.581 30.5945L153.682 30.8761C151.416 40.5429 153.036 54.2491 153.266 56.0736V56.0736Z" fill="#231F20"/>
<path d="M171.007 30.9978C168.595 40.2661 167.384 49.8061 167.404 59.3833L171.282 59.0248C171.282 59.0248 171.007 45.1906 175.167 32.2333L171.007 30.9978Z" fill="#231F20"/>
<path d="M167.404 59.7034C167.365 59.7042 167.326 59.6973 167.29 59.683C167.253 59.6687 167.22 59.6474 167.192 59.6202C167.158 59.5911 167.13 59.5548 167.112 59.5139C167.093 59.473 167.083 59.4284 167.084 59.3834C167.075 49.7773 168.285 40.209 170.687 30.9082C170.713 30.8278 170.768 30.7596 170.84 30.7161C170.919 30.6878 171.005 30.6878 171.084 30.7161L175.237 31.9517C175.278 31.9641 175.316 31.9847 175.349 32.0121C175.382 32.0396 175.41 32.0735 175.429 32.1117C175.446 32.15 175.455 32.1914 175.455 32.2333C175.455 32.2752 175.446 32.3166 175.429 32.355C171.34 45.1137 171.557 58.9032 171.589 59.0441C171.59 59.1244 171.561 59.2021 171.508 59.2623C171.454 59.3226 171.381 59.3611 171.301 59.3705L167.423 59.729L167.404 59.7034ZM171.244 31.3947C168.944 40.4299 167.766 49.7142 167.736 59.0377L170.975 58.7368C170.975 56.669 171.084 44.1791 174.77 32.451L171.244 31.3947Z" fill="#231F20"/>
<path d="M170.079 17.0483C170.079 17.2339 156.076 17.3683 152.159 17.4004C152.032 17.3941 151.908 17.3596 151.797 17.2994C151.685 17.2391 151.588 17.1547 151.513 17.0522C151.438 16.9497 151.387 16.8318 151.364 16.7071C151.341 16.5823 151.345 16.4539 151.378 16.3313V16.3313C151.417 16.1532 151.514 15.9932 151.654 15.8772C151.795 15.7611 151.97 15.6955 152.152 15.6911H154.296C154.296 15.6911 153.727 8.54027 161.055 7.58C168.383 6.61973 170.047 12.9639 170.079 17.0483Z" fill="white"/>
<path d="M152.127 17.7332C151.962 17.7317 151.8 17.6936 151.651 17.6216C151.503 17.5496 151.373 17.4457 151.269 17.3171C151.151 17.1711 151.069 16.9998 151.028 16.8166C150.987 16.6334 150.988 16.4433 151.033 16.2608C151.081 16.0047 151.216 15.7731 151.416 15.6052C151.615 15.4373 151.866 15.3432 152.127 15.339H153.932C153.932 13.841 154.393 8.09214 160.972 7.2279C163.57 6.8886 165.688 7.41355 167.282 8.79634C170.021 11.165 170.373 15.3518 170.393 17.0483C170.393 17.1367 170.358 17.2217 170.297 17.2851C170.156 17.4324 170.008 17.5796 152.12 17.7332H152.127ZM152.127 15.9984C152.017 16.0051 151.913 16.0485 151.83 16.1216C151.748 16.1947 151.692 16.2933 151.673 16.4017C151.654 16.4883 151.654 16.5779 151.674 16.6642C151.694 16.7505 151.733 16.8314 151.788 16.901C151.827 16.954 151.878 16.9972 151.937 17.0272C151.996 17.0571 152.061 17.0731 152.127 17.0739V17.0739C161.823 16.9906 168.389 16.8754 169.733 16.773C169.676 15.0253 169.253 11.3699 166.86 9.29568C165.413 8.04733 163.468 7.56719 161.1 7.88728C154.175 8.78994 154.604 15.3646 154.629 15.6399C154.632 15.6855 154.625 15.7311 154.61 15.7741C154.594 15.8171 154.57 15.8565 154.539 15.89C154.508 15.9235 154.471 15.9503 154.429 15.9689C154.387 15.9876 154.342 15.9976 154.297 15.9984H152.127Z" fill="#231F20"/>
<path d="M157.061 15.6655C157.061 15.6655 156.812 11.4723 158.341 8.79634C159.359 6.98463 162.181 6.55571 162.866 7.32393C163.295 7.80406 161.432 8.67471 160.888 10.8385C160.64 12.4356 160.512 14.0491 160.504 15.6655" fill="white"/>
<path d="M157.061 15.9984C156.977 15.9984 156.896 15.9658 156.835 15.9073C156.774 15.8488 156.738 15.769 156.735 15.6847C156.735 15.5118 156.498 11.3635 158.015 8.6427C158.37 8.0898 158.846 7.62459 159.407 7.28199C159.968 6.93939 160.599 6.7283 161.253 6.66454C161.571 6.59631 161.9 6.60181 162.215 6.6806C162.53 6.75939 162.823 6.90939 163.071 7.11907C163.461 7.54799 163.071 8.00892 162.616 8.49546C161.936 9.17338 161.439 10.0125 161.17 10.9345C160.927 12.5064 160.801 14.0941 160.792 15.6847C160.794 15.7286 160.787 15.7724 160.771 15.8133C160.755 15.8542 160.73 15.8913 160.699 15.922C160.667 15.9528 160.63 15.9767 160.589 15.992C160.547 16.0074 160.503 16.0139 160.46 16.0112C160.372 16.0095 160.289 15.9737 160.228 15.9114C160.167 15.8492 160.133 15.7655 160.133 15.6783C160.138 14.0337 160.271 12.3921 160.53 10.7681C160.825 9.7455 161.373 8.81399 162.124 8.06014C162.281 7.89491 162.423 7.71483 162.546 7.52238C162.177 7.30627 161.742 7.2355 161.324 7.32393C160.773 7.37324 160.241 7.54696 159.768 7.83197C159.295 8.11698 158.892 8.50584 158.591 8.96919C157.138 11.5299 157.362 15.6207 157.362 15.6591C157.367 15.7464 157.338 15.8322 157.281 15.8981C157.223 15.964 157.142 16.0046 157.055 16.0112L157.061 15.9984Z" fill="#231F20"/>
<path d="M169.49 15.9856H154.271C154.186 15.9856 154.104 15.9518 154.044 15.8918C153.984 15.8318 153.951 15.7504 153.951 15.6655C153.951 15.5806 153.984 15.4992 154.044 15.4391C154.104 15.3791 154.186 15.3454 154.271 15.3454H169.49C169.575 15.3454 169.656 15.3791 169.716 15.4391C169.776 15.4992 169.81 15.5806 169.81 15.6655C169.81 15.7504 169.776 15.8318 169.716 15.8918C169.656 15.9518 169.575 15.9856 169.49 15.9856Z" fill="#231F20"/>
<path d="M149.919 54.5116C149.844 54.5101 149.773 54.4833 149.716 54.4355C149.659 54.3878 149.62 54.322 149.605 54.2491C149.522 53.7818 147.589 42.7259 148.543 37.0923C148.558 37.0089 148.606 36.9348 148.675 36.8858C148.745 36.8368 148.83 36.8167 148.914 36.8298C148.997 36.8454 149.071 36.8929 149.12 36.9623C149.169 37.0316 149.189 37.1172 149.176 37.2011C148.236 42.7259 150.22 54.0186 150.239 54.1339C150.246 54.1755 150.245 54.2182 150.236 54.2594C150.227 54.3007 150.209 54.3397 150.185 54.3742C150.161 54.4088 150.13 54.4381 150.094 54.4606C150.058 54.483 150.018 54.4982 149.976 54.5052L149.919 54.5116Z" fill="#231F20"/>
<path d="M180.703 58.0902C180.649 58.0913 180.596 58.0783 180.549 58.0525C180.502 58.0266 180.462 57.9889 180.434 57.9429L173.976 47.9177C173.931 47.8464 173.915 47.7598 173.933 47.677C173.951 47.5942 174.001 47.5219 174.072 47.476C174.107 47.4516 174.147 47.4346 174.188 47.4262C174.23 47.4178 174.273 47.4181 174.314 47.4272C174.356 47.4362 174.395 47.4537 174.429 47.4787C174.464 47.5036 174.492 47.5354 174.514 47.572L180.972 57.5972C181.017 57.6686 181.033 57.7551 181.015 57.8379C180.997 57.9208 180.947 57.993 180.876 58.039C180.824 58.0713 180.764 58.089 180.703 58.0902V58.0902Z" fill="#231F20"/>
<path d="M161.727 76.7066C161.445 76.7066 161.157 76.7066 160.876 76.6682C158.571 76.4625 156.437 75.364 154.931 73.6071C153.424 71.8502 152.664 69.5739 152.812 67.264L153.304 59.0825C153.305 59.0379 153.316 58.9941 153.336 58.9543C153.356 58.9144 153.384 58.8795 153.42 58.852C153.453 58.8247 153.492 58.8043 153.534 58.7922C153.576 58.7801 153.62 58.7765 153.663 58.7816L170.687 60.8238C170.768 60.8319 170.842 60.8711 170.895 60.9332C170.947 60.9954 170.974 61.0755 170.968 61.1566L170.616 68.2434C170.5 70.5245 169.513 72.6739 167.859 74.2486C166.205 75.8232 164.01 76.703 161.727 76.7066V76.7066ZM153.919 59.4602L153.458 67.3152C153.398 68.3993 153.553 69.4845 153.912 70.5089C154.272 71.5333 154.83 72.4768 155.554 73.2856C156.278 74.0943 157.154 74.7525 158.133 75.2225C159.111 75.6925 160.173 75.9651 161.256 76.0248C162.34 76.0845 163.425 75.9301 164.449 75.5704C165.473 75.2107 166.417 74.6527 167.225 73.9284C168.034 73.204 168.692 72.3274 169.161 71.3487C169.631 70.37 169.904 69.3083 169.964 68.2242L170.303 61.4383L153.919 59.4602Z" fill="white"/>
<path d="M140.844 132.14L126.527 129.822L125.932 150.609C125.932 150.609 117.202 153.445 117.279 155.02C117.388 157.337 137.292 156.383 137.292 156.383L140.844 132.14Z" fill="white"/>
<path d="M128.773 156.94H127.34C117.055 156.832 116.991 155.602 116.972 155.077C116.972 154.655 117.516 153.067 125.624 150.404L126.22 129.848C126.221 129.801 126.232 129.755 126.253 129.713C126.274 129.671 126.304 129.634 126.341 129.605C126.378 129.576 126.42 129.555 126.465 129.543C126.51 129.53 126.557 129.528 126.604 129.534L140.895 131.852C140.937 131.858 140.978 131.873 141.015 131.895C141.052 131.917 141.084 131.946 141.109 131.98C141.135 132.015 141.154 132.054 141.164 132.096C141.174 132.137 141.176 132.181 141.17 132.223L137.637 156.467C137.627 156.543 137.589 156.613 137.532 156.665C137.475 156.716 137.401 156.746 137.324 156.748C137.279 156.716 133.202 156.94 128.773 156.94ZM126.853 130.238L126.264 150.647C126.263 150.715 126.241 150.781 126.201 150.836C126.161 150.891 126.105 150.932 126.04 150.955C121.957 152.28 117.58 154.22 117.618 155.039C117.618 155.154 117.938 156.172 127.333 156.275C131.602 156.313 135.903 156.147 137.01 156.095L140.46 132.441L126.853 130.238Z" fill="#231F20"/>
<path d="M187.628 121.955L178.207 133.932L193.343 145.737C193.343 145.737 190.527 152.497 191.301 153.419C192.076 154.341 204.332 142.063 204.332 142.063L187.628 121.955Z" fill="white"/>
<path d="M191.423 153.778C191.289 153.773 191.162 153.716 191.071 153.618C190.277 152.696 192.05 148.048 192.959 145.846L178.021 134.195C177.986 134.168 177.958 134.134 177.937 134.096C177.916 134.057 177.903 134.014 177.9 133.971C177.888 133.884 177.911 133.797 177.964 133.727L187.365 121.73C187.396 121.691 187.434 121.66 187.479 121.637C187.523 121.615 187.572 121.603 187.621 121.602C187.719 121.609 187.81 121.653 187.877 121.724L204.607 141.832C204.663 141.893 204.693 141.973 204.693 142.056C204.693 142.139 204.663 142.219 204.607 142.28C201.868 144.982 192.952 153.778 191.423 153.778ZM178.668 133.894L193.548 145.5C193.603 145.545 193.642 145.607 193.661 145.676C193.679 145.745 193.675 145.818 193.65 145.884C192.242 149.265 191.301 152.459 191.512 153.118C192.639 152.798 198.552 147.357 203.89 142.043L187.634 122.499L178.668 133.894Z" fill="#231F20"/>
<path d="M138.834 136.96H138.783L127.167 135.245C127.084 135.23 127.009 135.184 126.959 135.116C126.909 135.048 126.887 134.964 126.898 134.88C126.904 134.838 126.917 134.798 126.938 134.762C126.959 134.726 126.987 134.695 127.021 134.67C127.054 134.645 127.092 134.627 127.133 134.617C127.173 134.607 127.215 134.605 127.257 134.611L138.892 136.32C138.977 136.326 139.056 136.366 139.111 136.43C139.167 136.494 139.195 136.578 139.189 136.663C139.183 136.748 139.144 136.827 139.08 136.882C139.016 136.938 138.932 136.966 138.847 136.96H138.834Z" fill="#D1D3D4"/>
<path d="M138.386 139.483H138.348L127.41 138.023C127.325 138.011 127.248 137.966 127.197 137.898C127.145 137.829 127.123 137.743 127.135 137.658C127.147 137.573 127.192 137.497 127.26 137.445C127.329 137.393 127.415 137.371 127.5 137.383L138.431 138.842C138.516 138.848 138.595 138.888 138.65 138.952C138.706 139.016 138.734 139.1 138.728 139.185C138.722 139.27 138.683 139.349 138.619 139.405C138.555 139.461 138.471 139.489 138.386 139.483V139.483Z" fill="#D1D3D4"/>
<path d="M183.98 136.102C183.908 136.099 183.839 136.075 183.781 136.032C183.715 135.979 183.673 135.903 183.663 135.819C183.654 135.735 183.678 135.65 183.73 135.584L190.399 127.114C190.422 127.075 190.453 127.04 190.49 127.014C190.527 126.987 190.57 126.969 190.615 126.96C190.66 126.951 190.706 126.952 190.751 126.963C190.795 126.974 190.837 126.994 190.873 127.022C190.909 127.05 190.939 127.086 190.96 127.127C190.981 127.167 190.993 127.212 190.995 127.258C190.998 127.304 190.99 127.349 190.973 127.392C190.957 127.435 190.931 127.473 190.898 127.505L184.236 135.981C184.204 136.018 184.165 136.049 184.121 136.07C184.077 136.091 184.028 136.102 183.98 136.102V136.102Z" fill="#D1D3D4"/>
<path d="M186.149 136.96C186.074 136.96 186.001 136.933 185.944 136.883C185.88 136.828 185.84 136.749 185.833 136.664C185.826 136.579 185.852 136.495 185.906 136.429L192.018 129.15C192.075 129.096 192.15 129.065 192.229 129.063C192.307 129.06 192.384 129.087 192.444 129.138C192.504 129.188 192.544 129.259 192.555 129.337C192.566 129.415 192.548 129.494 192.504 129.56L186.392 136.845C186.362 136.88 186.325 136.908 186.283 136.928C186.241 136.948 186.195 136.959 186.149 136.96V136.96Z" fill="#D1D3D4"/>
</svg>
