<svg width="121" height="151" viewBox="0 0 121 151" fill="none" xmlns="http://www.w3.org/2000/svg">
<path d="M85.0804 14.9598C85.0804 14.9598 86.066 10.9458 85.3172 8.01381L78.2068 8.53235C78.2068 8.53235 78.2068 15.1454 80.2164 16.1057C82.226 17.0659 85.6052 14.6909 85.6052 14.6909" fill="white"/>
<path d="M81.3109 16.6626C80.8823 16.6717 80.4575 16.5819 80.0693 16.4002C77.9637 15.3823 77.8804 9.23016 77.8804 8.53236C77.8786 8.44959 77.909 8.36935 77.9651 8.30847C78.0211 8.24759 78.0986 8.21082 78.1812 8.20587L85.298 7.68732C85.3755 7.67941 85.4531 7.70059 85.5158 7.74673C85.5785 7.79288 85.6218 7.86069 85.6372 7.93699C86.2196 10.216 85.7908 13.0584 85.5412 14.3708C85.6151 14.3577 85.6912 14.37 85.7573 14.4056C85.8233 14.4412 85.8753 14.4981 85.905 14.5671C85.9346 14.636 85.9401 14.7129 85.9205 14.7854C85.901 14.8578 85.8575 14.9215 85.7972 14.9662C85.6756 15.0494 83.3269 16.6626 81.3109 16.6626ZM78.5396 8.82044C78.5844 10.7922 78.962 15.1134 80.3572 15.7856C81.6372 16.4258 83.7301 15.4079 84.7733 14.8061C84.8821 14.3132 85.6116 10.965 85.0612 8.34671L78.5396 8.82044Z" fill="#231F20"/>
<path d="M65.3109 54.4716C62.7509 58.0054 53.5029 77.2108 52.8821 78.1071C52.0245 79.349 49.3045 79.7203 48.1845 80.559C46.8533 81.5577 45.9317 83.5422 45.2789 85.0402C45.0048 85.5652 44.8682 86.1511 44.8821 86.7431C44.8905 87.0436 44.999 87.3328 45.1903 87.5647C45.3815 87.7966 45.6447 87.958 45.9381 88.0235C46.2096 88.0184 46.4774 87.9591 46.7258 87.8492C46.9741 87.7393 47.1981 87.5809 47.3845 87.3833L50.0277 85.1811C50.2901 85.7828 49.9637 86.4614 49.7077 87.0504C49.4517 87.6394 49.2981 88.446 49.7845 88.8749C49.9691 89.0239 50.1899 89.1211 50.4245 89.1566C51.9285 89.4639 53.4709 88.6124 54.4437 87.4345C55.4165 86.2566 56.6965 85.6932 57.2341 84.2336C57.8741 82.5563 60.7285 79.7908 61.5541 78.1967C62.1301 77.0892 60.0565 76.3338 60.8309 75.3351L65.9509 68.7605L72.4661 60.3549" fill="white"/>
<path d="M51.0324 89.4831C50.8175 89.4826 50.6031 89.4612 50.3924 89.4191C50.0984 89.3735 49.8221 89.2497 49.5924 89.0606C49.0868 88.606 49.0228 87.7802 49.4324 86.8583L49.4772 86.7431C49.6336 86.4294 49.7456 86.0954 49.81 85.7508L47.5956 87.5625C47.3787 87.7944 47.1158 87.9784 46.8238 88.103C46.5318 88.2275 46.217 88.2898 45.8996 88.286C45.5368 88.2132 45.2082 88.0224 44.9651 87.7433C44.722 87.4642 44.578 87.1126 44.5556 86.7431C44.5313 86.0959 44.6769 85.4536 44.978 84.8802C45.5156 83.6574 46.514 81.3784 47.986 80.2773C48.6102 79.8831 49.2838 79.5731 49.9892 79.3554C51.058 78.9649 52.1588 78.5552 52.6132 77.9022C52.7924 77.6398 53.9316 75.3415 55.25 72.7296C58.45 66.3278 63.2564 56.7251 65.0484 54.2604C65.071 54.2185 65.1023 54.182 65.1403 54.1533C65.1782 54.1245 65.2219 54.1043 65.2683 54.0938C65.3147 54.0834 65.3629 54.0831 65.4094 54.0928C65.456 54.1026 65.4999 54.1222 65.5383 54.1504C65.5766 54.1786 65.6085 54.2147 65.6317 54.2562C65.6549 54.2978 65.669 54.3438 65.6729 54.3912C65.6768 54.4387 65.6705 54.4864 65.6544 54.5312C65.6383 54.576 65.6128 54.6168 65.5796 54.6509C63.826 57.0452 58.8276 67.0512 55.8388 73.0241C54.2132 76.2762 53.3556 77.9919 53.1572 78.2799C52.5876 79.1058 51.378 79.5603 50.2132 79.9764C49.5704 80.1755 48.9554 80.4552 48.3828 80.8086C47.0452 81.8073 46.0916 84.0095 45.5796 85.1427C45.326 85.6142 45.2002 86.1439 45.2148 86.6791C45.2226 86.8988 45.3009 87.1101 45.438 87.2819C45.5752 87.4537 45.7639 87.5768 45.9764 87.633C46.4342 87.6007 46.8624 87.3946 47.1732 87.0568L49.8164 84.861C49.8552 84.8269 49.9016 84.8027 49.9517 84.7904C50.0019 84.7781 50.0543 84.7782 50.1044 84.7906C50.1544 84.8023 50.2009 84.8258 50.2398 84.8592C50.2788 84.8927 50.3092 84.935 50.3284 84.9826C50.426 85.319 50.4525 85.672 50.4063 86.0192C50.36 86.3664 50.2419 86.7001 50.0596 86.9992L50.0148 87.1144C49.906 87.3577 49.5924 88.1963 50.0148 88.5612C50.1578 88.6724 50.328 88.7432 50.5076 88.7661C51.2116 88.8466 51.9244 88.7399 52.5739 88.4566C53.2234 88.1733 53.7867 87.7236 54.2068 87.1528C54.5677 86.7294 54.9661 86.3394 55.3972 85.9877C56.0696 85.4926 56.6012 84.8306 56.9396 84.0672C57.3108 83.0813 58.3668 81.7945 59.3844 80.5526C60.0978 79.7567 60.7403 78.8998 61.3044 77.9919C61.4708 77.6718 61.3044 77.4029 60.914 76.8971C60.5236 76.3914 60.0564 75.796 60.6068 75.0854L72.2228 60.1052C72.2492 60.0703 72.2823 60.0409 72.3201 60.0187C72.3579 59.9966 72.3997 59.9821 72.4431 59.9762C72.4865 59.9702 72.5307 59.9729 72.573 59.9841C72.6154 59.9952 72.6552 60.0147 72.69 60.0412C72.7582 60.0965 72.8023 60.1761 72.813 60.2633C72.8238 60.3504 72.8003 60.4383 72.7476 60.5086L61.0868 75.5144C60.882 75.7768 60.9716 75.9753 61.394 76.5194C61.8164 77.0636 62.226 77.5886 61.842 78.3248C61.2655 79.2734 60.6058 80.1689 59.8708 81.0007C58.949 82.0003 58.1635 83.1175 57.5348 84.3232C57.1571 85.1863 56.5617 85.9364 55.8068 86.4998C55.4063 86.8243 55.0319 87.1796 54.6868 87.5625C54.2521 88.1273 53.7005 88.5914 53.0697 88.9229C52.4389 89.2544 51.7439 89.4455 51.0324 89.4831Z" fill="#231F20"/>
<path d="M61.2404 36.4698C61.2404 36.4698 62.9748 52.5319 61.4708 56.2386C59.794 60.3869 52.626 75.9177 52.626 75.9177L60.5812 80.8727C60.5812 80.8727 68.1908 68.9973 68.978 64.1128C69.7652 59.2282 61.2404 36.4698 61.2404 36.4698Z" fill="#FF7991"/>
<path d="M28.8821 110.244L28.4469 131.095C28.4249 132.08 28.0622 133.028 27.4204 133.776C26.7786 134.524 25.8975 135.027 24.9269 135.198L12.7669 137.33C11.9037 137.481 11.0151 137.361 10.2225 136.987C9.42983 136.614 8.77176 136.005 8.33811 135.243L2.78931 125.519L5.98931 124.027L10.6933 132.58C10.9576 133.063 11.3663 133.451 11.8621 133.689C12.3579 133.928 12.916 134.006 13.4581 133.912L22.7573 132.317C23.3641 132.213 23.9154 131.9 24.3162 131.433C24.717 130.965 24.942 130.373 24.9525 129.757L25.4069 113.349L28.8821 110.244Z" fill="white"/>
<path d="M96.2164 68.8437L95.6467 107.895L111.999 127.388L108.447 135.448C108.447 135.448 83.0259 120.794 78.7059 114.764C74.3859 108.733 73.7395 94.1948 73.7395 94.1948L59.5123 108.477L54.0467 136.043L43.1667 135.448C43.1667 135.448 44.5492 116.134 44.5492 107.69C44.5492 99.2458 66.0532 70.2009 66.0532 70.2009L96.2164 68.8437Z" fill="#231F20"/>
<path d="M54.0467 136.363L43.1667 135.768C43.0829 135.761 43.005 135.722 42.9492 135.659C42.9205 135.628 42.8984 135.592 42.8841 135.552C42.8698 135.513 42.8636 135.471 42.8659 135.429C42.8659 135.237 44.2484 116.031 44.2484 107.69C44.2484 99.233 64.9332 71.1996 65.8164 70.0088C65.8439 69.9712 65.8794 69.9402 65.9203 69.9181C65.9613 69.8959 66.0067 69.8832 66.0532 69.8808L96.1908 68.5236C96.2344 68.5204 96.2781 68.5268 96.319 68.5423C96.3599 68.5578 96.397 68.582 96.4276 68.6132C96.4587 68.6442 96.4832 68.6812 96.4997 68.7219C96.5162 68.7626 96.5243 68.8062 96.5235 68.8501L95.954 107.773L112.229 127.17C112.27 127.215 112.297 127.27 112.306 127.329C112.315 127.388 112.306 127.449 112.28 127.503L108.735 135.576C108.718 135.618 108.693 135.655 108.659 135.685C108.626 135.715 108.586 135.737 108.543 135.749C108.502 135.766 108.459 135.775 108.415 135.775C108.371 135.775 108.327 135.766 108.287 135.749C107.244 135.147 82.7635 121.025 78.4435 114.975C74.6035 109.63 73.6499 97.9911 73.4579 94.9502L59.8067 108.631L54.3604 136.107C54.3468 136.18 54.3078 136.246 54.2504 136.293C54.193 136.34 54.1208 136.365 54.0467 136.363ZM43.5316 135.147L53.7716 135.71L59.1859 108.413C59.1966 108.351 59.2256 108.293 59.2692 108.247L73.5092 93.9643C73.554 93.9207 73.6103 93.8909 73.6716 93.8784C73.7329 93.8659 73.7965 93.8713 73.8548 93.8939C73.9117 93.9164 73.9608 93.955 73.9961 94.0051C74.0313 94.0551 74.0512 94.1144 74.0532 94.1756C74.0532 94.3164 74.7443 108.682 78.9619 114.572C82.9427 120.122 105.394 133.297 108.3 134.987L111.628 127.42L95.4035 108.087C95.3542 108.027 95.3271 107.953 95.3268 107.875L95.8964 69.1702L66.2516 70.5082C64.7348 72.5695 44.9012 99.7068 44.9012 107.683C44.9012 115.455 43.7171 132.58 43.5379 135.147H43.5316Z" fill="#231F20"/>
<path d="M95.4676 27.6993C86.8596 23.3589 64.7156 22.1746 61.4708 28.7812C58.9108 34.0307 66.6996 61.6929 66.6996 61.6929L94.0916 67.3521C94.0916 67.3521 99.762 29.8631 95.4676 27.6993Z" fill="#FF7991"/>
<path d="M63.2883 75.3095L65.9251 48.1787L96.9715 50.2337L96.1587 72.7104L63.2883 75.3095Z" fill="#231F20"/>
<path d="M63.2884 75.6296C63.2464 75.6301 63.2048 75.6218 63.1663 75.6053C63.1277 75.5888 63.093 75.5643 63.0644 75.5336C63.0313 75.5003 63.006 75.46 62.9905 75.4157C62.975 75.3714 62.9696 75.3242 62.9748 75.2775L65.6052 48.1467C65.6084 48.1054 65.6198 48.0652 65.6386 48.0284C65.6574 47.9916 65.6834 47.9588 65.7149 47.932C65.7464 47.9053 65.7829 47.885 65.8223 47.8724C65.8617 47.8598 65.9032 47.8551 65.9444 47.8586L96.9908 49.9136C97.0734 49.9185 97.1509 49.9553 97.207 50.0162C97.2631 50.077 97.2934 50.1573 97.2916 50.2401L96.4788 72.7232C96.4746 72.8012 96.4426 72.875 96.3886 72.9314C96.3345 72.9878 96.2621 73.0229 96.1844 73.0305L63.314 75.6296H63.2884ZM66.2068 48.5116L63.6468 74.9574L95.8516 72.3967L96.6452 50.5089L66.2068 48.5116Z" fill="#231F20"/>
<path d="M75.3971 23.3781L75.9859 29.1397C75.9859 29.1397 77.3491 32.219 80.9203 30.6762C81.9457 30.2325 82.8279 29.5128 83.4686 28.5973C84.1093 27.6818 84.4833 26.6063 84.5491 25.4907L83.4099 15.1262C83.4099 15.1262 80.3955 14.1275 80.1779 7.9882C80.1779 7.9882 76.5939 7.9882 70.9363 8.25068C70.9363 8.25068 70.1555 17.7958 71.1027 20.6061C72.0499 23.4165 75.3971 23.3781 75.3971 23.3781Z" fill="white"/>
<path d="M79.0388 31.4636C78.336 31.4456 77.6515 31.2348 77.0602 30.8544C76.4688 30.474 75.9932 29.9384 75.6853 29.3062C75.6823 29.2721 75.6823 29.2378 75.6853 29.2038L75.122 23.6982C74.2324 23.6342 71.6469 23.2245 70.8149 20.747C69.8613 17.9046 70.5973 8.65399 70.6293 8.25708C70.637 8.17662 70.6737 8.10171 70.7326 8.04634C70.7915 7.99098 70.8685 7.95894 70.9493 7.9562C76.5493 7.71293 80.1652 7.69373 80.2036 7.69373C80.2897 7.69366 80.3725 7.72697 80.4346 7.78666C80.4966 7.84634 80.5332 7.92776 80.5365 8.01382C80.7413 13.8523 83.5125 14.8381 83.5445 14.8445C83.6044 14.8657 83.6573 14.9034 83.6969 14.9532C83.7365 15.003 83.7613 15.063 83.7685 15.1262L84.882 25.4651C84.8145 26.6517 84.4201 27.7965 83.7424 28.7727C83.0646 29.7489 82.13 30.5185 81.042 30.9963C80.4128 31.286 79.7313 31.445 79.0388 31.4636V31.4636ZM76.3125 29.0757C76.4917 29.4406 77.7589 31.7069 80.7925 30.4009C81.7621 29.985 82.5968 29.3071 83.2027 28.4432C83.8087 27.5793 84.1619 26.5635 84.2228 25.5099L83.1028 15.3823C82.3988 15.0366 80.1332 13.5322 79.8644 8.34031C78.8852 8.34031 75.73 8.39792 71.2436 8.58998C71.122 10.2032 70.6037 18.0774 71.4165 20.5229C72.2293 22.9684 75.2565 23.0452 75.3909 23.0388C75.4742 23.0397 75.5544 23.0706 75.6167 23.1259C75.679 23.1812 75.7193 23.2571 75.7301 23.3397L76.3125 29.0757Z" fill="#231F20"/>
<path d="M82.3027 15.3439C82.3415 14.8111 82.5527 14.3055 82.9043 13.9035C83.7747 12.9112 85.5987 12.2198 86.4243 13.609C87.7427 15.8304 85.3747 18.692 82.9747 18.0902" fill="white"/>
<path d="M83.6341 18.4999C83.3857 18.4995 83.1383 18.4673 82.8981 18.4039C82.8559 18.3942 82.816 18.3761 82.7809 18.3508C82.7457 18.3254 82.716 18.2934 82.6934 18.2564C82.6707 18.2195 82.6557 18.1784 82.6491 18.1356C82.6425 18.0928 82.6444 18.0491 82.6549 18.007C82.6654 17.9645 82.6841 17.9246 82.7101 17.8893C82.736 17.8541 82.7686 17.8244 82.8061 17.8018C82.8435 17.7792 82.8851 17.7642 82.9283 17.7577C82.9715 17.7511 83.0156 17.7532 83.0581 17.7637C83.5903 17.8744 84.1434 17.8253 84.6478 17.6225C85.1523 17.4198 85.5856 17.0725 85.8933 16.6242C86.2194 16.2323 86.418 15.75 86.4626 15.2421C86.5072 14.7341 86.3957 14.2246 86.1429 13.7818C86.0505 13.6049 85.9155 13.4538 85.7502 13.342C85.5848 13.2303 85.3943 13.1614 85.1957 13.1416C84.8065 13.1463 84.4229 13.2344 84.0707 13.4001C83.7185 13.5657 83.4059 13.8051 83.1541 14.1019C82.849 14.4504 82.6648 14.8884 82.6293 15.3503C82.6269 15.3937 82.6158 15.4363 82.5967 15.4754C82.5776 15.5145 82.5508 15.5495 82.518 15.5781C82.4852 15.6067 82.447 15.6285 82.4057 15.6421C82.3643 15.6558 82.3207 15.661 82.2773 15.6575C82.1901 15.651 82.109 15.6104 82.0515 15.5445C81.9941 15.4786 81.9648 15.3927 81.9701 15.3054C82.0166 14.6998 82.2567 14.1252 82.6549 13.6666C82.974 13.2887 83.3735 12.9868 83.8241 12.783C84.2748 12.5792 84.7652 12.4786 85.2597 12.4887C85.5579 12.5172 85.8444 12.6193 86.0934 12.7857C86.3425 12.9522 86.5464 13.1779 86.6869 13.4425C87.0029 13.9988 87.145 14.6371 87.0948 15.275C87.0446 15.9129 86.8044 16.5211 86.4053 17.0211C86.0887 17.4647 85.6738 17.829 85.193 18.0855C84.7123 18.3421 84.1787 18.4839 83.6341 18.4999V18.4999Z" fill="#231F20"/>
<path d="M75.6788 26.1501C76.9131 25.815 78.0159 25.1115 78.8404 24.1335C79.1834 23.7685 79.4233 23.319 79.5358 22.8309C79.6482 22.3427 79.6291 21.8335 79.4804 21.3552C78.9846 21.9718 78.3599 22.4725 77.65 22.822C76.9402 23.1714 76.1625 23.3613 75.3716 23.3781L75.6788 26.1501Z" fill="#231F20"/>
<path d="M75.6788 26.4702C75.6114 26.4713 75.5457 26.4486 75.4933 26.4062C75.4573 26.38 75.4272 26.3465 75.4051 26.3079C75.3831 26.2693 75.3695 26.2264 75.3652 26.1821L75.0836 23.4101C75.0791 23.3649 75.0842 23.3193 75.0986 23.2762C75.1131 23.2332 75.1365 23.1937 75.1674 23.1604C75.1983 23.1271 75.2359 23.1007 75.2777 23.0831C75.3195 23.0654 75.3647 23.0569 75.4101 23.058H75.5252C76.2468 23.0165 76.9517 22.8241 77.5943 22.4933C78.237 22.1625 78.8032 21.7007 79.2565 21.1375C79.2897 21.0922 79.3347 21.057 79.3867 21.0355C79.4386 21.0141 79.4954 21.0073 79.5509 21.0159C79.6078 21.0244 79.6615 21.0478 79.7064 21.0838C79.7514 21.1198 79.786 21.167 79.8068 21.2207C79.9747 21.7551 79.9956 22.3249 79.8672 22.8701C79.7388 23.4154 79.4659 23.9159 79.0772 24.3192C78.2087 25.3502 77.0449 26.0898 75.7428 26.4382L75.6788 26.4702ZM75.7493 23.6918L75.9604 25.7404C76.9797 25.3651 77.8886 24.74 78.6036 23.9223C78.841 23.673 79.0257 23.3784 79.1467 23.0561C79.2676 22.7339 79.3224 22.3905 79.3076 22.0465C78.3608 23.0093 77.0958 23.5941 75.7493 23.6918V23.6918Z" fill="#231F20"/>
<path d="M74.4051 18.6152C74.1021 18.6327 73.8027 18.542 73.5603 18.3591C72.9587 17.8598 73.7459 15.888 74.5075 14.3324C74.5449 14.256 74.611 14.1975 74.6914 14.1699C74.7719 14.1423 74.86 14.1478 74.9363 14.1851C75.0127 14.2225 75.0711 14.2887 75.0987 14.3691C75.1263 14.4495 75.1209 14.5377 75.0835 14.6141C74.3667 16.0801 73.8547 17.6101 73.9891 17.8918C74.2323 18.0902 75.0067 17.8918 75.4419 17.7509C75.4805 17.7343 75.522 17.7256 75.5641 17.7253C75.6061 17.725 75.6477 17.7331 75.6865 17.7493C75.7253 17.7654 75.7605 17.7891 75.7899 17.8191C75.8194 17.8491 75.8425 17.8847 75.8579 17.9238C75.8898 18.0019 75.8895 18.0895 75.8571 18.1674C75.8248 18.2453 75.763 18.3073 75.6851 18.3399C75.2774 18.5043 74.8444 18.5974 74.4051 18.6152V18.6152Z" fill="#231F20"/>
<path d="M71.9604 14.294C72.1584 14.294 72.3188 13.8784 72.3188 13.3657C72.3188 12.853 72.1584 12.4375 71.9604 12.4375C71.7625 12.4375 71.6021 12.853 71.6021 13.3657C71.6021 13.8784 71.7625 14.294 71.9604 14.294Z" fill="#231F20"/>
<path d="M77.5923 14.294C77.7902 14.294 77.9507 13.8784 77.9507 13.3657C77.9507 12.853 77.7902 12.4375 77.5923 12.4375C77.3943 12.4375 77.2339 12.853 77.2339 13.3657C77.2339 13.8784 77.3943 14.294 77.5923 14.294Z" fill="#231F20"/>
<path d="M75.6277 20.8174C74.8785 20.8206 74.1408 20.6334 73.4837 20.2732C73.448 20.251 73.417 20.2219 73.3925 20.1876C73.3681 20.1534 73.3506 20.1146 73.3411 20.0736C73.3315 20.0326 73.3302 19.9901 73.3371 19.9486C73.344 19.907 73.359 19.8673 73.3813 19.8315C73.4036 19.7958 73.4327 19.7648 73.4669 19.7403C73.5012 19.7158 73.5399 19.6983 73.5809 19.6888C73.6219 19.6793 73.6644 19.678 73.7059 19.6849C73.7474 19.6918 73.7872 19.7068 73.8229 19.7291C74.4826 20.0876 75.2345 20.2402 75.9817 20.1671C76.7289 20.0941 77.4371 19.7988 78.0149 19.3194C78.0482 19.2933 78.0864 19.2743 78.1272 19.2633C78.1681 19.2524 78.2107 19.2499 78.2526 19.2559C78.2944 19.2618 78.3346 19.2762 78.3708 19.2981C78.4069 19.3201 78.4382 19.3491 78.4629 19.3834C78.5145 19.4505 78.5374 19.5354 78.5266 19.6194C78.5158 19.7034 78.4722 19.7796 78.4053 19.8315C77.6171 20.4641 76.6382 20.8115 75.6277 20.8174Z" fill="#231F20"/>
<path d="M100.447 64.8554L86.3669 81.276C86.3669 81.276 87.4101 86.1157 86.4437 86.5767C85.4773 87.0376 80.4917 88.6637 79.7237 87.3833C79.2569 86.4861 79.0781 85.4667 79.2117 84.4641L77.9317 84.368C77.9317 84.368 77.4389 82.3067 78.4373 81.0839C79.4357 79.8612 92.9653 61.7441 92.9653 61.7441" fill="white"/>
<path d="M81.1507 88.2027C80.3571 88.2027 79.7171 88.0299 79.4419 87.5625C78.9794 86.7087 78.7727 85.7396 78.8467 84.7714L77.8867 84.7073C77.8169 84.7011 77.7509 84.673 77.6981 84.627C77.6452 84.581 77.6082 84.5195 77.5923 84.4513C77.5923 84.3616 77.0675 82.217 78.1683 80.8791C79.1539 79.6755 92.5491 61.7377 92.6835 61.552C92.739 61.49 92.8156 61.4509 92.8984 61.4426C92.9812 61.4343 93.0642 61.4573 93.1308 61.5072C93.1975 61.557 93.2431 61.63 93.2586 61.7117C93.2741 61.7935 93.2585 61.8782 93.2147 61.949C92.6579 62.6916 79.6723 80.0788 78.6739 81.3016C77.9763 82.153 78.1043 83.523 78.1875 84.0672L79.2307 84.1376C79.2764 84.1405 79.321 84.1528 79.3618 84.1737C79.4025 84.1946 79.4385 84.2237 79.4675 84.2592C79.4955 84.2951 79.5162 84.3363 79.5283 84.3802C79.5404 84.4242 79.5436 84.4701 79.5379 84.5153C79.4124 85.4424 79.5755 86.3858 80.0051 87.2169C80.5619 88.1451 85.0099 86.8904 86.3027 86.2822C86.6803 86.1029 86.5587 83.7215 86.0403 81.3528C86.0305 81.3036 86.0317 81.2528 86.0439 81.204C86.056 81.1553 86.0789 81.1099 86.1107 81.0711L100.191 64.6505C100.219 64.6177 100.253 64.5908 100.292 64.5713C100.33 64.5518 100.372 64.5401 100.415 64.5368C100.459 64.5335 100.502 64.5388 100.543 64.5522C100.584 64.5657 100.622 64.5871 100.655 64.6153C100.687 64.6435 100.714 64.6778 100.734 64.7164C100.753 64.7549 100.765 64.797 100.768 64.8401C100.772 64.8832 100.766 64.9265 100.753 64.9676C100.739 65.0086 100.718 65.0466 100.69 65.0794L86.7123 81.372C87.0515 82.9853 87.6275 86.3846 86.5779 86.8775C86.1491 87.076 83.1603 88.2027 81.1507 88.2027Z" fill="#231F20"/>
<path d="M6.61 96.1729C6.12871 95.4188 5.3893 94.8658 4.53 94.6173C3.18055 94.0987 1.76526 93.7711 0.325195 93.6442" fill="white"/>
<path d="M95.4676 27.6993C95.4676 27.6993 110.668 48.9725 110.828 52.9352C110.988 56.8979 90.6484 77.6269 90.6484 77.6269L82.5396 71.3212C82.5396 71.3212 96.9524 53.5242 96.6836 51.7701C96.4148 50.016 87.2436 37.6285 87.2436 37.6285C87.2436 37.6285 87.9668 29.511 95.4676 27.6993Z" fill="#FF7991"/>
<path d="M68.978 50.3233C68.978 50.3233 66.8788 35.0678 69.4068 24.5817L72.9396 24.236C72.9396 24.236 71.3268 34.9974 72.8564 51.4948L68.978 50.3233Z" fill="#231F20"/>
<path d="M72.8693 51.8149C72.8397 51.8209 72.8092 51.8209 72.7797 51.8149L68.8821 50.6434C68.8244 50.6261 68.7729 50.5929 68.7332 50.5476C68.6936 50.5023 68.6675 50.4467 68.6581 50.3873C68.6581 50.2337 66.5845 34.9718 69.1125 24.524C69.1293 24.4604 69.1654 24.4035 69.2158 24.3611C69.2662 24.3187 69.3285 24.2929 69.3941 24.2872L72.9205 23.9415C72.9686 23.9361 73.0174 23.942 73.0629 23.9586C73.1085 23.9753 73.1495 24.0023 73.1829 24.0375C73.2152 24.0738 73.2393 24.1165 73.2537 24.1629C73.268 24.2093 73.2722 24.2582 73.2661 24.3064C73.2661 24.4152 71.6789 35.1894 73.1893 51.482C73.1944 51.5339 73.1866 51.5862 73.1665 51.6342C73.1464 51.6823 73.1146 51.7246 73.0741 51.7573C73.0151 51.8008 72.9423 51.8213 72.8693 51.8149V51.8149ZM69.2661 50.0736L72.5109 51.0531C71.2309 36.7195 72.3189 26.6815 72.5813 24.5945L69.6821 24.8761C67.4165 34.5429 69.0357 48.2491 69.2661 50.0736V50.0736Z" fill="#231F20"/>
<path d="M87.0068 24.9978C84.5946 34.2661 83.3836 43.8061 83.4036 53.3833L87.282 53.0248C87.282 53.0248 87.0068 39.1906 91.1668 26.2333L87.0068 24.9978Z" fill="#231F20"/>
<path d="M83.4035 53.7034C83.3646 53.7042 83.3259 53.6973 83.2896 53.683C83.2533 53.6687 83.2203 53.6474 83.1924 53.6202C83.158 53.5911 83.1304 53.5548 83.1116 53.5139C83.0928 53.473 83.0832 53.4284 83.0835 53.3834C83.0746 43.7773 84.2854 34.209 86.6867 24.9082C86.7132 24.8278 86.7677 24.7596 86.8403 24.7161C86.9189 24.6878 87.005 24.6878 87.0835 24.7161L91.2371 25.9517C91.2782 25.9641 91.3164 25.9847 91.3494 26.0121C91.3824 26.0396 91.4095 26.0735 91.4292 26.1117C91.4461 26.15 91.4548 26.1914 91.4548 26.2333C91.4548 26.2752 91.4461 26.3166 91.4292 26.355C87.3396 39.1137 87.5572 52.9032 87.5892 53.0441C87.5897 53.1244 87.5606 53.2021 87.5075 53.2623C87.4544 53.3226 87.3809 53.3611 87.3011 53.3705L83.4227 53.729L83.4035 53.7034ZM87.2435 25.3947C84.9437 34.4299 83.7658 43.7142 83.7364 53.0377L86.9748 52.7368C86.9748 50.669 87.0836 38.1791 90.77 26.451L87.2435 25.3947Z" fill="#231F20"/>
<path d="M86.0787 11.0483C86.0787 11.2339 72.0755 11.3683 68.1587 11.4004C68.032 11.3941 67.9083 11.3596 67.7966 11.2994C67.6849 11.2391 67.5881 11.1547 67.5132 11.0522C67.4384 10.9497 67.3874 10.8318 67.364 10.7071C67.3406 10.5823 67.3453 10.4539 67.3779 10.3313V10.3313C67.4166 10.1532 67.514 9.99325 67.6544 9.87716C67.7948 9.76106 67.9702 9.69553 68.1523 9.69107H70.2963C70.2963 9.69107 69.7267 2.54027 77.0547 1.58C84.3827 0.619726 86.0467 6.96391 86.0787 11.0483Z" fill="white"/>
<path d="M68.1269 11.7332C67.9621 11.7317 67.7996 11.6936 67.6513 11.6216C67.503 11.5496 67.3726 11.4457 67.2693 11.3171C67.1514 11.1711 67.0687 10.9998 67.0277 10.8166C66.9866 10.6334 66.9883 10.4433 67.0325 10.2608C67.0811 10.0047 67.2164 9.77313 67.4158 9.60521C67.6151 9.43728 67.8663 9.34325 68.1269 9.33898H69.9317C69.9317 7.84095 70.3925 2.09214 76.9717 1.2279C79.5701 0.888602 81.6885 1.41355 83.2821 2.79634C86.0213 5.165 86.3733 9.35178 86.3925 11.0483C86.3926 11.1367 86.3582 11.2217 86.2965 11.2851C86.1557 11.4324 86.0085 11.5796 68.1205 11.7332H68.1269ZM68.1269 9.99836C68.017 10.0051 67.9125 10.0485 67.8302 10.1216C67.7478 10.1947 67.6923 10.2933 67.6725 10.4017C67.6538 10.4883 67.6544 10.5779 67.6743 10.6642C67.6942 10.7505 67.7329 10.8314 67.7877 10.901C67.8271 10.954 67.8782 10.9972 67.9371 11.0272C67.9959 11.0571 68.0609 11.0731 68.1269 11.0739V11.0739C77.8229 10.9906 84.3893 10.8754 85.7333 10.773C85.6757 9.02529 85.2533 5.36986 82.8597 3.29568C81.4133 2.04733 79.4677 1.56719 77.0997 1.88728C70.1749 2.78994 70.6037 9.36458 70.6293 9.63986C70.6319 9.68547 70.6253 9.73114 70.6098 9.77412C70.5943 9.8171 70.5703 9.85651 70.5392 9.88999C70.5081 9.92347 70.4706 9.95032 70.4289 9.96894C70.3872 9.98757 70.3422 9.99757 70.2965 9.99836H68.1269Z" fill="#231F20"/>
<path d="M73.0613 9.66547C73.0613 9.66547 72.8117 5.47229 74.3413 2.79634C75.3589 0.984633 78.1813 0.555713 78.8661 1.32393C79.2949 1.80406 77.4325 2.67471 76.8885 4.83851C76.6401 6.43564 76.5117 8.04915 76.5045 9.66547" fill="white"/>
<path d="M73.0612 9.99836C72.9768 9.99843 72.8957 9.96579 72.8348 9.90731C72.774 9.84882 72.7382 9.76903 72.7348 9.68467C72.7348 9.51183 72.498 5.36346 74.0148 2.6427C74.3703 2.0898 74.8463 1.62459 75.4071 1.28199C75.968 0.939394 76.5992 0.728298 77.2532 0.664544C77.5708 0.596313 77.8997 0.601806 78.2148 0.680601C78.5299 0.759395 78.8228 0.909393 79.0708 1.11907C79.4612 1.54799 79.0708 2.00892 78.6164 2.49546C77.9363 3.17338 77.4387 4.01246 77.17 4.93454C76.9272 6.50644 76.801 8.09415 76.7924 9.68467C76.7943 9.7286 76.7869 9.77243 76.7708 9.81332C76.7547 9.85422 76.7301 9.89125 76.6987 9.92204C76.6673 9.95282 76.6298 9.97667 76.5887 9.99202C76.5475 10.0074 76.5035 10.0139 76.4596 10.0112C76.3725 10.0095 76.2895 9.97368 76.2284 9.91143C76.1674 9.84918 76.1332 9.76546 76.1332 9.67827C76.1384 8.03375 76.271 6.39209 76.53 4.76809C76.8245 3.7455 77.3727 2.81399 78.1236 2.06014C78.2814 1.89491 78.4229 1.71483 78.546 1.52238C78.1775 1.30627 77.7416 1.2355 77.3236 1.32393C76.7733 1.37324 76.2414 1.54696 75.7679 1.83197C75.2945 2.11698 74.892 2.50584 74.5908 2.96919C73.138 5.52991 73.362 9.62066 73.362 9.65907C73.3673 9.74636 73.3381 9.83222 73.2806 9.8981C73.2231 9.96399 73.142 10.0046 73.0548 10.0112L73.0612 9.99836Z" fill="#231F20"/>
<path d="M85.4899 9.98556H70.2707C70.1858 9.98556 70.1044 9.95184 70.0444 9.89181C69.9844 9.83178 69.9507 9.75037 69.9507 9.66547C69.9507 9.58058 69.9844 9.49916 70.0444 9.43913C70.1044 9.37911 70.1858 9.34538 70.2707 9.34538H85.4899C85.5748 9.34538 85.6561 9.37911 85.7162 9.43913C85.7762 9.49916 85.8099 9.58058 85.8099 9.66547C85.8099 9.75037 85.7762 9.83178 85.7162 9.89181C85.6561 9.95184 85.5748 9.98556 85.4899 9.98556Z" fill="#231F20"/>
<path d="M65.9188 48.5116C65.8444 48.5101 65.7728 48.4833 65.7158 48.4355C65.6588 48.3878 65.6198 48.322 65.6052 48.2491C65.522 47.7818 63.5892 36.7259 64.5428 31.0923C64.5584 31.0089 64.6059 30.9348 64.6752 30.8858C64.7445 30.8368 64.8302 30.8167 64.914 30.8298C64.9974 30.8454 65.0714 30.8929 65.1204 30.9623C65.1694 31.0316 65.1895 31.1172 65.1764 31.2011C64.2356 36.7259 66.2196 48.0186 66.2388 48.1339C66.2461 48.1755 66.2451 48.2182 66.2359 48.2594C66.2267 48.3007 66.2093 48.3397 66.185 48.3742C66.1606 48.4088 66.1296 48.4381 66.0938 48.4606C66.058 48.483 66.0181 48.4982 65.9764 48.5052L65.9188 48.5116Z" fill="#231F20"/>
<path d="M96.7028 52.0902C96.649 52.0913 96.5959 52.0783 96.5487 52.0525C96.5015 52.0266 96.462 51.9889 96.434 51.9429L89.9764 41.9177C89.9307 41.8464 89.9151 41.7598 89.9331 41.677C89.9511 41.5942 90.0012 41.5219 90.0724 41.476C90.1071 41.4516 90.1465 41.4346 90.1882 41.4262C90.2298 41.4178 90.2727 41.4181 90.3142 41.4272C90.3557 41.4362 90.3949 41.4537 90.4293 41.4787C90.4636 41.5036 90.4925 41.5354 90.514 41.572L96.9716 51.5972C97.0173 51.6686 97.0328 51.7551 97.0148 51.8379C96.9968 51.9208 96.9468 51.993 96.8756 52.039C96.8236 52.0713 96.7639 52.089 96.7028 52.0902V52.0902Z" fill="#231F20"/>
<path d="M77.7268 70.7066C77.4452 70.7066 77.1572 70.7066 76.8756 70.6682C74.5707 70.4625 72.4374 69.364 70.9309 67.6071C69.4244 65.8502 68.6638 63.5739 68.8116 61.264L69.3044 53.0825C69.3053 53.0379 69.3161 52.9941 69.3361 52.9543C69.356 52.9144 69.3845 52.8795 69.4196 52.852C69.4534 52.8247 69.4923 52.8043 69.5341 52.7922C69.5758 52.7801 69.6196 52.7765 69.6628 52.7816L86.6868 54.8238C86.7677 54.8319 86.8423 54.8711 86.8948 54.9332C86.9474 54.9954 86.9738 55.0755 86.9684 55.1566L86.6164 62.2434C86.5 64.5245 85.5131 66.6739 83.8591 68.2486C82.2051 69.8232 80.0101 70.703 77.7268 70.7066V70.7066ZM69.9188 53.4602L69.458 61.3152C69.3983 62.3993 69.5527 63.4845 69.9123 64.5089C70.2719 65.5333 70.8297 66.4768 71.5538 67.2856C72.278 68.0943 73.1543 68.7525 74.1327 69.2225C75.1112 69.6925 76.1726 69.9651 77.2564 70.0248C78.3401 70.0845 79.4251 69.9301 80.4492 69.5704C81.4733 69.2107 82.4165 68.6527 83.2251 67.9284C84.0336 67.204 84.6916 66.3274 85.1615 65.3487C85.6313 64.37 85.9039 63.3083 85.9636 62.2242L86.3028 55.4383L69.9188 53.4602Z" fill="white"/>
<path d="M56.8436 126.14L42.5268 123.822L41.9316 144.609C41.9316 144.609 33.202 147.445 33.2788 149.02C33.3876 151.337 53.2916 150.383 53.2916 150.383L56.8436 126.14Z" fill="white"/>
<path d="M44.7733 150.94H43.3397C33.0549 150.832 32.9909 149.602 32.9717 149.077C32.9717 148.655 33.5157 147.067 41.6245 144.404L42.2197 123.848C42.2208 123.801 42.2323 123.755 42.2534 123.713C42.2744 123.671 42.3044 123.634 42.3413 123.605C42.378 123.576 42.4202 123.555 42.4653 123.543C42.5104 123.53 42.5574 123.528 42.6037 123.534L56.8949 125.852C56.9373 125.858 56.9781 125.873 57.015 125.895C57.0518 125.917 57.0839 125.946 57.1095 125.98C57.135 126.015 57.1535 126.054 57.1639 126.096C57.1743 126.137 57.1764 126.181 57.1701 126.223L53.6373 150.467C53.6267 150.543 53.5894 150.613 53.532 150.665C53.4746 150.716 53.4008 150.746 53.3237 150.748C53.2789 150.716 49.2021 150.94 44.7733 150.94ZM42.8533 124.238L42.2645 144.647C42.263 144.715 42.2407 144.781 42.2007 144.836C42.1606 144.891 42.1047 144.932 42.0405 144.955C37.9573 146.28 33.5797 148.22 33.6181 149.039C33.6181 149.154 33.9381 150.172 43.3333 150.275C47.6021 150.313 51.9029 150.147 53.0101 150.095L56.4597 126.441L42.8533 124.238Z" fill="#231F20"/>
<path d="M103.628 115.955L94.2068 127.932L109.343 139.737C109.343 139.737 106.527 146.497 107.301 147.419C108.076 148.341 120.332 136.063 120.332 136.063L103.628 115.955Z" fill="white"/>
<path d="M107.423 147.778C107.289 147.773 107.162 147.716 107.071 147.618C106.277 146.696 108.05 142.048 108.959 139.846L94.0211 128.195C93.9863 128.168 93.9575 128.134 93.9366 128.096C93.9156 128.057 93.903 128.014 93.8995 127.971C93.8882 127.884 93.9112 127.797 93.9635 127.727L103.365 115.73C103.396 115.691 103.434 115.66 103.479 115.637C103.523 115.615 103.572 115.603 103.621 115.602C103.719 115.609 103.81 115.653 103.877 115.724L120.607 135.832C120.663 135.893 120.693 135.973 120.693 136.056C120.693 136.139 120.663 136.219 120.607 136.28C117.868 138.982 108.952 147.778 107.423 147.778ZM94.6676 127.894L109.548 139.5C109.603 139.545 109.642 139.607 109.661 139.676C109.679 139.745 109.675 139.818 109.65 139.884C108.242 143.265 107.301 146.459 107.512 147.118C108.639 146.798 114.552 141.357 119.89 136.043L103.634 116.499L94.6676 127.894Z" fill="#231F20"/>
<path d="M54.8341 130.96H54.7829L43.1669 129.245C43.0836 129.23 43.009 129.184 42.9589 129.116C42.9088 129.048 42.887 128.964 42.8981 128.88C42.9036 128.838 42.9173 128.798 42.9383 128.762C42.9594 128.726 42.9875 128.695 43.0208 128.67C43.0542 128.645 43.0923 128.627 43.1327 128.617C43.1732 128.607 43.2153 128.605 43.2565 128.611L54.8917 130.32C54.9766 130.326 55.0556 130.366 55.1114 130.43C55.1672 130.494 55.1953 130.578 55.1893 130.663C55.1834 130.748 55.144 130.827 55.0797 130.882C55.0155 130.938 54.9318 130.966 54.8469 130.96H54.8341Z" fill="#D1D3D4"/>
<path d="M54.3859 133.483H54.3475L43.4099 132.023C43.325 132.011 43.2484 131.966 43.1968 131.898C43.1452 131.829 43.1228 131.743 43.1347 131.658C43.1466 131.573 43.1917 131.497 43.2601 131.445C43.3285 131.393 43.4146 131.371 43.4995 131.383L54.4307 132.842C54.5156 132.848 54.5946 132.888 54.6504 132.952C54.7062 133.016 54.7343 133.1 54.7283 133.185C54.7224 133.27 54.683 133.349 54.6187 133.405C54.5545 133.461 54.4708 133.489 54.3859 133.483V133.483Z" fill="#D1D3D4"/>
<path d="M99.9795 130.102C99.9078 130.099 99.8387 130.075 99.7811 130.032C99.7152 129.979 99.6728 129.903 99.6632 129.819C99.6536 129.735 99.6776 129.65 99.7299 129.584L106.399 121.114C106.422 121.075 106.453 121.04 106.49 121.014C106.527 120.987 106.57 120.969 106.615 120.96C106.66 120.951 106.706 120.952 106.751 120.963C106.795 120.974 106.837 120.994 106.873 121.022C106.909 121.05 106.939 121.086 106.96 121.127C106.981 121.167 106.993 121.212 106.995 121.258C106.998 121.304 106.99 121.349 106.973 121.392C106.957 121.435 106.931 121.473 106.898 121.505L100.236 129.981C100.204 130.018 100.165 130.049 100.121 130.07C100.077 130.091 100.028 130.102 99.9795 130.102V130.102Z" fill="#D1D3D4"/>
<path d="M102.149 130.96C102.074 130.96 102.001 130.933 101.944 130.883C101.88 130.828 101.84 130.749 101.833 130.664C101.826 130.579 101.852 130.495 101.906 130.429L108.018 123.15C108.075 123.096 108.15 123.065 108.229 123.063C108.307 123.06 108.384 123.087 108.444 123.138C108.504 123.188 108.544 123.259 108.555 123.337C108.566 123.415 108.548 123.494 108.504 123.56L102.392 130.845C102.362 130.88 102.325 130.908 102.283 130.928C102.241 130.948 102.195 130.959 102.149 130.96V130.96Z" fill="#D1D3D4"/>
</svg>
