<svg width="428" height="405" viewBox="0 0 428 405" fill="none" xmlns="http://www.w3.org/2000/svg">
<path d="M308.323 164.49C313 157.885 317.192 150.95 320.868 143.74C324.094 136.558 326.156 128.909 326.977 121.079C327.051 119.415 327.496 117.789 328.281 116.32C330.209 113.487 333.951 114.408 334.986 117.467C335.352 118.92 335.518 120.416 335.482 121.914C335.626 125.714 336.749 129.412 338.743 132.65C340.883 136.035 344.313 138.047 347.092 140.851C349.793 143.541 352.25 146.466 354.434 149.59C355.512 151.176 357.737 154.009 357.269 156.105C356.064 160.893 335.114 179.234 315.963 185.226" fill="white"/>
<path d="M315.978 185.835C315.838 185.837 315.702 185.795 315.589 185.713C315.477 185.631 315.394 185.515 315.354 185.381C315.305 185.218 315.322 185.042 315.402 184.891C315.481 184.74 315.617 184.626 315.779 184.574C335.482 178.427 355.625 160.029 356.646 155.921C357.057 154.335 355.427 152.026 354.363 150.496L353.967 149.93C351.809 146.832 349.375 143.935 346.695 141.276C345.731 140.299 344.654 139.406 343.619 138.528C341.552 136.97 339.744 135.096 338.261 132.976C336.216 129.636 335.064 125.827 334.915 121.914V121.065C334.937 119.908 334.794 118.754 334.49 117.637C334.303 117.024 333.95 116.474 333.47 116.049C332.989 115.624 332.401 115.34 331.769 115.229C331.209 115.156 330.64 115.252 330.134 115.505C329.629 115.757 329.211 116.154 328.934 116.646C328.227 117.956 327.825 119.408 327.757 120.895V121.093C326.94 128.992 324.863 136.71 321.605 143.953C317.918 151.19 313.706 158.149 309.003 164.773C308.955 164.844 308.893 164.905 308.822 164.951C308.75 164.998 308.669 165.031 308.585 165.046C308.501 165.062 308.414 165.061 308.33 165.043C308.247 165.026 308.167 164.992 308.096 164.943C308.026 164.896 307.966 164.836 307.919 164.765C307.872 164.695 307.84 164.616 307.824 164.533C307.808 164.45 307.809 164.364 307.827 164.282C307.844 164.199 307.878 164.121 307.926 164.051C312.525 157.501 316.638 150.622 320.23 143.471C323.424 136.351 325.467 128.768 326.283 121.008V120.81C326.373 119.107 326.858 117.449 327.7 115.966C328.111 115.271 328.717 114.713 329.443 114.36C330.169 114.008 330.983 113.876 331.783 113.983C332.653 114.124 333.467 114.506 334.133 115.083C334.799 115.661 335.291 116.413 335.553 117.255C335.903 118.489 336.075 119.767 336.064 121.05V121.886C336.198 125.573 337.282 129.164 339.21 132.31C340.627 134.317 342.349 136.09 344.313 137.565C345.377 138.457 346.468 139.378 347.474 140.398C350.21 143.112 352.692 146.07 354.888 149.236L355.285 149.774C356.49 151.502 358.304 154.108 357.766 156.261C356.518 161.289 335.567 179.73 316.02 185.835C316.006 185.835 315.992 185.835 315.978 185.835Z" fill="#231F20"/>
<path d="M120.859 119.422C120.859 119.422 189.395 124.025 197.928 129.336C206.461 134.647 236.342 169.065 257.236 171.274C266.338 172.311 275.556 171.501 284.337 168.892C293.118 166.283 301.281 161.929 308.337 156.091L323.49 187.01C323.49 187.01 284.792 223.58 252.048 215.125C227.086 208.68 187.878 188.469 187.878 188.469L116.904 207.986L120.859 119.422Z" fill="#231F20"/>
<path d="M262.24 217.094C258.742 217.107 255.255 216.679 251.864 215.819C228.093 209.686 191.238 190.962 187.807 189.234L117.088 208.666C116.979 208.695 116.865 208.699 116.754 208.677C116.644 208.654 116.54 208.607 116.45 208.539C116.364 208.466 116.297 208.375 116.252 208.271C116.208 208.168 116.188 208.056 116.195 207.944L120.15 119.393C120.164 119.204 120.251 119.026 120.391 118.898C120.462 118.835 120.545 118.788 120.636 118.758C120.726 118.729 120.821 118.719 120.915 118.728C123.75 118.912 189.721 123.402 198.311 128.642C202.45 131.73 206.363 135.11 210.019 138.755C222.975 150.766 242.537 168.923 257.307 170.495C266.306 171.494 275.414 170.683 284.095 168.112C292.776 165.541 300.854 161.261 307.855 155.525C307.935 155.448 308.032 155.391 308.138 155.359C308.244 155.327 308.356 155.32 308.465 155.34C308.574 155.36 308.677 155.405 308.765 155.471C308.854 155.537 308.926 155.624 308.975 155.723L324.128 186.642C324.192 186.78 324.211 186.935 324.183 187.084C324.155 187.234 324.082 187.371 323.972 187.478C323.618 187.874 292.291 217.094 262.24 217.094ZM187.878 187.761C187.992 187.76 188.105 187.789 188.204 187.846C188.601 188.044 227.625 208.086 252.218 214.445C282.496 222.263 318.515 190.594 322.611 186.868L308.11 157.238C293.726 168.657 275.416 173.949 257.151 171.968C241.913 170.354 222.139 151.998 209.056 139.86C203.938 135.115 199.913 131.362 197.56 129.945C189.735 125.101 128.896 120.725 121.539 120.215L117.655 207.08L187.694 187.832L187.878 187.761Z" fill="#231F20"/>
<path d="M208.814 239.458C209.849 217.901 210.629 192.52 209.126 183.158C207.269 180.877 203.612 176.982 203.612 176.982C203.18 159.376 200.064 141.939 194.37 125.271L183.03 123.855C183.03 123.855 190.004 143.995 190.869 176.487L132.113 173.087C132.113 173.087 130.781 138.967 121.737 117.849H109.363C109.363 117.849 108.484 155.978 107.732 177.336C107.732 177.336 93.3448 189.503 89.305 195.551C87.3063 198.553 87.3205 219.331 87.8875 239.458H208.814Z" fill="#FE6681"/>
<path d="M266.365 211.867C266.762 211.698 267.091 211.403 267.303 211.028C267.514 210.652 267.595 210.217 267.534 209.791C267.472 209.364 267.272 208.97 266.963 208.669C266.654 208.369 266.254 208.178 265.826 208.128C251.878 206.287 220.296 202.151 203.456 200.026C202.085 199.851 200.692 199.987 199.381 200.424C198.07 200.862 196.875 201.591 195.885 202.555C194.895 203.519 194.137 204.695 193.666 205.993C193.195 207.292 193.024 208.68 193.165 210.054L195.192 230.266C195.337 231.711 195.824 233.102 196.612 234.323C197.4 235.544 198.467 236.561 199.725 237.29C200.983 238.018 202.396 238.438 203.848 238.515C205.3 238.591 206.75 238.322 208.077 237.73L266.365 211.867Z" fill="white"/>
<path d="M204.349 239.189C201.914 239.168 199.572 238.252 197.768 236.617C195.965 234.983 194.826 232.742 194.568 230.322L192.527 210.125C192.379 208.653 192.565 207.167 193.071 205.777C193.578 204.387 194.391 203.129 195.45 202.096C196.51 201.063 197.789 200.282 199.192 199.811C200.595 199.34 202.087 199.191 203.555 199.375C219.814 201.429 249.624 205.338 265.925 207.477C266.49 207.553 267.014 207.811 267.418 208.212C267.822 208.613 268.085 209.134 268.167 209.697C268.249 210.26 268.145 210.835 267.871 211.333C267.597 211.832 267.168 212.228 266.648 212.462L208.332 238.325C207.081 238.891 205.723 239.185 204.349 239.189ZM202.294 200.593C201.098 200.586 199.914 200.832 198.819 201.314C197.724 201.795 196.743 202.503 195.941 203.389C195.138 204.275 194.532 205.32 194.161 206.457C193.79 207.593 193.663 208.795 193.789 209.983L195.83 230.195C195.956 231.542 196.402 232.839 197.131 233.978C197.86 235.118 198.851 236.067 200.021 236.748C201.191 237.428 202.507 237.819 203.859 237.889C205.211 237.959 206.56 237.705 207.794 237.149L266.124 211.329C266.385 211.212 266.601 211.014 266.74 210.764C266.878 210.514 266.931 210.225 266.891 209.942C266.851 209.659 266.72 209.397 266.518 209.195C266.315 208.993 266.053 208.862 265.769 208.822C249.454 206.683 219.644 202.774 203.399 200.72C203.034 200.656 202.665 200.614 202.294 200.593Z" fill="#231F20"/>
<path d="M213.421 219.827C213.421 219.827 192.768 225.11 189.806 223.17C186.843 221.229 182.718 210.748 182.718 210.748L168.557 215.762L168.203 208.298C168.203 208.298 184.249 200.508 185.667 202.788C187.084 205.069 190.33 218.708 192.924 218.368C195.518 218.028 213.223 215.578 213.223 215.578" fill="white"/>
<path d="M192.4 224.218C191.388 224.301 190.372 224.12 189.451 223.694C186.744 221.923 183.271 213.779 182.364 211.556L168.855 216.371C168.76 216.405 168.657 216.417 168.556 216.405C168.455 216.392 168.359 216.357 168.274 216.3C168.19 216.244 168.12 216.168 168.07 216.08C168.021 215.991 167.994 215.892 167.991 215.79L167.636 208.34C167.628 208.213 167.657 208.087 167.72 207.976C167.783 207.865 167.877 207.775 167.991 207.717C174.185 204.715 184.788 200.026 186.276 202.448C187.073 204.106 187.732 205.825 188.247 207.59C189.182 210.423 191.62 217.844 192.896 217.674C195.462 217.292 212.982 214.955 213.166 214.941C213.25 214.929 213.336 214.934 213.418 214.955C213.499 214.976 213.576 215.014 213.644 215.065C213.711 215.117 213.767 215.181 213.809 215.255C213.852 215.328 213.879 215.409 213.889 215.493C213.901 215.577 213.896 215.662 213.875 215.744C213.853 215.826 213.816 215.903 213.764 215.97C213.713 216.037 213.649 216.094 213.575 216.136C213.502 216.178 213.42 216.205 213.336 216.215C213.152 216.215 195.632 218.581 193.08 218.963C190.954 219.289 189.31 214.827 187.013 208.001C186.522 206.335 185.911 204.706 185.185 203.128C184.377 202.278 176.992 204.828 168.94 208.695L169.238 214.856L182.506 210.125C182.664 210.072 182.836 210.081 182.989 210.149C183.141 210.217 183.262 210.34 183.328 210.493C184.462 213.326 187.906 221.116 190.189 222.617C192.173 223.92 205.413 221.201 213.294 219.19C213.376 219.168 213.461 219.163 213.545 219.175C213.629 219.186 213.71 219.214 213.783 219.257C213.856 219.3 213.92 219.357 213.971 219.424C214.022 219.491 214.059 219.568 214.081 219.65C214.102 219.732 214.107 219.817 214.095 219.901C214.084 219.985 214.056 220.065 214.013 220.138C213.97 220.211 213.914 220.275 213.846 220.326C213.779 220.377 213.702 220.415 213.62 220.436C210.728 221.243 198.467 224.218 192.4 224.218Z" fill="#231F20"/>
<path d="M127.237 187.081C127.237 187.081 152.625 186.642 158.167 188.342C163.71 190.041 180.465 206.754 178.678 213.51C176.892 220.266 160.052 228.467 154.283 226.017C148.514 223.566 142.263 215.252 142.263 215.252C142.263 215.252 125.522 208.44 116.904 207.986L127.237 187.081Z" fill="white"/>
<path d="M156.891 227.107C155.923 227.127 154.96 226.958 154.056 226.611C148.556 224.26 142.716 216.952 141.88 215.79C140.137 215.082 124.87 209.049 116.89 208.624C116.784 208.617 116.681 208.586 116.589 208.531C116.498 208.477 116.421 208.402 116.365 208.312C116.313 208.217 116.286 208.109 116.286 208.001C116.286 207.892 116.313 207.785 116.365 207.689L126.699 186.798C126.749 186.689 126.829 186.597 126.929 186.532C127.03 186.467 127.146 186.432 127.266 186.429C128.3 186.429 152.781 186.019 158.451 187.718C164.447 189.545 181.287 206.556 179.387 213.68C178.338 217.674 172.767 221.64 167.92 224.005C164.5 225.796 160.744 226.852 156.891 227.107ZM117.91 207.406C126.727 208.27 141.838 214.388 142.504 214.657C142.613 214.699 142.707 214.773 142.773 214.87C142.844 214.941 149.01 223.056 154.538 225.422C156.948 226.441 161.952 225.422 167.296 222.844C173.065 220.011 177.303 216.3 178.083 213.34C179.77 207.009 163.242 190.537 158.011 188.951C152.993 187.421 130.894 187.676 127.663 187.718L117.91 207.406Z" fill="#231F20"/>
<path d="M110.156 119.422C97.7526 122.679 85.9278 127.834 75.1017 134.704C65.4627 140.936 22.6542 167.082 16.0345 174.829C9.41473 182.577 0.7538 206.797 21.5343 216.357C42.3149 225.917 120.277 213.184 120.277 213.184L133.29 182.889L96.6335 184.645L116.904 175.056C116.904 175.056 117.612 164.079 115.486 144.548C113.729 127.282 110.156 119.422 110.156 119.422Z" fill="#231F20"/>
<path d="M48.7787 220.634C37.1694 220.634 27.0626 219.671 21.2367 216.994C14.1492 213.737 9.81163 208.595 8.30908 201.712C6.02691 191.245 11.1441 179.418 15.4958 174.362C21.0524 167.889 50.9333 149.094 66.9936 138.953C70.3389 136.857 73.0321 135.157 74.7189 134.067C85.6222 127.169 97.5216 121.986 110.001 118.699C110.16 118.662 110.328 118.681 110.476 118.753C110.623 118.825 110.741 118.946 110.808 119.096C110.95 119.422 114.437 127.254 116.252 144.434C117.485 154.592 117.959 164.828 117.669 175.056C117.655 175.181 117.61 175.301 117.538 175.405C117.467 175.509 117.37 175.593 117.258 175.651L100.248 183.724L133.361 182.138C133.481 182.131 133.602 182.155 133.711 182.207C133.82 182.259 133.914 182.338 133.985 182.435C134.049 182.538 134.088 182.654 134.101 182.774C134.113 182.894 134.097 183.016 134.055 183.129L121.043 213.425C120.995 213.535 120.921 213.631 120.827 213.706C120.733 213.78 120.622 213.829 120.504 213.85C118.094 214.261 78.5178 220.634 48.7787 220.634ZM109.731 120.257C97.6284 123.536 86.0848 128.606 75.4844 135.299C73.7976 136.39 71.1043 138.132 67.759 140.2C51.7554 150.256 21.988 168.98 16.5589 175.283C12.4057 180.169 7.51528 191.415 9.69823 201.414C11.1157 207.845 15.184 212.646 21.832 215.706C41.436 224.714 113.828 213.496 119.781 212.547L132.184 183.653L96.6618 185.353C96.4976 185.361 96.3356 185.312 96.2037 185.214C96.0718 185.115 95.9782 184.974 95.9389 184.815C95.9019 184.655 95.9195 184.487 95.9889 184.338C96.0582 184.189 96.1753 184.068 96.3216 183.993L116.167 174.589C116.403 164.578 115.929 154.563 114.749 144.619C113.275 130.186 110.539 122.311 109.731 120.257Z" fill="#231F20"/>
<path d="M118.945 55.5298C119.124 54.2633 119.467 53.0255 119.966 51.8473C121.993 47.3857 128.655 45.3462 133.12 44.9213C138.422 44.4256 143.043 44.9921 147.678 42.4568C152.385 39.9694 157.797 39.1505 163.029 40.134C164.761 40.4511 166.437 41.0189 168.005 41.8195C170.376 43.1085 172.345 45.0276 173.693 47.3647C175.042 49.7018 175.717 52.3658 175.645 55.0624C175.376 61.436 171.52 67.6396 167.268 72.172C164.411 75.0353 161.304 77.6376 157.983 79.9478L151.094 85.0466C144.006 90.2588 134.084 95.4144 124.927 92.7516C117.967 90.7121 114.267 83.0071 113.006 76.4352C111.588 69.1976 110.681 60.6853 118.676 57.0736C118.775 56.5354 118.846 56.0114 118.945 55.5298Z" fill="white"/>
<path d="M130.143 94.1822C128.302 94.1914 126.47 93.9386 124.7 93.4315C115.685 90.7829 112.921 79.8628 112.283 76.5768C111.234 71.0531 109.263 60.8411 118.052 56.5921C118.052 56.1813 118.165 55.7706 118.236 55.3598C118.417 54.0386 118.775 52.7476 119.299 51.5215C121.411 46.8617 128.031 44.6522 133.049 44.1706C134.467 44.0431 135.7 43.9865 136.961 43.9298C140.718 43.7599 143.964 43.6182 147.323 41.7911C152.174 39.2294 157.75 38.3856 163.143 39.3975C164.943 39.7217 166.687 40.3087 168.317 41.1396C170.82 42.4931 172.897 44.5166 174.314 46.9833C175.731 49.4499 176.432 52.2622 176.34 55.1049C176.014 62.7674 170.825 69.3959 167.764 72.6535C164.889 75.5563 161.753 78.1877 158.394 80.5143L151.547 85.6132C145.877 89.7631 138.039 94.1822 130.143 94.1822ZM119.625 55.6006C119.54 56.1247 119.469 56.6487 119.399 57.1728C119.383 57.2905 119.337 57.4022 119.265 57.4966C119.193 57.5911 119.097 57.665 118.988 57.711C111.446 61.1102 112.297 69.0418 113.686 76.3077C114.905 82.6672 118.548 90.1455 125.111 92.0718C134.155 94.7062 143.992 89.3949 150.626 84.4801L157.515 79.3812C160.804 77.1009 163.878 74.5267 166.701 71.6904C169.635 68.5603 174.596 62.2433 174.908 55.0341C174.986 52.4619 174.347 49.9187 173.063 47.688C171.779 45.4573 169.9 43.6266 167.636 42.4002C166.141 41.6353 164.541 41.096 162.887 40.7997C157.816 39.831 152.565 40.6205 148.004 43.0375C144.361 45.0204 140.789 45.1762 137.018 45.3462C135.785 45.3462 134.495 45.4595 133.177 45.587C129.434 45.9411 122.588 47.7115 120.589 52.1022C120.121 53.2229 119.797 54.3984 119.625 55.6006Z" fill="#231F20"/>
<path d="M166.148 105.655L168.855 126.9C168.855 126.9 166.786 138.231 153.575 137.197C149.669 136.863 145.887 135.663 142.504 133.686C139.12 131.709 136.22 129.004 134.013 125.767L128.343 89.9048C128.343 89.9048 136.961 83.347 130.852 63.3339C141.967 66.1287 153.631 65.8791 164.617 62.6116C164.617 62.6116 174.001 83.8569 174.072 93.9555C174.142 104.054 166.148 105.655 166.148 105.655Z" fill="white"/>
<path d="M155.191 138.018C154.652 138.018 154.099 138.018 153.518 138.018C149.495 137.693 145.598 136.466 142.116 134.428C138.633 132.391 135.655 129.595 133.404 126.248C133.354 126.171 133.32 126.084 133.304 125.994L127.634 90.1172C127.613 89.9922 127.626 89.8636 127.674 89.7459C127.721 89.6283 127.801 89.5263 127.904 89.4515C127.975 89.4515 136.026 82.8655 130.157 63.6597C130.122 63.5359 130.121 63.405 130.153 63.2805C130.186 63.156 130.251 63.0424 130.342 62.9514C130.433 62.8605 130.546 62.7954 130.671 62.7631C130.796 62.7307 130.927 62.7322 131.05 62.7674C142.049 65.4809 153.573 65.212 164.433 61.9884C164.598 61.9426 164.775 61.9573 164.931 62.03C165.087 62.1027 165.212 62.2286 165.283 62.385C165.666 63.2489 174.724 83.8853 174.795 93.998C174.795 102.836 168.926 105.556 166.942 106.221L169.564 126.928C169.578 126.998 169.578 127.071 169.564 127.141C168.821 130.348 166.976 133.193 164.349 135.181C161.723 137.169 158.482 138.173 155.191 138.018ZM134.679 125.569C136.846 128.668 139.666 131.257 142.939 133.153C146.213 135.049 149.862 136.207 153.631 136.545C165.538 137.452 167.891 128.047 168.132 126.928L165.439 105.683C165.418 105.506 165.464 105.327 165.57 105.182C165.675 105.038 165.831 104.938 166.006 104.904C166.304 104.904 173.42 103.261 173.363 93.8989C173.363 84.9758 165.694 66.8465 164.206 63.4047C153.666 66.379 142.553 66.7002 131.858 64.3395C136.777 81.6757 130.639 88.7292 129.023 90.1739L134.679 125.569Z" fill="#231F20"/>
<path d="M135.671 88.106C134.953 86.4308 133.709 85.0341 132.128 84.126C130.619 83.3514 128.989 82.8389 127.308 82.6105C126.375 82.3946 125.406 82.3946 124.473 82.6105C123.849 82.8107 123.27 83.1333 122.772 83.5595C121.564 84.469 120.712 85.7715 120.362 87.242C120.206 88.4765 120.352 89.7306 120.788 90.8962C121.156 92.1981 121.695 93.4458 122.389 94.6071C123.114 95.744 124.056 96.7263 125.162 97.4971C126.269 98.268 127.517 98.812 128.835 99.0978C130.153 99.3836 131.515 99.4055 132.842 99.1622C134.169 98.919 135.434 98.4154 136.564 97.6806" fill="white"/>
<path d="M130.937 100.046C130.165 100.044 129.396 99.9632 128.641 99.8051C125.795 99.1709 123.314 97.4404 121.737 94.9895C121.01 93.7741 120.443 92.4696 120.05 91.1087C119.581 89.8328 119.43 88.4618 119.611 87.1145C120.02 85.4367 121.028 83.9659 122.446 82.9788C123.017 82.4971 123.677 82.1314 124.388 81.9024C125.404 81.6614 126.462 81.6614 127.478 81.9024C129.24 82.1418 130.947 82.6832 132.524 83.5028C134.227 84.472 135.573 85.9614 136.366 87.7519C136.403 87.8383 136.423 87.9312 136.423 88.0252C136.424 88.1192 136.406 88.2124 136.371 88.2994C136.335 88.3865 136.282 88.4655 136.216 88.532C136.149 88.5985 136.07 88.6511 135.983 88.6867C135.898 88.7236 135.806 88.7429 135.713 88.7435C135.62 88.7442 135.527 88.7261 135.441 88.6904C135.356 88.6548 135.278 88.6022 135.212 88.5359C135.147 88.4695 135.096 88.3908 135.062 88.3043C134.402 86.7724 133.263 85.4953 131.816 84.6642C130.375 83.9379 128.823 83.4591 127.223 83.2479C126.421 83.0651 125.587 83.0651 124.785 83.2479C124.266 83.4317 123.785 83.7102 123.367 84.0694C122.247 84.8653 121.439 86.0276 121.085 87.3553C120.947 88.477 121.089 89.6154 121.496 90.6696C121.84 91.9151 122.355 93.1068 123.027 94.2105C123.701 95.2701 124.578 96.1853 125.609 96.9026C126.64 97.62 127.804 98.1252 129.032 98.3888C130.26 98.6525 131.529 98.6693 132.763 98.4382C133.998 98.2072 135.175 97.733 136.224 97.0432C136.382 96.942 136.574 96.9076 136.757 96.9474C136.941 96.9872 137.101 97.0981 137.202 97.2556C137.255 97.3324 137.292 97.4189 137.31 97.51C137.329 97.6012 137.329 97.6951 137.31 97.7863C137.292 97.8775 137.255 97.964 137.202 98.0407C137.15 98.1174 137.082 98.1828 137.004 98.2329C135.203 99.4176 133.093 100.048 130.937 100.046Z" fill="#231F20"/>
<path d="M167.934 117.849C163.056 117.629 158.333 116.071 154.283 113.345C147.805 108.856 147.777 105.655 147.777 105.655C147.777 105.655 157.614 109.125 165.68 106.108L167.934 117.849Z" fill="#231F20"/>
<path d="M167.934 118.501C162.912 118.289 158.048 116.685 153.886 113.87C147.295 109.309 147.082 105.966 147.082 105.598C147.084 105.485 147.112 105.374 147.163 105.273C147.215 105.172 147.289 105.085 147.38 105.017C147.471 104.952 147.577 104.91 147.688 104.895C147.799 104.88 147.913 104.893 148.018 104.932C148.117 104.932 157.728 108.289 165.439 105.386C165.535 105.348 165.639 105.333 165.742 105.34C165.845 105.347 165.945 105.377 166.036 105.427C166.126 105.477 166.205 105.546 166.266 105.629C166.327 105.713 166.369 105.808 166.389 105.91L168.628 117.665C168.647 117.767 168.645 117.871 168.62 117.971C168.596 118.071 168.55 118.165 168.487 118.246C168.417 118.325 168.332 118.388 168.237 118.432C168.142 118.476 168.039 118.499 167.934 118.501ZM148.812 106.66C149.364 107.878 150.839 110.045 154.68 112.708C158.396 115.189 162.685 116.681 167.14 117.042L165.212 106.986C158.762 109.04 151.675 107.468 148.812 106.66Z" fill="#231F20"/>
<path d="M152.143 77.4408C152.143 77.4408 160.733 85.939 159.514 88.021C158.295 90.1031 153.645 89.7915 153.645 89.7915" fill="white"/>
<path d="M154.227 90.5138H153.603C153.415 90.5025 153.239 90.4171 153.114 90.2763C152.989 90.1356 152.925 89.951 152.937 89.7631C152.948 89.5753 153.033 89.3997 153.174 89.2748C153.315 89.15 153.5 89.0862 153.688 89.0974C154.779 89.0974 158.082 89.0974 158.904 87.6811C159.4 86.8738 155.942 82.2423 151.647 77.9649C151.513 77.8315 151.438 77.6507 151.438 77.4621C151.438 77.2735 151.513 77.0926 151.647 76.9593C151.78 76.8259 151.961 76.751 152.15 76.751C152.339 76.751 152.52 76.8259 152.653 76.9593C155.346 79.6079 161.47 86.1231 160.052 88.3893C158.961 90.3013 155.658 90.5138 154.227 90.5138Z" fill="#231F20"/>
<path d="M144.294 80.6711C145.212 80.5684 145.839 79.439 145.695 78.1486C145.55 76.8581 144.688 75.8953 143.77 75.998C142.852 76.1008 142.225 77.2302 142.37 78.5206C142.515 79.811 143.376 80.7739 144.294 80.6711Z" fill="#231F20"/>
<path d="M160.476 77.4676C161.323 77.0991 161.589 75.8352 161.071 74.6447C160.552 73.4541 159.444 72.7878 158.598 73.1563C157.751 73.5248 157.485 74.7886 158.003 75.9791C158.522 77.1697 159.629 77.8361 160.476 77.4676Z" fill="#231F20"/>
<path d="M159.117 103.275C158.833 103.275 158.536 103.275 158.224 103.275C155.246 103.228 152.324 102.456 149.711 101.027C147.098 99.5986 144.872 97.5554 143.227 95.0745C143.171 94.9673 143.142 94.8483 143.142 94.7275C143.142 94.6066 143.171 94.4876 143.227 94.3805C143.285 94.2766 143.369 94.1894 143.471 94.1274C143.573 94.0654 143.689 94.0306 143.808 94.0264L167.905 92.7941C168.091 92.7864 168.272 92.8518 168.41 92.9763C168.548 93.1008 168.631 93.2745 168.642 93.4598C168.77 96.1501 167.839 98.7833 166.048 100.797C165.123 101.66 164.031 102.325 162.839 102.752C161.647 103.178 160.38 103.356 159.117 103.275ZM145.169 95.3436C146.765 97.305 148.764 98.9006 151.031 100.022C153.298 101.144 155.78 101.765 158.309 101.845C159.513 102.004 160.737 101.901 161.897 101.541C163.057 101.182 164.125 100.575 165.028 99.7626C166.393 98.2359 167.168 96.2717 167.211 94.2247L145.169 95.3436Z" fill="#231F20"/>
<path d="M166.488 244.245H76.1082V274.583H166.488V244.245Z" fill="white"/>
<path d="M166.488 275.292H76.1082C75.9202 275.292 75.7399 275.217 75.607 275.084C75.4741 274.951 75.3994 274.771 75.3994 274.583V244.245C75.3994 244.057 75.4741 243.877 75.607 243.744C75.7399 243.612 75.9202 243.537 76.1082 243.537H166.488C166.676 243.537 166.856 243.612 166.989 243.744C167.122 243.877 167.197 244.057 167.197 244.245V274.583C167.197 274.771 167.122 274.951 166.989 275.084C166.856 275.217 166.676 275.292 166.488 275.292ZM76.8169 273.875H165.723V244.953H76.8169V273.875Z" fill="#F0F0F0"/>
<path d="M72.125 244.245H10.7898V274.583H72.125V244.245Z" fill="white"/>
<path d="M72.1676 275.292H10.7898C10.6018 275.292 10.4216 275.217 10.2886 275.084C10.1557 274.951 10.0811 274.771 10.0811 274.583V244.245C10.0811 244.057 10.1557 243.877 10.2886 243.744C10.4216 243.612 10.6018 243.537 10.7898 243.537H72.1676C72.3555 243.537 72.5358 243.612 72.6687 243.744C72.8016 243.877 72.8763 244.057 72.8763 244.245V274.583C72.8763 274.771 72.8016 274.951 72.6687 275.084C72.5358 275.217 72.3555 275.292 72.1676 275.292ZM11.5411 273.875H71.4588V244.953H11.4986L11.5411 273.875Z" fill="#F0F0F0"/>
<path d="M262.268 244.245H171.889V274.583H262.268V244.245Z" fill="white"/>
<path d="M262.268 275.292H171.889C171.701 275.292 171.52 275.217 171.388 275.084C171.255 274.951 171.18 274.771 171.18 274.583V244.245C171.18 244.057 171.255 243.877 171.388 243.744C171.52 243.612 171.701 243.537 171.889 243.537H262.268C262.456 243.537 262.637 243.612 262.77 243.744C262.903 243.877 262.977 244.057 262.977 244.245V274.583C262.977 274.771 262.903 274.951 262.77 275.084C262.637 275.217 262.456 275.292 262.268 275.292ZM172.597 273.875H261.56V244.953H172.597V273.875Z" fill="#F0F0F0"/>
<path d="M416.549 244.245H353.598V274.583H416.549V244.245Z" fill="white"/>
<path d="M416.62 275.292H353.598C353.41 275.292 353.23 275.217 353.097 275.084C352.964 274.951 352.889 274.771 352.889 274.583V244.245C352.889 244.057 352.964 243.877 353.097 243.744C353.23 243.612 353.41 243.537 353.598 243.537H416.62C416.808 243.537 416.988 243.612 417.121 243.744C417.254 243.877 417.329 244.057 417.329 244.245V274.583C417.329 274.771 417.254 274.951 417.121 275.084C416.988 275.217 416.808 275.292 416.62 275.292ZM354.378 273.875H415.911V244.953H354.25L354.378 273.875Z" fill="#F0F0F0"/>
<path d="M141.994 278.918H51.6138V309.256H141.994V278.918Z" fill="white"/>
<path d="M141.979 309.964H51.6138C51.4258 309.964 51.2455 309.889 51.1126 309.757C50.9797 309.624 50.905 309.444 50.905 309.256V278.918C50.905 278.73 50.9797 278.55 51.1126 278.417C51.2455 278.284 51.4258 278.209 51.6138 278.209H141.979C142.167 278.209 142.348 278.284 142.481 278.417C142.613 278.55 142.688 278.73 142.688 278.918V309.256C142.688 309.444 142.613 309.624 142.481 309.757C142.348 309.889 142.167 309.964 141.979 309.964ZM52.3225 308.548H141.271V279.626H52.3225V308.548Z" fill="#F0F0F0"/>
<path d="M236.342 278.918H145.962V309.256H236.342V278.918Z" fill="white"/>
<path d="M236.342 309.964H145.962C145.774 309.964 145.594 309.889 145.461 309.757C145.328 309.624 145.254 309.444 145.254 309.256V278.918C145.254 278.73 145.328 278.55 145.461 278.417C145.594 278.284 145.774 278.209 145.962 278.209H236.342C236.53 278.209 236.71 278.284 236.843 278.417C236.976 278.55 237.051 278.73 237.051 278.918V309.256C237.051 309.444 236.976 309.624 236.843 309.757C236.71 309.889 236.53 309.964 236.342 309.964ZM146.671 308.548H235.633V279.626H146.671V308.548Z" fill="#F0F0F0"/>
<path d="M330.691 278.918H240.311V309.256H330.691V278.918Z" fill="white"/>
<path d="M330.691 309.964H240.311C240.123 309.964 239.943 309.889 239.81 309.757C239.677 309.624 239.603 309.444 239.603 309.256V278.918C239.606 278.731 239.682 278.553 239.814 278.421C239.946 278.289 240.124 278.213 240.311 278.209H330.691C330.879 278.209 331.059 278.284 331.192 278.417C331.325 278.55 331.4 278.73 331.4 278.918V309.256C331.4 309.444 331.325 309.624 331.192 309.757C331.059 309.889 330.879 309.964 330.691 309.964ZM241.02 308.548H329.982V279.626H241.02V308.548Z" fill="#F0F0F0"/>
<path d="M398.788 278.918H334.674V309.256H398.788V278.918Z" fill="white"/>
<path d="M398.788 309.964H334.674C334.486 309.964 334.306 309.889 334.173 309.757C334.04 309.624 333.966 309.444 333.966 309.256V278.918C333.966 278.73 334.04 278.55 334.173 278.417C334.306 278.284 334.486 278.209 334.674 278.209H398.788C398.975 278.213 399.153 278.289 399.285 278.421C399.417 278.553 399.493 278.731 399.497 278.918V309.256C399.497 309.444 399.422 309.624 399.289 309.757C399.156 309.889 398.976 309.964 398.788 309.964ZM335.383 308.548H398.079V279.626H335.383V308.548Z" fill="#F0F0F0"/>
<path d="M378.949 169.599L309.948 111.274L290.338 134.436L359.339 192.761L378.949 169.599Z" fill="white"/>
<path d="M359.367 193.384C359.216 193.383 359.07 193.328 358.956 193.228L289.952 134.917C289.886 134.862 289.831 134.795 289.791 134.719C289.751 134.643 289.726 134.56 289.718 134.474C289.71 134.388 289.719 134.302 289.745 134.22C289.77 134.138 289.812 134.062 289.867 133.996L309.485 110.839C309.539 110.772 309.605 110.718 309.681 110.679C309.757 110.64 309.84 110.617 309.925 110.612C310.008 110.603 310.093 110.611 310.173 110.635C310.253 110.659 310.328 110.7 310.392 110.754L379.396 169.079C379.526 169.189 379.608 169.346 379.624 169.515C379.64 169.684 379.588 169.853 379.481 169.986L359.92 193.157C359.808 193.286 359.651 193.367 359.48 193.384H359.367ZM291.327 134.336L359.367 191.826L378.135 169.646L310.052 112.184L291.327 134.336Z" fill="#231F20"/>
<path d="M161.754 313.604H71.3738V343.942H161.754V313.604Z" fill="white"/>
<path d="M161.753 344.651H71.3735C71.1856 344.651 71.0053 344.576 70.8724 344.443C70.7395 344.31 70.6648 344.13 70.6648 343.942V313.604C70.6648 313.416 70.7395 313.236 70.8724 313.103C71.0053 312.971 71.1856 312.896 71.3735 312.896H161.753C161.941 312.896 162.122 312.971 162.255 313.103C162.387 313.236 162.462 313.416 162.462 313.604V343.942C162.458 344.129 162.383 344.307 162.25 344.439C162.118 344.571 161.94 344.647 161.753 344.651ZM72.0823 343.234H161.045V314.312H72.0823V343.234Z" fill="#F0F0F0"/>
<path d="M256.102 313.604H165.722V343.942H256.102V313.604Z" fill="white"/>
<path d="M256.102 344.651H165.722C165.536 344.647 165.357 344.571 165.225 344.439C165.093 344.307 165.017 344.129 165.014 343.942V313.604C165.014 313.416 165.088 313.236 165.221 313.103C165.354 312.971 165.534 312.896 165.722 312.896H256.102C256.29 312.896 256.47 312.971 256.603 313.103C256.736 313.236 256.811 313.416 256.811 313.604V343.942C256.811 344.13 256.736 344.31 256.603 344.443C256.47 344.576 256.29 344.651 256.102 344.651ZM166.431 343.234H255.393V314.312H166.431V343.234Z" fill="#F0F0F0"/>
<path d="M350.465 313.604H260.085V343.942H350.465V313.604Z" fill="white"/>
<path d="M350.465 344.651H260.085C259.897 344.651 259.717 344.576 259.584 344.443C259.451 344.31 259.377 344.13 259.377 343.942V313.604C259.377 313.416 259.451 313.236 259.584 313.103C259.717 312.971 259.897 312.896 260.085 312.896H350.465C350.653 312.896 350.834 312.971 350.966 313.103C351.099 313.236 351.174 313.416 351.174 313.604V343.942C351.17 344.129 351.095 344.307 350.962 344.439C350.83 344.571 350.652 344.647 350.465 344.651ZM260.794 343.234H349.756V314.312H260.794V343.234Z" fill="#F0F0F0"/>
<path d="M331.924 133.911C331.797 134.322 331.669 134.747 331.527 135.157C330.322 138.585 327.913 141.899 328.621 145.454C329.042 147.084 329.855 148.586 330.989 149.831C335.907 155.907 343.179 160.553 351.316 159.405C355.044 158.881 358.687 156.318 359.438 152.635C360.118 149.321 358.417 146.007 356.489 143.231C352.471 137.773 347.559 133.032 341.96 129.209C340.287 128.033 338.26 126.914 336.29 127.452C335.542 127.719 334.861 128.145 334.293 128.7C333.725 129.255 333.285 129.926 333.002 130.668C332.556 131.718 332.196 132.803 331.924 133.911Z" fill="white"/>
<path d="M348.878 160.227C342.286 160.227 335.695 156.686 330.45 150.312C329.256 148.977 328.4 147.374 327.955 145.638C327.403 142.891 328.579 140.313 329.699 137.834C330.124 136.914 330.564 135.951 330.89 135.002C331.031 134.605 331.145 134.194 331.272 133.783L331.414 133.288C331.663 132.32 331.985 131.373 332.378 130.455C332.707 129.63 333.208 128.885 333.849 128.269C334.489 127.654 335.254 127.182 336.092 126.886C338.388 126.263 340.614 127.552 342.3 128.741C347.954 132.613 352.922 137.4 357 142.905C358.673 145.341 360.827 149.009 360.048 152.819C359.268 156.629 355.724 159.49 351.387 160.099C350.555 160.203 349.716 160.246 348.878 160.227ZM337.353 127.962C337.052 127.965 336.753 128.003 336.46 128.076C335.815 128.322 335.229 128.702 334.741 129.19C334.252 129.678 333.872 130.264 333.625 130.908C333.256 131.775 332.957 132.67 332.732 133.585L332.576 134.067C332.463 134.506 332.321 134.945 332.18 135.37C331.825 136.347 331.386 137.339 330.96 138.287C329.869 140.681 328.834 142.961 329.302 145.369C329.708 146.891 330.471 148.294 331.527 149.463C337.127 156.374 344.285 159.788 351.273 158.81C354.392 158.371 358.091 156.219 358.843 152.55C359.523 149.236 357.539 145.879 356.008 143.641C352.028 138.251 347.169 133.568 341.634 129.789C340.425 128.762 338.932 128.125 337.353 127.962Z" fill="#231F20"/>
</svg>
