<svg width="24" height="24" viewBox="0 0 24 24" fill="none" xmlns="http://www.w3.org/2000/svg">
<g clip-path="url(#clip0_112_803)">
<path d="M17.3219 9.1196L16.1907 7.9884L14.3167 8.6832L13.6451 10.534L14.7763 11.6652L16.7667 10.8832L17.3219 9.1196Z" fill="#707070"/>
<path d="M11.0996 2.8972L12.2308 4.0284L11.9128 5.9168L9.68515 6.574L8.55396 5.4428L9.26675 3.5332L11.0996 2.8972Z" fill="#707070"/>
<path d="M12.232 7.7V10.252L7.14004 15.344L6.57604 15.908L5.72404 16.756L5.16004 17.324L4.31204 18.172L3.74404 18.736L2.89604 19.584C2.74599 19.7342 2.54237 19.8186 2.33004 19.8186C2.11772 19.8186 1.9141 19.7342 1.76404 19.584L0.980043 18.8C0.976043 18.792 0.968043 18.788 0.964043 18.784L0.636043 18.452C0.484465 18.3035 0.399048 18.1002 0.399048 17.888C0.399048 17.6758 0.484465 17.4725 0.636043 17.324L9.96804 7.988L11.432 7.8L12.232 7.7Z" fill="#F57C00"/>
<path d="M11.432 7.8V9.452L6.34004 14.544L5.77604 15.108L4.92404 15.956L4.36004 16.524L3.51204 17.372L2.94404 17.936L2.09604 18.784C1.78981 19.0908 1.29494 19.0979 0.980043 18.8C0.976043 18.792 0.968043 18.788 0.964043 18.784L0.636043 18.452C0.484465 18.3035 0.399048 18.1002 0.399048 17.888C0.399048 17.6758 0.484465 17.4725 0.636043 17.324L9.96804 7.988L11.432 7.8Z" fill="#FF9801"/>
<path d="M13.6452 10.534L12.2308 10.2508L9.96798 7.9884L9.68518 6.574L12.2308 4.0284L13.4076 4.2636C13.5624 4.29471 13.7046 4.37082 13.8164 4.4824L15.7364 6.4024C15.8482 6.51395 15.9244 6.65624 15.9552 6.8112L16.1908 7.988L13.6452 10.534Z" fill="#545C60"/>
<path d="M19.584 10.816L16.472 13.928C16.3225 14.0778 16.1196 14.162 15.908 14.162C15.6964 14.162 15.4935 14.0778 15.344 13.928L14.776 13.364C14.7346 13.3247 14.6983 13.2804 14.668 13.232C14.668 13.228 14.668 13.228 14.664 13.228C14.3085 12.751 14.3561 12.0855 14.776 11.664L17.324 9.11999C17.7447 8.69846 18.4115 8.65071 18.888 9.008V9.012C18.9364 9.04231 18.9807 9.0786 19.02 9.11999L19.584 9.68399C19.7342 9.83405 19.8186 10.0377 19.8186 10.25C19.8186 10.4623 19.7342 10.6659 19.584 10.816Z" fill="#707070"/>
<path d="M18.784 10.016L15.672 13.128C15.4042 13.3961 14.9851 13.4395 14.668 13.232C14.668 13.228 14.668 13.228 14.664 13.228C14.3085 12.751 14.3561 12.0855 14.776 11.664L17.324 9.11999C17.7447 8.69846 18.4115 8.65071 18.888 9.008V9.012C19.0955 9.32906 19.0521 9.74819 18.784 10.016Z" fill="#9E9E9E"/>
<path d="M11.1 2.896L8.55203 5.444C8.08352 5.91192 7.32454 5.91192 6.85603 5.444L6.29203 4.876C6.25924 4.84186 6.22852 4.80579 6.20003 4.768C5.97927 4.44927 6.01799 4.01828 6.29203 3.744L9.40403 0.635998C9.6758 0.360058 10.1073 0.321141 10.424 0.543998C10.4618 0.572491 10.4979 0.603212 10.532 0.635998L11.1 1.2C11.568 1.66851 11.568 2.42749 11.1 2.896Z" fill="#707070"/>
<path d="M10.3 2.096L7.75203 4.644C7.33535 5.06087 6.67761 5.11343 6.20003 4.768C5.97927 4.44927 6.01799 4.01828 6.29203 3.744L9.40403 0.635998C9.6758 0.360058 10.1073 0.321141 10.424 0.543998C10.7695 1.02158 10.7169 1.67932 10.3 2.096Z" fill="#9E9E9E"/>
<path d="M23.6 16.4V17.2C23.6 17.4209 23.4209 17.6 23.2 17.6H22C20.676 17.6 19.2 18.676 19.2 20V21.2C19.2013 21.6413 19.5587 21.9987 20 22C20.4245 21.9995 20.8317 22.1679 21.1319 22.468C21.4321 22.7682 21.6005 23.1755 21.6 23.6H11.2C11.1994 23.1755 11.3678 22.7682 11.668 22.468C11.9682 22.1679 12.3754 21.9995 12.8 22C13.2404 21.9967 13.5967 21.6405 13.6 21.2V20.756C13.603 20.3549 13.3058 20.0148 12.908 19.964C9.19995 19.568 9.19995 16 9.19995 16H23.2C23.4209 16 23.6 16.1791 23.6 16.4Z" fill="#37474F"/>
<path d="M22.4 16.4V17.2C22.4 17.4209 22.2209 17.6 22 17.6H20.8C19.476 17.6 18 18.676 18 20V21.2C18.0013 21.6413 18.3587 21.9987 18.8 22C19.2245 21.9995 19.6317 22.1679 19.9319 22.468C20.2321 22.7682 20.4005 23.1755 20.4 23.6H11.2C11.1994 23.1755 11.3678 22.7682 11.668 22.468C11.9682 22.1679 12.3754 21.9995 12.8 22C13.2404 21.9967 13.5967 21.6405 13.6 21.2V20.756C13.603 20.3549 13.3058 20.0148 12.908 19.964C9.19995 19.568 9.19995 16 9.19995 16H22C22.2209 16 22.4 16.1791 22.4 16.4Z" fill="#545C60"/>
<path d="M16.4 20.4C17.0627 20.4 17.6 20.9373 17.6 21.6V23.6H15.2V21.6C15.2 20.9373 15.7372 20.4 16.4 20.4Z" fill="#607D8B"/>
<path d="M2.33119 20.2184C2.01298 20.219 1.70766 20.0927 1.48279 19.8676L0.351588 18.736C-0.11687 18.2674 -0.11687 17.5078 0.351588 17.0392L9.68519 7.7056C9.84139 7.54945 10.0946 7.54945 10.2508 7.7056L12.5136 9.968C12.6697 10.1242 12.6697 10.3774 12.5136 10.5336L3.17999 19.8676C2.95502 20.0928 2.64953 20.2191 2.33119 20.2184ZM2.04839 19.302C2.12341 19.3771 2.22522 19.4193 2.33139 19.4193C2.43755 19.4193 2.53936 19.3771 2.61439 19.302L11.6652 10.2508L9.96799 8.554L0.917188 17.6048C0.761035 17.761 0.761035 18.0142 0.917188 18.1704L2.04839 19.302Z" fill="black"/>
<path d="M13.6451 10.9336C13.6183 10.9338 13.5915 10.9312 13.5651 10.926L12.1507 10.6432C12.0733 10.6277 12.0021 10.5895 11.9463 10.5336L9.68353 8.2712C9.62795 8.21519 9.58999 8.14413 9.57433 8.0668L9.29153 6.6524C9.26571 6.5217 9.30665 6.38672 9.40073 6.2924L11.9479 3.7456C12.0418 3.65082 12.1772 3.60976 12.3079 3.6364L13.4847 3.8716C13.7172 3.91766 13.9307 4.032 14.0979 4.2L16.0179 6.12C16.1858 6.28726 16.3002 6.50073 16.3463 6.7332L16.5815 7.9096C16.6073 8.04029 16.5664 8.17527 16.4723 8.2696L13.9279 10.8168C13.8529 10.8917 13.7511 10.9337 13.6451 10.9336ZM12.4279 9.8824L13.5135 10.0996L15.7563 7.8568L15.5631 6.89C15.5476 6.81253 15.5094 6.74141 15.4535 6.6856L13.5335 4.7656C13.4777 4.70945 13.4064 4.67128 13.3287 4.656L12.3623 4.4628L10.1199 6.7056L10.3371 7.7912L12.4279 9.8824Z" fill="black"/>
<path d="M14.7764 12.0652C14.6704 12.0652 14.5686 12.023 14.4936 11.948L13.3624 10.8168C13.2873 10.7418 13.2451 10.64 13.2451 10.5338C13.2451 10.4276 13.2873 10.3258 13.3624 10.2508L15.908 7.7056C16.0642 7.54945 16.3174 7.54945 16.4736 7.7056L17.6048 8.8368C17.7502 8.9945 17.7453 9.23878 17.5938 9.39054C17.4422 9.5423 17.1979 9.54753 17.04 9.4024L16.1916 8.554L14.2116 10.5336L15.06 11.3824C15.1744 11.4968 15.2086 11.6688 15.1467 11.8183C15.0848 11.9677 14.939 12.0652 14.7772 12.0652H14.7764Z" fill="black"/>
<path d="M15.908 14.5624C15.5894 14.5633 15.2837 14.4367 15.0592 14.2108L14.4936 13.6452C14.1935 13.3451 14.0249 12.9382 14.0249 12.5138C14.0249 12.0894 14.1935 11.6825 14.4936 11.3824L17.04 8.8368C17.34 8.53672 17.747 8.36814 18.1714 8.36814C18.5957 8.36814 19.0027 8.53672 19.3028 8.8368L19.8684 9.4024C20.0934 9.62745 20.2199 9.9327 20.2199 10.251C20.2199 10.5693 20.0934 10.8746 19.8684 11.0996L16.7572 14.2108C16.5325 14.4368 16.2266 14.5634 15.908 14.5624ZM18.1704 9.1684C17.9582 9.16803 17.7546 9.25224 17.6048 9.4024L15.0592 11.948C14.9091 12.098 14.8247 12.3016 14.8247 12.5138C14.8247 12.726 14.9091 12.9296 15.0592 13.0796L15.6248 13.6452C15.7828 13.7964 16.0319 13.7964 16.19 13.6452L19.3016 10.5336C19.4574 10.3774 19.4574 10.1246 19.3016 9.9684L18.736 9.4024C18.5859 9.25251 18.3825 9.16834 18.1704 9.1684Z" fill="black"/>
<path d="M9.68521 6.974C9.57913 6.97398 9.47741 6.93182 9.40241 6.8568L8.27121 5.7252C8.16483 5.6253 8.12129 5.47539 8.15762 5.33404C8.19395 5.1927 8.30437 5.08236 8.44574 5.04613C8.58711 5.00991 8.73698 5.05354 8.83681 5.16L9.68521 6.0088L11.6652 4.0288L10.8168 3.18C10.6652 3.02305 10.6674 2.77356 10.8217 2.61927C10.976 2.46498 11.2255 2.46281 11.3824 2.6144L12.5136 3.7456C12.6698 3.9018 12.6698 4.155 12.5136 4.3112L9.96801 6.8568C9.89301 6.93182 9.79129 6.97398 9.68521 6.974Z" fill="black"/>
<path d="M7.70525 6.194C7.28068 6.19519 6.87331 6.02637 6.57405 5.7252L6.00845 5.16C5.53999 4.6914 5.53999 3.9318 6.00845 3.4632L9.12005 0.351599C9.59484 -0.102042 10.3425 -0.102042 10.8172 0.351599L11.3828 0.917199C11.6829 1.21726 11.8515 1.62424 11.8515 2.0486C11.8515 2.47296 11.6829 2.87994 11.3828 3.18L8.83725 5.7252C8.53774 6.02649 8.13007 6.19532 7.70525 6.194ZM9.96805 0.799999C9.86191 0.799711 9.76007 0.841916 9.68525 0.917199L6.57405 4.0284C6.4179 4.1846 6.4179 4.4378 6.57405 4.594L7.13965 5.16C7.45617 5.46258 7.95473 5.46258 8.27125 5.16L10.8168 2.6148C10.9669 2.46476 11.0513 2.26123 11.0513 2.049C11.0513 1.83677 10.9669 1.63324 10.8168 1.4832L10.2508 0.917199C10.1761 0.84184 10.0742 0.799622 9.96805 0.799999Z" fill="black"/>
<path d="M4.02841 18.8532C3.92233 18.8532 3.8206 18.811 3.74561 18.736L2.61441 17.6048C2.46928 17.4469 2.47451 17.2026 2.62627 17.0511C2.77803 16.8995 3.02231 16.8946 3.18001 17.04L4.31121 18.1712C4.42557 18.2856 4.45978 18.4576 4.39788 18.6071C4.33598 18.7565 4.19017 18.854 4.02841 18.854V18.8532Z" fill="black"/>
<path d="M5.44234 17.44C5.33626 17.44 5.23453 17.3978 5.15954 17.3228L4.31114 16.4744C4.15955 16.3175 4.16172 16.068 4.31601 15.9137C4.4703 15.7594 4.71979 15.7572 4.87674 15.9088L5.72514 16.7572C5.8395 16.8716 5.87371 17.0436 5.81181 17.1931C5.74991 17.3425 5.6041 17.44 5.44234 17.44Z" fill="black"/>
<path d="M6.8568 16.0248C6.75078 16.0249 6.64906 15.9829 6.574 15.908L5.4424 14.7764C5.28621 14.6201 5.2863 14.3668 5.4426 14.2106C5.59889 14.0544 5.85221 14.0545 6.0084 14.2108L7.1396 15.342C7.25396 15.4564 7.28817 15.6284 7.22627 15.7779C7.16437 15.9273 7.01856 16.0248 6.8568 16.0248Z" fill="black"/>
<path d="M19.2 20.4C18.979 20.4 18.8 20.2209 18.8 20C18.8 18.3976 20.4896 17.2 22 17.2H23.2V16.4H13.6C13.379 16.4 13.2 16.2209 13.2 16C13.2 15.7791 13.379 15.6 13.6 15.6H23.2C23.6418 15.6 24 15.9582 24 16.4V17.2C24 17.6418 23.6418 18 23.2 18H22C20.9128 18 19.6 18.892 19.6 20C19.6 20.2209 19.4209 20.4 19.2 20.4Z" fill="black"/>
<path d="M21.6 24H11.2C10.9791 24 10.8 23.8209 10.8 23.6C10.7995 23.0694 11.0101 22.5604 11.3852 22.1852C11.7604 21.81 12.2695 21.5995 12.8 21.6C12.9061 21.6 13.0079 21.5579 13.0829 21.4828C13.1579 21.4078 13.2 21.3061 13.2 21.2V20.76C13.2036 20.5623 13.0597 20.3927 12.864 20.364C8.84645 19.9324 8.80005 16.04 8.80005 16C8.80005 15.7791 8.97913 15.6 9.20005 15.6H13.6C13.821 15.6 14 15.7791 14 16C14 16.2209 13.821 16.4 13.6 16.4H9.63405C9.80757 18.1284 11.2147 19.4726 12.9492 19.5668C13.5537 19.6361 14.0077 20.1516 14 20.76V21.2C14 21.8627 13.4628 22.4 12.8 22.4C12.291 22.3987 11.837 22.7197 11.6684 23.2H21.1316C20.9615 22.7209 20.5084 22.4006 20 22.4C19.3373 22.4 18.8 21.8627 18.8 21.2V20C18.8 19.7791 18.9791 19.6 19.2 19.6C19.421 19.6 19.6 19.7791 19.6 20V21.2C19.6 21.4209 19.7791 21.6 20 21.6C21.1041 21.6013 21.9987 22.496 22 23.6C22 23.8209 21.821 24 21.6 24Z" fill="black"/>
<path d="M17.6 24H15.2C14.9791 24 14.8 23.8209 14.8 23.6V21.6C14.8 20.7163 15.5164 20 16.4 20C17.2837 20 18 20.7163 18 21.6V23.6C18 23.8209 17.821 24 17.6 24ZM15.6 23.2H17.2V21.6C17.2 21.1582 16.8419 20.8 16.4 20.8C15.9582 20.8 15.6 21.1582 15.6 21.6V23.2Z" fill="black"/>
<path d="M12 18H11.2C10.9791 18 10.8 17.8209 10.8 17.6C10.8 17.3791 10.9791 17.2 11.2 17.2H12C12.221 17.2 12.4 17.3791 12.4 17.6C12.4 17.8209 12.221 18 12 18Z" fill="black"/>
<path d="M18.8 18H13.6C13.379 18 13.2 17.8209 13.2 17.6C13.2 17.3791 13.379 17.2 13.6 17.2H18.8C19.0209 17.2 19.2 17.3791 19.2 17.6C19.2 17.8209 19.0209 18 18.8 18Z" fill="black"/>
<path d="M20 14.8C19.8939 14.7994 19.7922 14.7578 19.716 14.684C19.5613 14.5263 19.5613 14.2737 19.716 14.116L19.7756 14.068C19.7981 14.0529 19.8224 14.0408 19.848 14.032C19.8718 14.0198 19.8975 14.0117 19.924 14.008C20.0544 13.9838 20.1885 14.024 20.284 14.116C20.3994 14.2304 20.4341 14.4033 20.3717 14.5534C20.3094 14.7035 20.1625 14.8009 20 14.8Z" fill="black"/>
<path d="M21.2 13.2L22.2 12.2L21.2 13.2Z" fill="black"/>
<path d="M21.2 13.6C21.0382 13.6 20.8924 13.5025 20.8305 13.3531C20.7686 13.2036 20.8028 13.0316 20.9172 12.9172L21.9172 11.9172C22.0741 11.7656 22.3236 11.7678 22.4779 11.9221C22.6322 12.0764 22.6344 12.3259 22.4828 12.4828L21.4828 13.4828C21.4078 13.5578 21.3061 13.6 21.2 13.6Z" fill="black"/>
<path d="M23.1128 14.8H21.6988C21.4779 14.8 21.2988 14.6209 21.2988 14.4C21.2988 14.1791 21.4779 14 21.6988 14H23.1128C23.3337 14 23.5128 14.1791 23.5128 14.4C23.5128 14.6209 23.3337 14.8 23.1128 14.8Z" fill="black"/>
<path d="M13.1128 14.8C13.2188 14.7994 13.3206 14.7578 13.3968 14.684C13.5515 14.5263 13.5515 14.2737 13.3968 14.116L13.3372 14.068C13.3147 14.0528 13.2904 14.0407 13.2648 14.032C13.2411 14.0199 13.2155 14.0118 13.1892 14.008C13.0588 13.9838 12.9247 14.0241 12.8292 14.116C12.7138 14.2304 12.6791 14.4033 12.7414 14.5534C12.8037 14.7035 12.9506 14.8009 13.1132 14.8H13.1128Z" fill="black"/>
<path d="M11.9128 13.2L11.5128 12.8L11.9128 13.2Z" fill="black"/>
<path d="M11.9128 13.6C11.8067 13.6 11.705 13.5578 11.63 13.4828L11.23 13.0828C11.0784 12.9258 11.0805 12.6764 11.2348 12.5221C11.3891 12.3678 11.6386 12.3656 11.7956 12.5172L12.1956 12.9172C12.3099 13.0316 12.3441 13.2036 12.2822 13.3531C12.2203 13.5025 12.0745 13.6 11.9128 13.6Z" fill="black"/>
<path d="M11.4144 14.8H9.99998C9.77906 14.8 9.59998 14.6209 9.59998 14.4C9.59998 14.1791 9.77906 14 9.99998 14H11.4144C11.6353 14 11.8144 14.1791 11.8144 14.4C11.8144 14.6209 11.6353 14.8 11.4144 14.8Z" fill="black"/>
</g>
<defs>
<clipPath id="clip0_112_803">
<rect width="24" height="24" fill="white"/>
</clipPath>
</defs>
</svg>
