<svg width="24" height="24" viewBox="0 0 24 24" fill="none" xmlns="http://www.w3.org/2000/svg">
<g clip-path="url(#clip0_112_460)">
<path d="M21 18H23.25V19.5H21V18Z" fill="#F0D0B4"/>
<path d="M21 12.9187C22.3125 13.7175 23.25 14.9287 23.25 16.125V18H21V15V13.5V12.9187Z" fill="#B4DD7F"/>
<path d="M13.5 12C13.5 12 14.25 13.125 15.75 13.125C17.25 13.125 18 12 18 12V12.8588C18 13.0763 17.9625 13.2788 17.8912 13.4625C17.6662 14.07 17.1112 14.4825 16.5 14.625V15V19.5H15V15V14.625C14.3888 14.4825 13.8338 14.07 13.6088 13.4625C13.5375 13.2788 13.5 13.0763 13.5 12.8588V12Z" fill="#B4DD7F"/>
<path d="M10.5 15V18.75L10.4513 18.7987L9.56625 17.9175C9.33 17.6812 9.04125 17.4187 8.73 17.2987C8.58 17.2425 8.415 17.2387 8.25375 17.2762L8.25 17.25C8.64 16.2675 8.835 15.1725 8.925 14.2425L9 14.25C9.39 13.7587 9.9075 13.3087 10.5 12.9412V13.5V15Z" fill="#B4DD7F"/>
<path d="M13.5 12.8588C13.5 13.0763 13.5375 13.2788 13.6088 13.4625L13.5 13.5H10.5V12.9412C11.385 12.3937 12.4425 12.03 13.5 12V12.8588Z" fill="#E6E9ED"/>
<path d="M10.5 18.75V15H15V19.5H11.25L11.2388 19.515C11.0888 19.4138 10.9463 19.2937 10.815 19.1625L10.4513 18.7988L10.5 18.75Z" fill="#E6E9ED"/>
<path d="M21 18V19.5H16.5V15H21V18Z" fill="#E6E9ED"/>
<path d="M18 12C19.0575 12.03 20.115 12.3788 21 12.9188V13.5H18L17.8912 13.4625C17.9625 13.2788 18 13.0763 18 12.8588V12Z" fill="#E6E9ED"/>
<path d="M15 15H10.5V13.5H13.5L13.6088 13.4625C13.8338 14.07 14.3888 14.4825 15 14.625V15Z" fill="#FF826E"/>
<path d="M16.5 14.625C17.1112 14.4825 17.6662 14.07 17.8912 13.4625L18 13.5H21V15H16.5V14.625Z" fill="#FF826E"/>
<path d="M14.25 21.75L15 23.25H0.75V22.2375C0.75 21.8175 1.09125 21.4763 1.51125 21.4763H1.635C1.99125 21.4763 2.29875 21.2213 2.37 20.8725L2.445 20.4975C2.5275 20.0813 2.71125 19.6725 3.01125 19.3875C3.045 19.35 3.0825 19.32 3.12 19.29C3.255 19.1813 3.4275 19.125 3.60375 19.125H3.61125C3.70125 19.125 3.795 19.1063 3.87 19.0538C4.06875 18.9075 4.22625 18.6825 4.35 18.4763L4.75875 17.7975C5.04 17.3213 5.62875 17.1263 6.13875 17.3288L6.81375 17.5988C6.94875 17.655 7.11375 17.6663 7.27125 17.6513C7.35 17.6513 7.42875 17.64 7.5 17.625L8.04375 17.355C8.11125 17.3213 8.1825 17.295 8.25375 17.2763C8.415 17.2388 8.58 17.2425 8.73 17.2988C9.04125 17.4188 9.33 17.6813 9.56625 17.9175L10.4513 18.7988L10.815 19.1625C10.9462 19.2938 11.0887 19.4138 11.2387 19.515C11.3625 19.6013 11.4937 19.68 11.6287 19.7438C11.7563 19.8038 11.8988 19.8375 12.0413 19.8488L12.375 19.875C13.0913 19.9388 14.0212 21.0675 14.25 21.75Z" fill="#D3A06C"/>
<path d="M3.87 19.0537C3.795 19.1062 3.70125 19.125 3.61125 19.125H3.60375C3.4275 19.125 3.255 19.1812 3.12 19.29L3 19.125C0.9375 17.0475 0.75 12.0375 0.75 12.0375H3.3825L4.125 15.375H5.625L6.3675 12.0375H9C9 12.0375 9.0525 12.9937 8.925 14.2425C8.835 15.1725 8.64 16.2675 8.25 17.25L8.25375 17.2762C8.1825 17.295 8.11125 17.3212 8.04375 17.355L7.5 17.625C7.42875 17.64 7.35 17.6512 7.27125 17.6512C7.11375 17.6662 6.94875 17.655 6.81375 17.5987L6.13875 17.3287C5.62875 17.1262 5.04 17.3212 4.75875 17.7975L4.35 18.4762C4.22625 18.6825 4.06875 18.9075 3.87 19.0537Z" fill="#CCD1D9"/>
<path d="M3.38245 12.0375H4.12495H5.62495H6.36745L5.62495 15.375H4.12495L3.38245 12.0375Z" fill="#FCD770"/>
<path d="M5.25 6H4.125V7.875V12V12.0375H5.625V12V7.875V6H5.25Z" fill="#AAB2BD"/>
<path d="M7.875 3.75V5.4975L5.625 7.875V6V5.625L6.375 4.875V4.125C6.375 3.91875 6.20625 3.75 6 3.75H3.75C3.54375 3.75 3.375 3.91875 3.375 4.125V4.875L4.125 5.655V6V7.875L1.875 5.47875V3.75C1.875 2.92125 2.54625 2.25 3.375 2.25H6.375C7.20375 2.25 7.875 2.92125 7.875 3.75Z" fill="#838F9B"/>
<path d="M17.625 10.875L18 12C18 12 17.25 13.125 15.75 13.125C14.25 13.125 13.5 12 13.5 12L13.875 10.875L13.9088 10.8112C14.4525 11.0925 15.0825 11.25 15.75 11.25C16.4175 11.25 17.0475 11.0925 17.5912 10.8112L17.625 10.875Z" fill="#F0D0B4"/>
<path d="M20.9999 7.5C20.9999 8.1225 20.5799 8.625 20.0624 8.625H19.4999L19.4137 8.6025C19.4699 8.37 19.4999 8.12625 19.4999 7.875V6.375H20.0624C20.5799 6.375 20.9999 6.8775 20.9999 7.5Z" fill="#F0D0B4"/>
<path d="M18.375 7.125C18.375 6.91875 18.2063 6.75 18 6.75C17.7937 6.75 17.625 6.91875 17.625 7.125C17.625 7.33125 17.7937 7.5 18 7.5C18.2063 7.5 18.375 7.33125 18.375 7.125ZM13.5 6.75C13.2938 6.75 13.125 6.91875 13.125 7.125C13.125 7.33125 13.2938 7.5 13.5 7.5C13.7062 7.5 13.875 7.33125 13.875 7.125C13.875 6.91875 13.7062 6.75 13.5 6.75ZM12 5.625H19.5V6.375V7.875C19.5 8.12625 19.47 8.37 19.4138 8.6025C19.1813 9.55125 18.5062 10.35 17.5912 10.8112C17.0475 11.0925 16.4175 11.25 15.75 11.25C15.0825 11.25 14.4525 11.0925 13.9088 10.8112C12.9938 10.35 12.3187 9.55125 12.0862 8.6025C12.03 8.37 12 8.12625 12 7.875V6.375V5.625Z" fill="#F0D0B4"/>
<path d="M12 7.875C12 8.12625 12.03 8.37 12.0862 8.6025L12 8.625H11.4375C10.92 8.625 10.5 8.1225 10.5 7.5C10.5 6.8775 10.92 6.375 11.4375 6.375H12V7.875Z" fill="#F0D0B4"/>
<path d="M15 0.794998V4.125H13.125V3.375C13.125 2.9625 12.7875 2.625 12.375 2.625H11.7375C12.345 1.71 13.5038 0.978748 15 0.794998Z" fill="#FFEAA7"/>
<path d="M19.7625 2.625H19.125C18.7125 2.625 18.375 2.9625 18.375 3.375V4.125H16.5V0.794998C17.9963 0.978748 19.155 1.71 19.7625 2.625Z" fill="#FFEAA7"/>
<path d="M20.25 4.125H18.375V3.375C18.375 2.9625 18.7125 2.625 19.125 2.625H19.7625C20.0775 3.09375 20.25 3.6075 20.25 4.125Z" fill="#FCD770"/>
<path d="M21 4.125V5.625H19.5H12H10.5V4.125H11.25H13.125H15H16.5H18.375H20.25H21Z" fill="#FCD770"/>
<path d="M16.5 0.795V4.125H15V0.795C15.2437 0.765 15.4913 0.75 15.75 0.75C16.0087 0.75 16.2563 0.765 16.5 0.795Z" fill="#FCD770"/>
<path d="M13.125 3.375V4.125H11.25C11.25 3.6075 11.4225 3.09375 11.7375 2.625H12.375C12.7875 2.625 13.125 2.9625 13.125 3.375Z" fill="#FCD770"/>
<path d="M3.375 21.375H4.125V22.125H3.375V21.375Z" fill="black"/>
<path d="M4.875 19.125H5.625V19.875H4.875V19.125Z" fill="black"/>
<path d="M7.875 18.375H8.625V19.125H7.875V18.375Z" fill="black"/>
<path d="M6.375 20.625H7.125V21.375H6.375V20.625Z" fill="black"/>
<path d="M10.875 21.375H11.625V22.125H10.875V21.375Z" fill="black"/>
<path d="M9.375 19.875H10.125V20.625H9.375V19.875Z" fill="black"/>
<path d="M15.375 7.5H16.125V8.25H15.375V7.5Z" fill="black"/>
<path d="M16.875 9H16.125C16.125 9.20662 15.9566 9.375 15.75 9.375C15.5434 9.375 15.375 9.20662 15.375 9H14.625C14.625 9.62025 15.1298 10.125 15.75 10.125C16.3702 10.125 16.875 9.62025 16.875 9Z" fill="black"/>
<path d="M18 7.5C18.2071 7.5 18.375 7.33211 18.375 7.125C18.375 6.91789 18.2071 6.75 18 6.75C17.7929 6.75 17.625 6.91789 17.625 7.125C17.625 7.33211 17.7929 7.5 18 7.5Z" fill="black"/>
<path d="M13.5 7.5C13.7071 7.5 13.875 7.33211 13.875 7.125C13.875 6.91789 13.7071 6.75 13.5 6.75C13.2929 6.75 13.125 6.91789 13.125 7.125C13.125 7.33211 13.2929 7.5 13.5 7.5Z" fill="black"/>
<path d="M23.625 16.125C23.625 14.0055 21.0157 11.8538 18.2771 11.6453L18.0562 10.9826C18.8201 10.5128 19.4017 9.816 19.6848 9H20.0625C20.7862 9 21.375 8.32725 21.375 7.5C21.375 6.67275 20.7862 6 20.0625 6H21.375V3.75H20.5965C20.3602 2.06212 18.5531 0.375 15.75 0.375C12.9468 0.375 11.1397 2.06212 10.9035 3.75H10.125V6H11.4375C10.7137 6 10.125 6.67275 10.125 7.5C10.125 8.32725 10.7137 9 11.4375 9H11.8151C12.0982 9.816 12.6798 10.5128 13.4437 10.9826L13.2243 11.6411C11.8511 11.7495 10.4178 12.3817 9.37197 13.3159C9.40347 12.5756 9.37759 12.0656 9.37459 12.0161L9.35397 11.6625H5.99997V8.02425L8.24997 5.64563V3.75C8.24997 2.71613 7.40884 1.875 6.37497 1.875H3.37497C2.34109 1.875 1.49997 2.71613 1.49997 3.75V5.62912L3.74997 8.0235V11.6625H0.360718L0.374968 12.0514C0.382843 12.258 0.585343 17.0445 2.61522 19.2615C2.28972 19.6402 2.14272 20.0933 2.07709 20.424L2.00209 20.7975C1.96609 20.9734 1.81159 21.1012 1.63459 21.1012H1.51122C0.884593 21.1012 0.374968 21.6109 0.374968 22.2375V23.625H15.6067L14.5965 21.6041C14.4225 21.1136 13.89 20.3359 13.2671 19.875H23.625V16.125ZM22.875 16.125V17.625H21.375V13.638C22.2727 14.3392 22.875 15.2441 22.875 16.125ZM18.1177 13.875H20.625V14.625H17.4221C17.7022 14.4356 17.9463 14.1844 18.1177 13.875ZM18.375 12.4012C19.1538 12.4849 19.9211 12.7493 20.5976 13.125H18.3525C18.363 13.0384 18.375 12.9525 18.375 12.8602V12.4012ZM20.625 7.5C20.625 7.9065 20.3673 8.25 20.0625 8.25H19.854C19.8675 8.12663 19.875 8.00175 19.875 7.875V6.75H20.0625C20.3673 6.75 20.625 7.0935 20.625 7.5ZM18 3.375V3.75H16.875V1.24275C17.7288 1.42162 18.4391 1.79437 18.9528 2.26725C18.4143 2.35088 18 2.81363 18 3.375ZM18.75 3.375C18.75 3.16838 18.9183 3 19.125 3H19.5491C19.6905 3.243 19.7857 3.49575 19.8345 3.75H18.75V3.375ZM16.125 1.13963V3.75H15.375V1.13963C15.4983 1.13175 15.6225 1.125 15.75 1.125C15.8775 1.125 16.0016 1.13175 16.125 1.13963ZM12.5471 2.26725C13.0608 1.79437 13.7707 1.42162 14.625 1.24275V3.75H13.5V3.375C13.5 2.81363 13.0856 2.35088 12.5471 2.26725ZM11.9508 3H12.375C12.5816 3 12.75 3.16838 12.75 3.375V3.75H11.6655C11.7142 3.49575 11.8098 3.243 11.9508 3ZM10.875 5.25V4.5H20.625V5.25H10.875ZM11.4375 8.25C11.1326 8.25 10.875 7.9065 10.875 7.5C10.875 7.0935 11.1326 6.75 11.4375 6.75H11.625V7.875C11.625 8.00175 11.6325 8.12663 11.646 8.25H11.4375ZM12.375 7.875V6H19.125V7.875C19.125 9.52913 17.6107 10.875 15.75 10.875C13.8892 10.875 12.375 9.52913 12.375 7.875ZM15.75 11.625C16.3278 11.625 16.878 11.5155 17.3778 11.3194L17.58 11.9261C17.3482 12.1894 16.7388 12.75 15.75 12.75C14.7592 12.75 14.1525 12.1912 13.92 11.9265L14.1221 11.3194C14.622 11.5155 15.1721 11.625 15.75 11.625ZM11.3463 19.125C11.2537 19.0537 11.1622 18.981 11.0797 18.897L10.875 18.693V15.375H14.625V19.125H11.3463ZM10.875 14.625V13.875H13.3822C13.5536 14.1844 13.7977 14.4356 14.0778 14.625H10.875ZM13.1475 13.125H10.929C11.6137 12.7429 12.3753 12.4845 13.125 12.402V12.8602C13.125 12.9525 13.137 13.0384 13.1475 13.125ZM9.29397 14.4825C9.53022 14.184 9.81297 13.9099 10.125 13.662V17.9449L9.83134 17.652C9.56547 17.3861 9.24259 17.0944 8.86084 16.947C8.83084 16.9358 8.79822 16.932 8.76709 16.9237C9.04047 16.1006 9.19497 15.2411 9.28159 14.4728L9.29397 14.4825ZM5.89909 12.4125L5.32422 15H4.42572L3.85047 12.4125H5.89909ZM5.09472 5.625H4.61922L3.74997 4.7235V4.125H5.99997V4.71975L5.09472 5.625ZM4.49997 6.375H5.24997V7.5H4.49997V6.375ZM2.24997 5.33212V3.75C2.24997 3.12975 2.75472 2.625 3.37497 2.625H6.37497C6.99522 2.625 7.49997 3.12975 7.49997 3.75V5.34713L5.99997 6.933V5.78025L6.74997 5.03025V4.125C6.74997 3.71137 6.41359 3.375 5.99997 3.375H3.74997C3.33634 3.375 2.99997 3.71137 2.99997 4.125V5.0265L3.74997 5.80425V6.9285L2.24997 5.33212ZM4.49997 8.25H5.24997V11.6625H4.49997V8.25ZM3.08247 12.4125L3.82422 15.75H5.92572L6.66747 12.4125H8.63509C8.64447 13.224 8.59347 15.2809 7.94584 16.9924C7.92297 17.0025 7.89934 17.0077 7.87684 17.0194L7.37922 17.2665C7.33759 17.2732 7.29409 17.277 7.23559 17.2781C7.12309 17.289 7.02147 17.2796 6.95284 17.2511L6.27709 16.9808C5.58709 16.7066 4.81234 16.9699 4.43734 17.6047L4.02859 18.2839C3.89247 18.5107 3.76797 18.6641 3.65922 18.7448C3.65547 18.7455 3.63934 18.75 3.60372 18.75C3.47284 18.75 3.34422 18.7717 3.22384 18.813C1.64772 17.1686 1.24197 13.5964 1.14972 12.4125H3.08247ZM13.8945 21.8693L14.3932 22.875H1.12497V22.2375C1.12497 22.0245 1.29822 21.8512 1.51122 21.8512H1.63497C2.16672 21.8512 2.63022 21.4714 2.73747 20.946L2.81284 20.5702C2.88822 20.1911 3.05022 19.8675 3.29022 19.638C3.30972 19.6162 3.33222 19.6001 3.35472 19.5821C3.42072 19.5293 3.50922 19.5 3.61122 19.5C3.79159 19.5 3.95547 19.452 4.09234 19.356C4.36084 19.1584 4.55172 18.8696 4.67134 18.6698L5.08159 17.9884C5.26572 17.676 5.66022 17.5429 5.99959 17.6771L6.66972 17.9452C6.89622 18.0394 7.14222 18.0405 7.27122 18.0262C7.36647 18.0262 7.46959 18.0146 7.57722 17.9921L8.21359 17.6895C8.34334 17.6235 8.48772 17.6089 8.59497 17.649C8.84322 17.7446 9.10272 17.9846 9.30147 18.1834L10.5476 19.4257C10.8127 19.6954 11.1217 19.9159 11.469 20.0831C11.6328 20.1604 11.8151 20.2073 12.012 20.223L12.342 20.2489C12.8343 20.2924 13.6875 21.252 13.8945 21.8693ZM16.125 14.3261V19.125H15.375V14.3261L15.084 14.2594C14.4911 14.1236 13.8952 13.6478 13.8783 12.8921C14.3036 13.2019 14.9257 13.5 15.75 13.5C16.5742 13.5 17.1963 13.2019 17.622 12.8921C17.6047 13.6481 17.0092 14.1236 16.4163 14.2594L16.125 14.3261ZM16.875 15.375H20.625V19.125H16.875V15.375ZM21.375 19.125V18.375H22.875V19.125H21.375Z" fill="black"/>
</g>
<defs>
<clipPath id="clip0_112_460">
<rect width="24" height="24" fill="white"/>
</clipPath>
</defs>
</svg>
