<svg width="24" height="24" viewBox="0 0 24 24" fill="none" xmlns="http://www.w3.org/2000/svg">
<g clip-path="url(#clip0_112_386)">
<path d="M8.10609 12.2812H4.3125V0.46875H10.0747L8.10609 12.2812Z" fill="#D7D7E6"/>
<path d="M9.3817 4.62713L10.0747 0.46875H4.3125V4.62713H9.3817Z" fill="#FF8C8C"/>
<path d="M8.34346 0.46875L8.01561 2.53125H6.04541V0.46875H8.34346Z" fill="white"/>
<path d="M22.125 5.91924L20.2657 12.2813H3.7343L1.875 5.91924H0.46875V23.5313H23.5312V5.91924H22.125Z" fill="#F5A55B"/>
<path d="M15.7927 12.2812V9.18694C15.7927 8.69508 16.1915 8.29631 16.6833 8.29631H18.3266C18.8185 8.29631 19.2173 8.69508 19.2173 9.18694V12.2812H15.7927Z" fill="#E09248"/>
<path d="M18.6668 4.26047H16.343V8.2964H18.6668V4.26047Z" fill="#D7D7E6"/>
<path d="M22.0303 4.62713H23.0342V3.42952C23.0342 1.79433 21.7086 0.46875 20.0734 0.46875H16.3431L16.1902 0.988547H15.4456L15.1432 0.46875H13.5532V3.74044H15.1432L15.4456 3.22064H16.1902L16.3431 4.26023H18.667C18.667 3.71986 19.105 3.28181 19.6454 3.28181H20.685C21.428 3.28177 22.0303 3.88411 22.0303 4.62713Z" fill="#878791"/>
<path d="M13.9219 7.21124H10.9219V12.2812H13.9219V7.21124Z" fill="#E09248"/>
<path d="M23.5312 5.45048H22.125C21.9168 5.45048 21.7335 5.58787 21.675 5.78775L21.2021 7.40625H19.1357V4.26023C19.1357 3.97917 19.3643 3.75052 19.6454 3.75052H20.685C21.1684 3.75052 21.5616 4.14375 21.5616 4.62712C21.5616 4.88602 21.7715 5.09587 22.0304 5.09587H23.0343C23.2932 5.09587 23.503 4.88602 23.503 4.62712V3.42952C23.5029 1.53848 21.9645 0 20.0734 0H16.3431C16.1352 0 15.9521 0.136969 15.8934 0.336516L15.8395 0.519797H15.7152L15.5483 0.233016C15.4644 0.0887813 15.3101 0 15.1432 0H13.5532C13.2943 0 13.0845 0.209859 13.0845 0.46875V3.74044C13.0845 3.99933 13.2943 4.20919 13.5532 4.20919H15.1432C15.3101 4.20919 15.4644 4.12041 15.5483 3.97612L15.7152 3.68934H15.7854L15.8744 4.29445V7.40625H14.3906V7.2113C14.3906 7.12973 14.3685 7.04644 14.3273 6.97598L12.8273 4.39186C12.7434 4.24734 12.5889 4.15842 12.4219 4.15842C12.2548 4.15842 12.1004 4.24734 12.0165 4.39186L10.5165 6.97598C10.4753 7.04644 10.4531 7.12973 10.4531 7.2113V7.40625H9.39375L10.5371 0.545812C10.5597 0.409922 10.5215 0.270891 10.4324 0.16575C10.3433 0.0606094 10.2125 0 10.0747 0H4.3125C4.05361 0 3.84375 0.209859 3.84375 0.46875V7.40625H2.79797L2.32495 5.78775C2.2665 5.58787 2.08327 5.45048 1.875 5.45048H0.46875C0.209859 5.45048 0 5.66034 0 5.91923V23.5312C0 23.7901 0.209859 24 0.46875 24H23.5312C23.7901 24 24 23.7901 24 23.5312V5.91923C24 5.66034 23.7901 5.45048 23.5312 5.45048ZM18.1982 7.82756H16.8119V4.72898H18.1982V7.82756ZM16.2615 9.18694C16.2615 8.95434 16.4508 8.76506 16.6834 8.76506H18.3267C18.5593 8.76506 18.7485 8.95434 18.7485 9.18694V11.8125H16.2615V9.18694ZM19.3918 8.34375H20.9281L19.9144 11.8125H19.686V9.18694C19.686 8.86856 19.5758 8.57569 19.3918 8.34375ZM15.4455 2.75189C15.2786 2.75189 15.1243 2.84067 15.0404 2.98495L14.8735 3.27173H14.0219V0.9375H14.8735L15.0404 1.22428C15.1243 1.36856 15.2786 1.4573 15.4455 1.4573H16.1902C16.3981 1.4573 16.5812 1.32033 16.6399 1.12078L16.6938 0.9375H20.0734C21.4475 0.9375 22.5655 2.05542 22.5655 3.42952V4.15837H22.4377C22.2306 3.38452 21.5233 2.81302 20.685 2.81302H19.6454C19.0114 2.81302 18.4713 3.22284 18.276 3.79148H16.748L16.654 3.15244C16.6201 2.92237 16.4228 2.75189 16.1902 2.75189H15.4455ZM15.6183 8.34375C15.4343 8.57569 15.324 8.86856 15.324 9.18694V11.8125H14.3906V8.34375H15.6183ZM11.3906 7.68005H13.4531V11.8125H11.3906V7.68005ZM12.4219 5.56087L13.1078 6.74255H11.736L12.4219 5.56087ZM10.4531 8.34375V11.8125H8.65941L9.23752 8.34375H10.4531ZM4.78125 5.09587H8.82834L7.70897 11.8125H4.78125V5.09587ZM6.51417 0.9375H7.79433L7.6155 2.0625H6.51417V0.9375ZM5.57667 0.9375V2.53125C5.57667 2.79014 5.78653 3 6.04542 3H8.01562C8.24611 3 8.44238 2.83247 8.47856 2.60484L8.74359 0.9375H9.52139L8.98462 4.15837H4.78125V0.9375H5.57667ZM3.84375 8.34375V10.9847L3.07195 8.34375H3.84375ZM0.9375 23.0625V6.38798H1.52363L1.99852 8.01291C1.99875 8.01366 1.99894 8.01436 1.99917 8.01511L3.28439 12.4128C3.34284 12.6127 3.52608 12.75 3.73434 12.75H20.2657C20.4739 12.75 20.6572 12.6126 20.7157 12.4127L22.4764 6.38798H23.0625V17.4375H16.1128C15.8539 17.4375 15.644 17.6474 15.644 17.9062C15.644 18.1651 15.8539 18.375 16.1128 18.375H23.0625V21.1875H14.9346C14.6757 21.1875 14.4658 21.3974 14.4658 21.6562C14.4658 21.9151 14.6757 22.125 14.9346 22.125H23.0625V23.0625H0.9375Z" fill="black"/>
<path d="M2.34375 21.1875C2.22047 21.1875 2.09953 21.2376 2.01234 21.3248C1.92516 21.412 1.875 21.533 1.875 21.6562C1.875 21.7795 1.92516 21.9005 2.01234 21.9876C2.09953 22.0748 2.22047 22.125 2.34375 22.125C2.46703 22.125 2.58797 22.0748 2.67516 21.9876C2.76234 21.9005 2.8125 21.7795 2.8125 21.6562C2.8125 21.533 2.76234 21.412 2.67516 21.3248C2.58797 21.2377 2.46703 21.1875 2.34375 21.1875Z" fill="black"/>
<path d="M2.34375 15.188C2.46703 15.188 2.58797 15.1378 2.67516 15.0506C2.76234 14.9634 2.8125 14.8429 2.8125 14.7192C2.8125 14.5959 2.76234 14.475 2.67516 14.3878C2.58797 14.3007 2.46703 14.2505 2.34375 14.2505C2.22047 14.2505 2.09953 14.3006 2.01234 14.3878C1.92516 14.475 1.875 14.5959 1.875 14.7192C1.875 14.843 1.92516 14.9634 2.01234 15.0506C2.09953 15.1378 2.22047 15.188 2.34375 15.188Z" fill="black"/>
<path d="M21.6562 15.188C21.7795 15.188 21.9005 15.1378 21.9877 15.0506C22.0748 14.9634 22.125 14.8429 22.125 14.7192C22.125 14.5959 22.0748 14.475 21.9877 14.3878C21.9005 14.3007 21.7795 14.2505 21.6562 14.2505C21.533 14.2505 21.412 14.3006 21.3248 14.3878C21.2377 14.475 21.1875 14.5959 21.1875 14.7192C21.1875 14.8425 21.2377 14.9634 21.3248 15.0506C21.412 15.1378 21.533 15.188 21.6562 15.188Z" fill="black"/>
<path d="M13.0312 21.1875C12.908 21.1875 12.787 21.2376 12.6998 21.3248C12.6127 21.412 12.5625 21.533 12.5625 21.6562C12.5625 21.7795 12.6127 21.9005 12.6998 21.9876C12.787 22.0748 12.908 22.125 13.0312 22.125C13.1545 22.125 13.2755 22.0748 13.3627 21.9876C13.4498 21.9005 13.5 21.7795 13.5 21.6562C13.5 21.533 13.4498 21.412 13.3627 21.3248C13.2755 21.2377 13.1545 21.1875 13.0312 21.1875Z" fill="black"/>
<path d="M10.4532 19.3125L3.77307 19.3125C3.51418 19.3125 3.30432 19.5225 3.30432 19.7813C3.30432 20.0401 3.51418 20.25 3.77307 20.25L10.4532 20.25C10.7121 20.25 10.9219 20.0401 10.9219 19.7813C10.9219 19.5224 10.7121 19.3125 10.4532 19.3125Z" fill="black"/>
<path d="M2.34375 16.9571H7.49241C7.7513 16.9571 7.96116 16.7472 7.96116 16.4883C7.96116 16.2295 7.7513 16.0196 7.49241 16.0196H2.34375C2.08486 16.0196 1.875 16.2295 1.875 16.4883C1.875 16.7472 2.08486 16.9571 2.34375 16.9571Z" fill="black"/>
<path d="M14.1143 17.4375H14.0762C13.8173 17.4375 13.6074 17.6474 13.6074 17.9062C13.6074 18.1651 13.8173 18.375 14.0762 18.375H14.1143C14.3732 18.375 14.583 18.1651 14.583 17.9062C14.583 17.6474 14.3732 17.4375 14.1143 17.4375Z" fill="black"/>
</g>
<defs>
<clipPath id="clip0_112_386">
<rect width="24" height="24" fill="white"/>
</clipPath>
</defs>
</svg>
