<svg width="24" height="24" viewBox="0 0 24 24" fill="none" xmlns="http://www.w3.org/2000/svg">
<g clip-path="url(#clip0_112_775)">
<path fill-rule="evenodd" clip-rule="evenodd" d="M10.9748 10.1265H13.0184C13.1686 10.1265 13.2909 10.2501 13.2909 10.4002V12.6856C13.2909 12.8358 13.1686 12.9593 13.0184 12.9593H10.9748C10.8247 12.9593 10.7024 12.8358 10.7024 12.6856V10.4002C10.7024 10.2501 10.8247 10.1265 10.9748 10.1265Z" fill="#407093"/>
<path fill-rule="evenodd" clip-rule="evenodd" d="M11.6525 10.1265H13.0184C13.1685 10.1265 13.2908 10.2501 13.2908 10.4002V12.6856C13.2908 12.8358 13.1686 12.9593 13.0184 12.9593H11.6525C11.8026 12.9593 11.9262 12.8358 11.9262 12.6856V10.4002C11.9262 10.2501 11.8026 10.1265 11.6525 10.1265Z" fill="#365E7D"/>
<path fill-rule="evenodd" clip-rule="evenodd" d="M15.9377 23.6492V16.1603C15.9377 13.9918 14.1638 12.2192 11.9967 12.2192C9.82807 12.2192 8.05554 13.9932 8.05554 16.1603V23.6492H15.9377Z" fill="#78C2A4"/>
<path fill-rule="evenodd" clip-rule="evenodd" d="M15.9378 23.6492V16.1603C15.9378 13.9918 14.1639 12.2192 11.9967 12.2192C11.7641 12.2192 11.5356 12.2392 11.3137 12.279C13.1593 12.6046 14.5731 14.2257 14.5731 16.1603V23.6492H15.9378Z" fill="#64AA91"/>
<path fill-rule="evenodd" clip-rule="evenodd" d="M11.9966 21.4368C13.7864 21.4368 15.2454 19.8636 15.2454 17.9341C15.2454 16.0035 13.7864 14.4303 11.9966 14.4303C10.2068 14.4303 8.74646 16.0035 8.74646 17.9341C8.74646 19.8636 10.2068 21.4368 11.9966 21.4368Z" fill="#CCF49F"/>
<path fill-rule="evenodd" clip-rule="evenodd" d="M11.9967 14.4303C13.7918 14.4303 15.2455 15.9982 15.2455 17.9342C15.2455 19.8689 13.7918 21.4381 11.9967 21.4381C11.7628 21.4381 11.5343 21.4102 11.3137 21.3598C12.7806 21.0223 13.8809 19.6164 13.8809 17.9342C13.8809 16.2507 12.7806 14.8462 11.3137 14.5074C11.5342 14.4569 11.7628 14.4303 11.9967 14.4303Z" fill="#B3E59F"/>
<path fill-rule="evenodd" clip-rule="evenodd" d="M15.0887 0.352128C14.6634 0.352128 14.3153 0.698909 14.3153 1.12416C14.3153 1.56797 14.7259 1.77788 15.0887 1.89746L17.1495 2.57517C17.3302 2.63494 17.4086 2.76652 17.4086 2.9326V5.39344H19.6954V3.48666C19.6954 3.306 19.7937 3.21296 19.9678 3.21296H22.616C22.7967 3.21296 22.8898 3.13191 22.8898 2.94052V2.57911C22.8898 2.41969 22.838 2.25361 22.6971 2.11139L21.1491 0.546097C21.0268 0.421222 20.8727 0.352081 20.684 0.352081H15.0887V0.352128Z" fill="#CBE2FF"/>
<path fill-rule="evenodd" clip-rule="evenodd" d="M18.3308 5.39344H19.6954V3.48666C19.6954 3.306 19.7937 3.21296 19.9678 3.21296H18.6032C18.4292 3.21296 18.3308 3.30596 18.3308 3.48666V5.39344ZM21.2514 3.21296H22.616C22.7967 3.21296 22.8897 3.13191 22.8897 2.94052V2.57911C22.8897 2.41969 22.8379 2.25361 22.6971 2.11139L21.1491 0.546097C21.0268 0.421222 20.8727 0.352081 20.684 0.352081H19.3194C19.5081 0.352081 19.6609 0.421222 19.7845 0.546097L21.3325 2.11144C21.4733 2.25361 21.5251 2.41969 21.5251 2.57916V2.94057C21.5251 3.13186 21.4321 3.21296 21.2514 3.21296Z" fill="#9DC6FB"/>
<path fill-rule="evenodd" clip-rule="evenodd" d="M16.8852 5.16488H20.219C20.3692 5.16488 20.4927 5.28849 20.4927 5.43863V7.37199L18.4518 7.74666L16.6128 7.37199V5.43863C16.6127 5.28844 16.735 5.16488 16.8852 5.16488Z" fill="#407093"/>
<path fill-rule="evenodd" clip-rule="evenodd" d="M18.8544 5.16488H20.219C20.3691 5.16488 20.4927 5.28849 20.4927 5.43863V7.37199H19.1268V5.43863C19.1268 5.28844 19.0045 5.16488 18.8544 5.16488Z" fill="#365E7D"/>
<path fill-rule="evenodd" clip-rule="evenodd" d="M15.6415 23.6492H21.4627C22.1511 23.6492 22.7144 23.0858 22.7144 22.3976V15.0761C22.7144 12.4478 20.4927 12.9407 20.4927 9.8753V7.37199H16.6128V9.8753C16.6128 12.9394 14.3898 12.4491 14.3898 15.0761V22.3976C14.3897 23.0858 14.9532 23.6492 15.6415 23.6492Z" fill="#9DC6FB"/>
<path fill-rule="evenodd" clip-rule="evenodd" d="M20.0966 23.6492H21.4626C22.151 23.6492 22.7143 23.0858 22.7143 22.3976V15.0761C22.7143 12.4478 20.4926 12.9407 20.4926 9.8753V7.37199H19.1267V9.8753C19.1267 12.9407 21.3484 12.4478 21.3484 15.0761V22.3976C21.3484 23.0858 20.7863 23.6492 20.0966 23.6492Z" fill="#80B4FB"/>
<path fill-rule="evenodd" clip-rule="evenodd" d="M7.70739 11.5934V9.55374C7.70739 8.21836 6.61385 7.12482 5.27707 7.12482C3.94169 7.12482 2.84814 8.21836 2.84814 9.55374V11.5934H7.70739Z" fill="#E9F5FF"/>
<path fill-rule="evenodd" clip-rule="evenodd" d="M7.70744 11.5934V9.55374C7.70744 8.21836 6.6139 7.12482 5.27712 7.12482C5.04058 7.12482 4.81207 7.15932 4.59546 7.22316C5.60135 7.51946 6.34151 8.45489 6.34151 9.55379V11.5935H7.70744V11.5934Z" fill="#CBE2FF"/>
<path fill-rule="evenodd" clip-rule="evenodd" d="M4.73635 9.56438H5.8193C5.96944 9.56438 6.09174 9.68794 6.09174 9.83808V11.8499C6.09174 12 5.96949 12.1236 5.8193 12.1236H4.73635C4.58621 12.1236 4.46265 12 4.46265 11.8499V9.83808C4.46265 9.68794 4.58621 9.56438 4.73635 9.56438Z" fill="#E59B6C"/>
<path fill-rule="evenodd" clip-rule="evenodd" d="M2.84814 11.5934H7.70739V13.3686H2.84814V11.5934Z" fill="#407093"/>
<path fill-rule="evenodd" clip-rule="evenodd" d="M6.34143 11.5934H7.70737V13.3686H6.34143V11.5934Z" fill="#365E7D"/>
<path fill-rule="evenodd" clip-rule="evenodd" d="M2.37384 23.6492H8.18179C8.87667 23.6492 9.44409 23.0805 9.44409 22.3869V14.3559C9.44409 13.6609 8.87672 13.0922 8.18179 13.0922H2.37384C1.67883 13.0922 1.11145 13.6609 1.11145 14.3559V22.3869C1.11145 23.0805 1.67878 23.6492 2.37384 23.6492Z" fill="#DD636E"/>
<path fill-rule="evenodd" clip-rule="evenodd" d="M6.81714 23.6492H8.18176C8.87664 23.6492 9.44406 23.0805 9.44406 22.3869V14.3559C9.44406 13.6609 8.87669 13.0922 8.18176 13.0922H6.81714C7.51075 13.0922 8.07944 13.6609 8.07944 14.3559V22.3869C8.07939 23.0805 7.5107 23.6492 6.81714 23.6492Z" fill="#DD636E"/>
<path fill-rule="evenodd" clip-rule="evenodd" d="M1.11145 16.05H9.44409V20.6914H1.11145V16.05Z" fill="#FFE07D"/>
<path fill-rule="evenodd" clip-rule="evenodd" d="M8.07947 16.05H9.44409V20.6914H8.07947V16.05Z" fill="#FFD064"/>
<path fill-rule="evenodd" clip-rule="evenodd" d="M14.3896 16.2547H15.8739C16.214 16.2547 16.3336 16.2919 16.5223 16.0248C17.01 15.3312 17.7381 14.8914 18.5527 14.8914C19.3659 14.8914 20.094 15.3312 20.583 16.0248C20.7703 16.2919 20.8912 16.2547 21.2301 16.2547H22.7143V19.9447H21.2301C20.8912 19.9447 20.7703 19.9074 20.583 20.1745C20.094 20.8681 19.3659 21.308 18.5527 21.308C17.7381 21.308 17.01 20.8681 16.5223 20.1745C16.3336 19.9074 16.214 19.9447 15.8739 19.9447H14.3896V16.2547Z" fill="#739AD6"/>
<path fill-rule="evenodd" clip-rule="evenodd" d="M3.4328 19.3493C3.97093 19.3493 4.41076 18.9095 4.41076 18.3714C4.41076 17.8319 3.97093 17.3921 3.4328 17.3921C2.89332 17.3921 2.45349 17.8319 2.45349 18.3714C2.45354 18.9095 2.89337 19.3493 3.4328 19.3493Z" fill="#DA4A54"/>
<path fill-rule="evenodd" clip-rule="evenodd" d="M21.3484 16.2547H22.7144V19.9447H21.3484V16.2547Z" fill="#5582BE"/>
<path d="M8.18182 23.2971C8.42763 23.2944 8.65085 23.2041 8.8249 23.03C8.99102 22.8639 9.09335 22.6367 9.09335 22.3869V21.0435H6.07446C5.8804 21.0435 5.72229 20.8867 5.72229 20.6914C5.72229 20.4974 5.8804 20.3406 6.07446 20.3406H9.09335V16.4009H1.46224V20.3406H4.48123C4.67524 20.3406 4.83335 20.4974 4.83335 20.6914C4.83335 20.8867 4.67524 21.0435 4.48123 21.0435H1.46224V22.3869C1.46224 22.6367 1.56457 22.8639 1.73065 23.03C1.89546 23.1948 2.12402 23.2971 2.37387 23.2971H8.18182ZM3.43282 17.7442C3.25873 17.7442 3.10193 17.8133 2.98901 17.9276C2.87473 18.0405 2.80432 18.1973 2.80432 18.3714C2.80432 18.5441 2.87477 18.7009 2.98901 18.8138C3.10193 18.9281 3.25873 18.9985 3.43282 18.9985C3.60556 18.9985 3.76231 18.9281 3.87527 18.8138C3.98956 18.7009 4.05991 18.5441 4.05991 18.3714C4.05991 18.1973 3.98951 18.0405 3.87527 17.9276C3.76235 17.8133 3.60556 17.7442 3.43282 17.7442ZM2.49209 17.4306C2.7326 17.1887 3.06481 17.04 3.43282 17.04C3.79952 17.04 4.13173 17.1887 4.37224 17.4306C4.61407 17.6711 4.7629 18.0033 4.7629 18.3713C4.7629 18.7381 4.61407 19.0702 4.37224 19.3121C4.13173 19.5526 3.79952 19.7014 3.43282 19.7014C3.06476 19.7014 2.7326 19.5526 2.49209 19.3121C2.25026 19.0702 2.10143 18.7381 2.10143 18.3713C2.10143 18.0033 2.25026 17.6711 2.49209 17.4306ZM5.58406 19.4052C5.39004 19.4052 5.23193 19.2471 5.23193 19.053C5.23193 18.859 5.39004 18.7023 5.58406 18.7023H8.05554C8.24956 18.7023 8.40631 18.8591 8.40631 19.053C8.40631 19.2471 8.24951 19.4052 8.05554 19.4052H5.58406ZM5.58406 18.0392C5.39004 18.0392 5.23193 17.8823 5.23193 17.6884C5.23193 17.4944 5.39004 17.3363 5.58406 17.3363H8.05554C8.24956 17.3363 8.40631 17.4944 8.40631 17.6884C8.40631 17.8824 8.24951 18.0392 8.05554 18.0392H5.58406ZM17.802 19.8157C17.608 19.8157 17.4498 19.6589 17.4498 19.4649C17.4498 19.2709 17.608 19.1128 17.802 19.1128H19.3035C19.4975 19.1128 19.6542 19.2709 19.6542 19.4649C19.6542 19.6589 19.4974 19.8157 19.3035 19.8157H17.802ZM17.802 17.0865C17.608 17.0865 17.4498 16.9283 17.4498 16.7344C17.4498 16.5404 17.608 16.3836 17.802 16.3836H19.3035C19.4975 16.3836 19.6542 16.5404 19.6542 16.7344C19.6542 16.9283 19.4974 17.0865 19.3035 17.0865H17.802ZM17.802 18.4511C17.608 18.4511 17.4498 18.2943 17.4498 18.099C17.4498 17.9049 17.608 17.7482 17.802 17.7482H19.3035C19.4975 17.7482 19.6542 17.905 19.6542 18.099C19.6542 18.2943 19.4974 18.4511 19.3035 18.4511H17.802ZM14.7419 15.9025H16.1796C16.4387 15.5132 16.7669 15.1877 17.1416 14.9525C17.5627 14.6894 18.0424 14.5406 18.5527 14.5406C19.0616 14.5406 19.5413 14.6894 19.9625 14.9525C20.3372 15.1877 20.6654 15.5132 20.9245 15.9025H22.3622V15.0761C22.3622 13.9519 21.8971 13.4603 21.4135 12.9487C20.789 12.291 20.1405 11.6054 20.1405 9.8753V7.72275H16.9636V9.07805C16.9636 9.27206 16.8067 9.43017 16.6128 9.43017C16.4175 9.43017 16.2606 9.27206 16.2606 9.07805V5.16488C16.2606 4.97091 16.4175 4.81411 16.6128 4.81411H17.0579V2.91398L16.1318 2.60972C16.0481 3.47738 15.6827 5.31103 14.1041 6.39136C13.9447 6.5003 13.7254 6.45909 13.6164 6.29967C13.5075 6.13889 13.5487 5.92097 13.7081 5.81198C15.1658 4.81411 15.4089 3.03492 15.4488 2.38519L14.9797 2.23106C14.7645 2.16066 14.5319 2.05969 14.342 1.90153C14.1187 1.71548 13.9646 1.467 13.9646 1.1242C13.9646 0.814641 14.0908 0.534234 14.2941 0.329625C14.4974 0.126234 14.7791 0 15.0887 0H17.1828C17.3768 0 17.5336 0.158109 17.5336 0.352125C17.5336 0.546141 17.3768 0.702937 17.1828 0.702937H15.0887C14.9731 0.702937 14.8681 0.750703 14.7911 0.827812C14.7139 0.903516 14.6674 1.00852 14.6674 1.12411C14.6674 1.22508 14.7166 1.3035 14.7897 1.36331C14.8947 1.45102 15.0488 1.51477 15.1963 1.56394L17.5176 2.32664C17.6624 2.37314 17.7608 2.5087 17.7608 2.66016V4.81406H19.3433V3.21295C19.3433 3.01894 19.5014 2.86219 19.6954 2.86219H22.5377V2.44894L20.8116 0.702984H18.7747C18.5807 0.702984 18.4239 0.546141 18.4239 0.352172C18.4239 0.158203 18.5807 0 18.7746 0H20.9578C21.0482 0 21.1385 0.0359062 21.2076 0.106312L23.121 2.04098C23.1941 2.10473 23.2406 2.20041 23.2406 2.30545V3.21295C23.2406 3.40697 23.0838 3.56508 22.8898 3.56508H20.0476V4.81406H20.4927C20.6867 4.81406 20.8435 4.97091 20.8435 5.16483V9.87525C20.8435 11.3276 21.3936 11.9083 21.9211 12.465C22.5044 13.0815 23.0652 13.6742 23.0652 15.076V22.3975C23.0652 22.8386 22.8858 23.2399 22.5948 23.5296C22.3051 23.8206 21.9038 24 21.4627 24C15.0993 24 8.7372 24 2.37387 24C1.92996 24 1.52604 23.8193 1.23373 23.5269C0.941462 23.2346 0.759399 22.8306 0.759399 22.3868V20.6913V14.3559C0.759399 13.9108 0.941462 13.5081 1.23373 13.2145C1.52604 12.9222 1.93001 12.7414 2.37387 12.7414H2.49743C2.49743 11.6784 2.49743 10.6168 2.49743 9.55373C2.49743 8.78967 2.80966 8.09344 3.31329 7.58986C3.81682 7.08628 4.51315 6.77405 5.27716 6.77405C6.04254 6.77405 6.73882 7.08628 7.24245 7.58986C7.74602 8.09344 8.05826 8.78972 8.05826 9.55373V12.7414H8.18187C8.51402 12.7414 8.82363 12.8424 9.0814 13.0164C9.45345 12.671 9.88263 12.3933 10.3504 12.198V10.1265C10.3504 9.93239 10.5085 9.77564 10.7025 9.77564H11.6446V8.39508H10.9549C10.1192 8.39508 9.74707 9.16313 9.74707 9.16575C9.66068 9.33984 9.45077 9.41025 9.27673 9.32517C9.10263 9.23878 9.03223 9.02887 9.11726 8.85478C9.11862 8.85211 9.68065 7.69083 10.9549 7.69083H11.9967H13.0637C13.2577 7.69083 13.4145 7.84894 13.4145 8.04295C13.4145 8.23697 13.2577 8.39508 13.0637 8.39508H12.3475V9.77564H13.291C13.485 9.77564 13.6431 9.93244 13.6431 10.1265V12.198C14.0603 12.3747 14.4417 12.6085 14.7858 12.9048C14.912 12.752 15.0476 12.6098 15.1832 12.4664C15.615 12.0105 16.0614 11.5402 16.2076 10.614C16.2381 10.4227 16.4175 10.2925 16.6089 10.323C16.8002 10.3536 16.9304 10.533 16.8999 10.7243C16.7192 11.8618 16.197 12.4132 15.6907 12.9473C15.2071 13.4589 14.742 13.9505 14.742 15.076V15.9025H14.7419ZM22.3623 20.2967H20.9246C20.6655 20.6861 20.3373 21.0116 19.9626 21.2467C19.5414 21.5099 19.0617 21.6586 18.5528 21.6586C18.0425 21.6586 17.5628 21.5099 17.1416 21.2467C16.767 21.0116 16.4388 20.686 16.1797 20.2967H14.742V22.3975C14.742 22.6446 14.8429 22.8692 15.0064 23.0326C15.1698 23.196 15.3944 23.2971 15.6402 23.2971H21.4628C21.7099 23.2971 21.9345 23.1961 22.098 23.0326C22.2614 22.8692 22.3624 22.6447 22.3624 22.3975V20.2967H22.3623ZM16.3749 16.6055H14.7419V19.5938H16.3749C16.4958 19.5938 16.6127 19.6563 16.6779 19.7679C16.8957 20.1386 17.1814 20.4429 17.5123 20.6502C17.8246 20.8455 18.1781 20.9558 18.5528 20.9558C18.9261 20.9558 19.2796 20.8455 19.5918 20.6502C19.92 20.4456 20.2044 20.1439 20.4209 19.7772C20.4807 19.6669 20.5963 19.5938 20.7292 19.5938H22.3623V16.6055H20.7292C20.6096 16.6055 20.4914 16.543 20.4262 16.4314C20.2097 16.0607 19.9226 15.7564 19.5918 15.5491C19.2795 15.3538 18.9261 15.2435 18.5527 15.2435C18.178 15.2435 17.8245 15.3538 17.5123 15.5491C17.1841 15.7537 16.8997 16.0554 16.6831 16.4221C16.6234 16.5323 16.5078 16.6055 16.3749 16.6055ZM10.5616 12.8716C10.1935 13.0338 9.85727 13.2556 9.56496 13.5254C9.71112 13.7686 9.7962 14.0516 9.7962 14.3559V14.8834C9.9889 14.724 10.1975 14.5845 10.4181 14.4689C10.8964 14.2191 11.4319 14.0782 11.9967 14.0782C12.5135 14.0782 13.0065 14.1964 13.4516 14.4077C13.6616 14.5073 13.8622 14.6283 14.0483 14.7665C14.0828 14.2297 14.2091 13.8243 14.3871 13.4868C14.0948 13.2264 13.7612 13.0111 13.3958 12.8557C12.9547 12.667 12.4764 12.57 11.9967 12.57C11.5037 12.57 11.0134 12.6723 10.5616 12.8716ZM12.9387 11.9721V10.4786H11.9967H11.0532V11.9721C11.3576 11.903 11.6725 11.8671 11.9967 11.8671C12.3195 11.8671 12.6358 11.9043 12.9387 11.9721ZM4.46262 9.21361H6.09166C6.28704 9.21361 6.44379 9.37041 6.44379 9.56437V11.2413H7.35532V9.55378C7.35532 8.98373 7.12146 8.46422 6.74543 8.08683C6.36804 7.71075 5.84843 7.47694 5.27712 7.47694C4.70707 7.47694 4.18756 7.71075 3.81021 8.08683C3.43418 8.46422 3.20027 8.98373 3.20027 9.55378V11.2413H4.11176V9.56437C4.11181 9.37036 4.2686 9.21361 4.46262 9.21361ZM5.7409 9.9165H4.81474V11.2413H5.7409V9.9165ZM7.35532 12.7414V11.9442C5.97073 11.9442 4.58482 11.9442 3.20027 11.9442V12.7415H7.35532V12.7414ZM9.09331 15.6979V14.3559C9.09331 14.1048 8.99098 13.8775 8.82485 13.7127C8.66009 13.5466 8.43152 13.4443 8.18177 13.4443C6.24579 13.4443 4.30976 13.4443 2.37382 13.4443C2.12398 13.4443 1.89541 13.5466 1.7306 13.7127C1.56452 13.8775 1.4622 14.1048 1.4622 14.3559V15.6979H9.09331ZM9.51316 23.2971H14.3167C14.1413 23.0406 14.0389 22.7297 14.0389 22.3976V21.1087C13.9765 21.1552 13.9114 21.199 13.8463 21.2415C13.5486 21.4328 13.2218 21.579 12.8763 21.672C12.6889 21.7225 12.4963 21.6109 12.4472 21.4236C12.3966 21.2362 12.5083 21.0435 12.6956 20.9944C12.9707 20.92 13.2298 20.803 13.4676 20.6502C13.6776 20.5161 13.8689 20.3552 14.039 20.1719V15.6953C13.7865 15.423 13.4862 15.1997 13.1527 15.0416C12.7993 14.8742 12.4086 14.7811 11.9967 14.7811C11.5449 14.7811 11.1198 14.8928 10.7424 15.0894C10.3796 15.2794 10.0567 15.5505 9.79624 15.8813V19.9859C9.98098 20.2197 10.1949 20.4244 10.4328 20.5904C10.6945 20.7725 10.9855 20.9106 11.2977 20.9943C11.4851 21.0435 11.5967 21.2362 11.5462 21.4235C11.4957 21.6109 11.3031 21.7225 11.1171 21.672C10.7277 21.5684 10.3623 21.3943 10.0328 21.1644C9.95173 21.1073 9.87199 21.0475 9.79624 20.9837V22.3869C9.7962 22.7231 9.69124 23.038 9.51316 23.2971ZM16.9636 7.01981H20.1406V5.517C19.0816 5.517 18.0226 5.517 16.9636 5.517V7.01981Z" fill="black"/>
</g>
<defs>
<clipPath id="clip0_112_775">
<rect width="24" height="24" fill="white"/>
</clipPath>
</defs>
</svg>
