<svg width="24" height="24" viewBox="0 0 24 24" fill="none" xmlns="http://www.w3.org/2000/svg">
<g clip-path="url(#clip0_112_714)">
<path d="M3.90787 15.08C5.60863 15.08 6.98737 13.7013 6.98737 12.0005C6.98737 10.2998 5.60863 8.92102 3.90787 8.92102C2.20711 8.92102 0.828369 10.2998 0.828369 12.0005C0.828369 13.7013 2.20711 15.08 3.90787 15.08Z" fill="#FCEA81"/>
<path d="M6.48017 11.2862C5.83578 11.2576 5.32288 10.726 5.32288 10.0748C5.32288 9.40552 5.86541 8.86247 6.53525 8.86247C6.59553 8.86247 6.65478 8.86664 6.71295 8.87545L6.48017 11.2862Z" fill="#E0B394"/>
<path d="M17.4357 11.2862C18.0801 11.2576 18.5935 10.726 18.5935 10.0748C18.5935 9.40552 18.0504 8.86247 17.3806 8.86247C17.3203 8.86247 17.2605 8.86716 17.2029 8.87546L17.4357 11.2862Z" fill="#E0B394"/>
<path d="M14.4087 15.6789H9.50784C7.73287 15.6789 6.29395 17.1178 6.29395 18.8927V23.6103H17.6226V18.8927C17.6226 17.1178 16.1837 15.6789 14.4087 15.6789Z" fill="#EA8249"/>
<path d="M11.4881 15.6789H9.50784C7.73287 15.6789 6.29395 17.1178 6.29395 18.8928V23.6103H8.27418V18.8928C8.27418 17.1178 9.7131 15.6789 11.4881 15.6789Z" fill="#D36F3D"/>
<path d="M10.2043 16.5267L8.07114 14.9769C6.94389 14.1579 6.33409 12.8036 6.46811 11.4166L6.83809 7.58789C7.09295 4.95089 9.30892 2.93869 11.9582 2.93869C14.6075 2.93869 16.8235 4.95084 17.0783 7.58789L17.4483 11.4166C17.5823 12.8036 16.9726 14.1578 15.8453 14.9769L13.7121 16.5267C12.6662 17.2865 11.2501 17.2865 10.2043 16.5267Z" fill="#F7CBA4"/>
<path d="M7.79561 12.1712C7.75975 12.7776 7.95723 13.3742 8.34803 13.8393L10.5775 16.5789C10.6939 16.7177 10.8259 16.8341 10.9689 16.9271C10.7007 16.8336 10.443 16.6995 10.2044 16.5265L8.07123 14.9768C6.94408 14.1578 6.33452 12.8036 6.46862 11.4166L6.83809 7.5878C7.09066 4.97648 9.26594 2.97787 11.8814 2.93995C10.2705 2.97891 8.44633 4.49737 8.35122 6.11456L7.79561 12.1712Z" fill="#E0B394"/>
<path d="M17.5335 6.20991H17.0769C17.0769 4.79644 16.5042 3.51703 15.5777 2.59045C14.8907 1.90345 14.0093 1.41084 13.0235 1.20244H13.0234V0.389767H10.8928V1.20249C8.57721 1.69256 6.8396 3.74831 6.8396 6.20986H6.38266L6.07019 7.76883H8.84013L9.2883 9.06797H14.6279L15.0761 7.76883H17.846L17.5335 6.20991Z" fill="#F9C573"/>
<path d="M8.84009 7.76888L9.28821 9.06802H10.16L9.85826 7.76888H8.84009Z" fill="#E2AF66"/>
<path d="M8.51102 6.20991C8.51102 3.74831 9.68125 1.69261 11.2406 1.20253V0.389767H10.8928V1.20249C8.57725 1.69256 6.8396 3.74831 6.8396 6.20986H6.38266L6.07019 7.76883H9.20472L9.41519 6.20986H8.51102V6.20991Z" fill="#E2AF66"/>
<path d="M11.9579 6.20995C13.0198 6.20995 13.8807 5.3491 13.8807 4.28719C13.8807 3.22527 13.0198 2.36442 11.9579 2.36442C10.896 2.36442 10.0352 3.22527 10.0352 4.28719C10.0352 5.3491 10.896 6.20995 11.9579 6.20995Z" fill="#FCE8CA"/>
<path d="M5.30826 14.7152V15.5685C5.30826 15.9592 5.14978 16.3136 4.89356 16.5698C4.63739 16.826 4.28348 16.9845 3.89217 16.9845C3.11006 16.9845 2.47607 16.3506 2.47607 15.5685V14.7152H5.30826Z" fill="#999999"/>
<path d="M22.3563 8.11477L21.7597 5.92688H20.5663L19.9696 8.11477L20.5663 9.14827H20.604V15.6628H21.7219V9.14827H21.7597L22.3563 8.11477Z" fill="#E6E6E6"/>
<path d="M21.4767 23.6102H20.8495C20.1625 23.6102 19.6056 23.0533 19.6056 22.3664V16.9066C19.6056 16.2196 20.1625 15.6628 20.8495 15.6628H21.4767C22.1637 15.6628 22.7205 16.2197 22.7205 16.9066V22.3664C22.7205 23.0533 22.1636 23.6102 21.4767 23.6102Z" fill="#5D9EBA"/>
<path d="M21.1903 22.3664V16.9066C21.1903 16.3894 21.5061 15.9459 21.9554 15.7584C21.808 15.6968 21.6463 15.6628 21.4766 15.6628H20.8493C20.1624 15.6628 19.6055 16.2197 19.6055 16.9066V22.3664C19.6055 23.0534 20.1624 23.6103 20.8493 23.6103H21.4766C21.6463 23.6103 21.808 23.5762 21.9554 23.5147C21.5061 23.3271 21.1903 22.8837 21.1903 22.3664Z" fill="#508DA3"/>
<path d="M13.0624 13.5439C12.4476 14.1585 11.4475 14.1586 10.8327 13.5439C10.6805 13.3916 10.4337 13.3917 10.2815 13.5439C10.1293 13.6961 10.1293 13.9429 10.2816 14.095C10.7408 14.5544 11.3442 14.784 11.9475 14.784C12.5509 14.784 13.1543 14.5544 13.6136 14.095C13.7658 13.9428 13.7658 13.6961 13.6136 13.5439C13.4614 13.3917 13.2146 13.3917 13.0624 13.5439Z" fill="black"/>
<path d="M9.63415 10.032C9.41885 10.032 9.24438 10.2066 9.24438 10.4218V11.0452C9.24438 11.2605 9.41885 11.435 9.63415 11.435C9.84945 11.435 10.0239 11.2605 10.0239 11.0452V10.4218C10.0239 10.2066 9.84945 10.032 9.63415 10.032Z" fill="black"/>
<path d="M14.2609 10.032C14.0456 10.032 13.8711 10.2066 13.8711 10.4218V11.0452C13.8711 11.2605 14.0456 11.435 14.2609 11.435C14.4762 11.435 14.6506 11.2605 14.6506 11.0452V10.4218C14.6506 10.2066 14.4762 10.032 14.2609 10.032Z" fill="black"/>
<path d="M8.26358 23.2205H6.67316V18.7052C6.67316 17.8276 7.1218 17.0314 7.87316 16.5751C8.0571 16.4634 8.11574 16.2237 8.00408 16.0397C7.89243 15.8557 7.65271 15.7971 7.46863 15.9088C6.48247 16.5075 5.89368 17.5529 5.89368 18.7051V23.6102C5.89368 23.8255 6.06815 24 6.28344 24H8.26363C8.47893 24 8.6534 23.8255 8.6534 23.6102C8.6534 23.395 8.47888 23.2205 8.26358 23.2205Z" fill="black"/>
<path d="M16.4262 15.9088C16.2423 15.7972 16.0025 15.8558 15.8908 16.0397C15.7791 16.2238 15.8377 16.4634 16.0217 16.5751C16.7734 17.0316 17.2223 17.8278 17.2223 18.7052V23.2205H12.3374V18.9907L14.0347 20.1965C14.1017 20.2441 14.1807 20.2686 14.2605 20.2686C14.3102 20.2686 14.3601 20.259 14.4076 20.2397C14.531 20.1894 14.6203 20.0794 14.644 19.9481L15.1066 17.3867C15.1448 17.1749 15.0041 16.9722 14.7923 16.934C14.5804 16.8956 14.3777 17.0364 14.3395 17.2482L13.9859 19.2057L12.1734 17.918C12.0381 17.822 11.8571 17.822 11.7219 17.918L9.90931 19.2057L9.55573 17.2482C9.51748 17.0364 9.31451 16.8956 9.10292 16.934C8.89109 16.9722 8.75037 17.175 8.78862 17.3867L9.25123 19.9481C9.27495 20.0793 9.36415 20.1893 9.48762 20.2397C9.61113 20.29 9.75181 20.2738 9.86051 20.1966L11.5578 18.9908V23.2206H9.60959C9.39429 23.2206 9.21982 23.3951 9.21982 23.6103C9.21982 23.8256 9.39429 24.0001 9.60959 24.0001H17.6119C17.8271 24.0001 18.0016 23.8256 18.0016 23.6103V18.7052C18.0017 17.5531 17.4128 16.5078 16.4262 15.9088Z" fill="black"/>
<path d="M11.9475 12.6823C12.4919 12.6823 12.9348 12.2394 12.9348 11.6949V10.3989C12.9348 10.1836 12.7604 10.0091 12.5451 10.0091C12.3298 10.0091 12.1553 10.1836 12.1553 10.3989V11.6949C12.1553 11.8096 12.0621 11.9028 11.9475 11.9028C11.8328 11.9028 11.7396 11.8095 11.7396 11.6949V10.3989C11.7396 10.1836 11.5651 10.0091 11.3498 10.0091C11.1346 10.0091 10.9601 10.1836 10.9601 10.3989V11.6949C10.9601 12.2393 11.403 12.6823 11.9475 12.6823Z" fill="black"/>
<path d="M17.5454 8.4825L17.5141 8.15855H17.8353C17.9521 8.15855 18.0628 8.10619 18.1368 8.01586C18.2108 7.92548 18.2404 7.80675 18.2175 7.69223L17.905 6.13327C17.8686 5.95116 17.7087 5.82014 17.5229 5.82014H17.4423C17.3503 4.49555 16.7906 3.26283 15.8426 2.31483C15.1612 1.63341 14.3226 1.14769 13.4025 0.896719V0.389766C13.4025 0.174516 13.228 0 13.0127 0H10.8821C10.6668 0 10.4924 0.174516 10.4924 0.389766V0.897375C9.39849 1.19719 8.41074 1.83553 7.68581 2.71973C6.96436 3.59963 6.53499 4.6882 6.45422 5.82019H6.37195C6.18624 5.82019 6.02634 5.9512 5.98978 6.13331L5.67727 7.69228C5.6543 7.8068 5.68392 7.92558 5.75799 8.01591C5.832 8.10628 5.94267 8.15864 6.05944 8.15864H6.38044L6.34917 8.48259C5.54803 8.57025 4.92249 9.25083 4.92249 10.0749C4.92249 10.7959 5.39536 11.4066 6.05405 11.6073C5.99245 13.0457 6.65981 14.4411 7.83136 15.2919L9.96455 16.8421C10.5575 17.273 11.2523 17.4884 11.9473 17.4884C12.6421 17.4883 13.3373 17.2729 13.9305 16.8421L16.0636 15.2919C17.235 14.4409 17.902 13.0455 17.8405 11.6073C18.4995 11.4067 18.9726 10.796 18.9726 10.0749C18.9725 9.25078 18.3468 8.57025 17.5454 8.4825ZM6.53508 7.37911L6.69136 6.59963H17.2035L17.3597 7.37911H6.53508ZM14.5186 8.15864L14.3393 8.6783H9.55542L9.37613 8.15864H14.5186ZM11.9474 2.72817C12.7928 2.72817 13.4804 3.41583 13.4804 4.26117C13.4804 5.10652 12.7928 5.79417 11.9474 5.79417C11.1021 5.79417 10.4144 5.10652 10.4144 4.26117C10.4144 3.41583 11.1021 2.72817 11.9474 2.72817ZM15.2914 2.86603C16.092 3.66666 16.5703 4.70395 16.6608 5.82014H13.6538C14.03 5.40872 14.2599 4.86131 14.2599 4.26117C14.2599 3.53705 13.9251 2.88989 13.4025 2.46558V1.70925C14.1113 1.93777 14.7574 2.33198 15.2914 2.86603ZM12.623 0.779484V2.04952C12.4091 1.98408 12.1823 1.94859 11.9474 1.94859C11.7125 1.94859 11.4857 1.98408 11.2718 2.04952V0.779484H12.623ZM10.4924 1.71037V2.46553C9.96975 2.88989 9.63492 3.537 9.63492 4.26113C9.63492 4.86127 9.8648 5.40867 10.2411 5.82009H7.23492C7.39294 3.92573 8.69199 2.29331 10.4924 1.71037ZM5.70197 10.0748C5.70197 9.70983 5.94117 9.39989 6.27089 9.29269L6.12581 10.7948C5.87227 10.6545 5.70197 10.3848 5.70197 10.0748ZM15.6054 14.6612L13.4723 16.2113C12.5601 16.8739 11.3345 16.8739 10.4228 16.2114L8.28942 14.6612C7.27842 13.9269 6.72502 12.6979 6.8452 11.4539L7.16349 8.15864H8.55155L8.90906 9.19514C8.96325 9.35227 9.11128 9.45778 9.2775 9.45778H14.6171C14.7833 9.45778 14.9314 9.35231 14.9856 9.19514L15.3431 8.15864H16.731L17.0492 11.4539C17.1695 12.6978 16.6163 13.9268 15.6054 14.6612ZM17.7687 10.7949L17.6236 9.29264C17.9537 9.39984 18.1931 9.70978 18.1931 10.0748C18.193 10.3848 18.0225 10.6546 17.7687 10.7949Z" fill="black"/>
<path d="M11.5248 5.51442C11.6245 5.51442 11.7243 5.47636 11.8004 5.40024L12.425 4.77553C12.5772 4.62333 12.5772 4.37653 12.425 4.22438L12.2596 4.059L12.6454 3.67322C12.7977 3.52102 12.7977 3.27422 12.6455 3.12202C12.4932 2.96986 12.2464 2.96981 12.0943 3.12202L11.4328 3.78342C11.3597 3.85655 11.3186 3.95564 11.3186 4.05905C11.3186 4.16245 11.3597 4.26155 11.4327 4.33463L11.5982 4.5L11.249 4.84913C11.0968 5.00133 11.0968 5.24813 11.2491 5.40028C11.3253 5.47641 11.4251 5.51442 11.5248 5.51442Z" fill="black"/>
<path d="M16.1442 19.599C15.9921 19.4467 15.7453 19.4468 15.5931 19.599L14.6714 20.5207C14.5192 20.6729 14.5192 20.9197 14.6714 21.0719L15.0103 21.4107L14.4153 22.0057C14.2631 22.1579 14.2631 22.4047 14.4153 22.5569C14.4914 22.6329 14.5912 22.671 14.6909 22.671C14.7906 22.671 14.8904 22.633 14.9665 22.5569L15.837 21.6864C15.9892 21.5342 15.9892 21.2874 15.837 21.1352L15.4982 20.7964L16.1443 20.1502C16.2964 19.998 16.2964 19.7512 16.1442 19.599Z" fill="black"/>
<path d="M6.2437 13.9876C6.09787 13.8293 5.85131 13.8191 5.69297 13.965C5.54264 14.1034 5.37506 14.2236 5.19534 14.3254H4.27125V12.6195C4.27125 12.4043 4.09678 12.2297 3.88148 12.2297C3.66618 12.2297 3.49172 12.4043 3.49172 12.6195V14.3254H2.56448C1.68703 13.8298 1.16897 12.9058 1.20707 11.892C1.25915 10.5146 2.37806 9.38611 3.7545 9.32273C3.97804 9.31237 4.19887 9.32902 4.41173 9.37205C4.62309 9.41461 4.82836 9.2782 4.87101 9.06722C4.91362 8.85623 4.77717 8.65059 4.56623 8.60798C4.29065 8.55234 4.00547 8.53087 3.71859 8.54405C1.94067 8.62589 0.495325 10.0836 0.428059 11.8627C0.381278 13.1101 1.0215 14.2934 2.07562 14.9418V15.5684C2.07562 16.5641 2.88572 17.3742 3.88143 17.3742C4.36392 17.3742 4.81743 17.1864 5.15845 16.8454C5.49946 16.5044 5.68725 16.0508 5.68725 15.5684V14.9417C5.87831 14.8244 6.05714 14.6892 6.22101 14.5383C6.3794 14.3925 6.38953 14.1459 6.2437 13.9876ZM4.60729 16.2943C4.41351 16.488 4.15579 16.5948 3.88148 16.5948C3.31551 16.5948 2.85515 16.1344 2.85515 15.5685V15.1049H4.90781V15.5685C4.90781 15.8427 4.80107 16.1005 4.60729 16.2943Z" fill="black"/>
<path d="M3.88146 8.11242C4.09676 8.11242 4.27123 7.93791 4.27123 7.72266V6.68334C4.27123 6.46809 4.09676 6.29358 3.88146 6.29358C3.66617 6.29358 3.4917 6.46809 3.4917 6.68334V7.72266C3.49175 7.93791 3.66617 8.11242 3.88146 8.11242Z" fill="black"/>
<path d="M0.911043 8.64127C0.982621 8.76848 1.11486 8.84002 1.25112 8.84002C1.31581 8.84002 1.38143 8.82384 1.44186 8.78986C1.62945 8.6843 1.69601 8.44669 1.5905 8.25914L1.12282 7.42767C1.01726 7.24003 0.779652 7.17352 0.592058 7.27903C0.404465 7.38459 0.337902 7.6222 0.443418 7.80975L0.911043 8.64127Z" fill="black"/>
<path d="M23.217 15.273H22.1033L22.1381 9.25373L22.6831 8.30967C22.7351 8.21967 22.749 8.11256 22.7216 8.01225L22.1249 5.82436C22.0786 5.65481 21.9246 5.53716 21.7489 5.53716H20.5556C20.3799 5.53716 20.2259 5.65481 20.1796 5.82436L19.583 8.01225C19.5547 8.11608 19.5705 8.22698 19.6269 8.31867L20.2037 9.25833V15.273H19.0876C18.8723 15.273 18.6979 15.4476 18.6979 15.6628C18.6979 15.8781 18.8723 16.0526 19.0876 16.0526H19.4469C19.2937 16.3013 19.2052 16.5938 19.2052 16.9067V22.3664C19.2052 23.2672 19.938 24 20.8388 24H21.4659C22.3667 24 23.0996 23.2672 23.0996 22.3664V20.4325C23.0996 20.2172 22.9251 20.0427 22.7098 20.0427C22.4945 20.0427 22.32 20.2172 22.32 20.4325V22.3664C22.32 22.8374 21.9369 23.2205 21.4659 23.2205H20.8387C20.3678 23.2205 19.9846 22.8374 19.9846 22.3664V16.9066C19.9846 16.4357 20.3678 16.0525 20.8387 16.0525H21.4659C21.9368 16.0525 22.32 16.4357 22.32 16.9066V18.9255C22.32 19.1407 22.4945 19.3152 22.7098 19.3152C22.9251 19.3152 23.0996 19.1407 23.0996 18.9255V16.9066C23.0996 16.5937 23.011 16.3012 22.8578 16.0525H23.2171C23.4324 16.0525 23.6069 15.878 23.6069 15.6628C23.6069 15.4475 23.4323 15.273 23.217 15.273ZM20.9832 15.273V9.14822C20.9832 9.07626 20.9632 9.00567 20.9256 8.94431L20.3795 8.05462L20.8534 6.31669H21.4514L21.927 8.06067L21.4116 8.95345C21.3777 9.012 21.3598 9.07842 21.3593 9.14611L21.3239 15.2732H20.9833V15.273H20.9832Z" fill="black"/>
<path d="M21.1523 17.1162C20.937 17.1162 20.7626 17.2907 20.7626 17.5059V21.7672C20.7626 21.9824 20.937 22.1569 21.1523 22.1569C21.3676 22.1569 21.5421 21.9824 21.5421 21.7672V17.5059C21.5421 17.2907 21.3676 17.1162 21.1523 17.1162Z" fill="black"/>
<path d="M3.4852 20.8441H2.88206L3.50568 19.8265C3.57942 19.7063 3.58237 19.5555 3.51342 19.4324C3.44446 19.3093 3.31443 19.2331 3.17334 19.2331H2.57029L3.19392 18.2156C3.30637 18.0321 3.24885 17.7922 3.06524 17.6797C2.88187 17.5672 2.64182 17.6247 2.52932 17.8083L1.54195 19.4192C1.46821 19.5395 1.46526 19.6902 1.53421 19.8134C1.60317 19.9365 1.7332 20.0126 1.87429 20.0126H2.47743L1.85381 21.0302C1.78007 21.1505 1.77712 21.3012 1.84607 21.4243C1.91503 21.5474 2.04506 21.6236 2.18615 21.6236H2.78929L2.16557 22.6411C2.05312 22.8247 2.11063 23.0646 2.29424 23.1771C2.35781 23.216 2.42807 23.2345 2.49754 23.2345C2.6286 23.2345 2.75667 23.1684 2.83017 23.0484L3.81754 21.4374C3.89128 21.3172 3.89423 21.1665 3.82528 21.0433C3.75632 20.9202 3.62629 20.8441 3.4852 20.8441Z" fill="black"/>
<path d="M18.2696 4.28419H18.8727L18.2491 5.30175C18.1366 5.48531 18.1941 5.72522 18.3777 5.83772C18.4413 5.87667 18.5116 5.89519 18.581 5.89519C18.7121 5.89519 18.8402 5.82905 18.9137 5.70905L19.901 4.09809C19.9748 3.97781 19.9777 3.82711 19.9088 3.70397C19.8398 3.58087 19.7098 3.50466 19.5687 3.50466H18.9656L19.5892 2.48709C19.7016 2.30353 19.6441 2.06363 19.4605 1.95113C19.2771 1.83867 19.0371 1.89619 18.9246 2.07975L17.9372 3.6907C17.8635 3.81098 17.8605 3.96169 17.9295 4.08483C17.9985 4.20797 18.1285 4.28419 18.2696 4.28419Z" fill="black"/>
<path d="M10.7341 21.1596C10.9494 21.1596 11.1239 20.9851 11.1239 20.7698C11.1239 20.5545 10.9494 20.38 10.7341 20.38C10.5189 20.38 10.3444 20.5545 10.3444 20.7698C10.3444 20.9851 10.5189 21.1596 10.7341 21.1596Z" fill="black"/>
<path d="M10.7341 22.7669C10.9494 22.7669 11.1239 22.5924 11.1239 22.3771C11.1239 22.1618 10.9494 21.9873 10.7341 21.9873C10.5189 21.9873 10.3444 22.1618 10.3444 22.3771C10.3444 22.5924 10.5189 22.7669 10.7341 22.7669Z" fill="black"/>
</g>
<defs>
<clipPath id="clip0_112_714">
<rect width="24" height="24" fill="white"/>
</clipPath>
</defs>
</svg>
