<svg width="24" height="24" viewBox="0 0 24 24" fill="none" xmlns="http://www.w3.org/2000/svg">
<path d="M17.8697 8.00445V16.683C17.8697 18.2931 17.2214 19.7519 16.1719 20.8122C15.1083 21.8871 13.6317 22.5532 12 22.5532C10.3683 22.5532 8.89165 21.8871 7.82806 20.8122C6.77853 19.7519 6.13025 18.2931 6.13025 16.683V8.00445H17.8697Z" fill="#5D5B72"/>
<path d="M16.1718 11.881V20.8122C15.1082 21.887 13.6316 22.5531 11.9999 22.5531C10.3682 22.5531 8.89159 21.887 7.828 20.8122V11.881H16.1718Z" fill="#434259"/>
<path d="M10.598 16.4003H13.4022C15.7999 16.4003 17.7435 18.3439 17.7435 20.7416V23.6484H6.25659V20.7416C6.25659 18.344 8.20031 16.4003 10.598 16.4003Z" fill="#FF5F5F"/>
<path d="M13.402 16.4003H12.6884C14.8234 16.4003 16.5542 18.1311 16.5542 20.2661V23.6484H17.7434V20.7416C17.7434 18.344 15.7997 16.4003 13.402 16.4003Z" fill="#E24B4B"/>
<path d="M10.444 14.3905V16.6702C10.444 17.5294 11.1408 18.2262 12 18.2262C12.4296 18.2262 12.8187 18.0522 13.1001 17.7703C13.3819 17.489 13.556 17.0998 13.556 16.6702V14.3905H10.444Z" fill="#F4AE98"/>
<path d="M15.7316 21.0349V19.8963H8.2685V21.0349L7.4458 21.5409V23.6484H8.2685H15.7316H16.5543V21.5409L15.7316 21.0349Z" fill="#4FA9ED"/>
<path d="M6.02586 10.1355H17.9741C18.55 10.1355 19.0169 10.6024 19.0169 11.1783C19.0169 11.7542 18.55 12.2211 17.9741 12.2211H6.02586C5.44991 12.2211 4.98303 11.7543 4.98303 11.1783C4.98303 10.6024 5.44991 10.1355 6.02586 10.1355Z" fill="#FFD2C0"/>
<path d="M7.32764 8.00455V10.6738C7.32764 13.2543 9.41948 15.3461 12 15.3461C14.5805 15.3461 16.6723 13.2543 16.6723 10.6738V8.00455H7.32764Z" fill="#FFD2C0"/>
<path d="M15.7032 8.00455V10.6738C15.7032 13.2543 14.0452 15.3461 12 15.3461C14.5805 15.3461 16.6724 13.2543 16.6724 10.6738V8.00455H15.7032Z" fill="#F4AE98"/>
<path d="M17.6635 5.98504C17.6555 4.43301 17.0232 3.02859 16.0051 2.01047C14.9799 0.985311 13.5638 0.351562 12 0.351562C8.88232 0.351562 6.35248 2.87067 6.33654 5.98504L3.54932 8.00441H20.4507L17.6635 5.98504Z" fill="#F7E3AA"/>
<path d="M17.6635 5.98504C17.6555 4.43301 17.0232 3.02859 16.005 2.01047C14.9798 0.985311 13.5637 0.351562 12 0.351562C13.2577 0.351562 14.3967 0.985311 15.2213 2.01047C16.0401 3.02859 16.5488 4.43301 16.5552 5.98504L18.7969 8.00441H20.4507L17.6635 5.98504Z" fill="#E0C48C"/>
<path d="M12 13.2903C11.4215 13.2903 10.9524 12.8212 10.9524 12.2426V11.5873H13.0477V12.2426C13.0477 12.8212 12.5786 13.2903 12 13.2903Z" fill="#E1EEF7"/>
<path d="M17.5367 4.81846H6.46334C6.38239 5.19482 6.33861 5.58496 6.33655 5.98503H17.6635C17.6615 5.58496 17.6176 5.19482 17.5367 4.81846Z" fill="#FF5F5F"/>
<path d="M17.6608 5.83715C17.6605 5.82693 17.6599 5.8168 17.6595 5.80663C17.658 5.7674 17.6565 5.72821 17.6543 5.68921C17.6538 5.68044 17.653 5.67177 17.6525 5.663C17.65 5.62246 17.6473 5.58191 17.644 5.5416C17.6435 5.53536 17.6428 5.52918 17.6422 5.52294C17.6385 5.48 17.6345 5.43711 17.6298 5.39446C17.6295 5.3909 17.6289 5.38738 17.6286 5.38382C17.6235 5.33844 17.618 5.29321 17.6119 5.24816C17.6118 5.24694 17.6115 5.24577 17.6114 5.24455C17.5918 5.10074 17.5668 4.95866 17.5367 4.81851H16.4531C16.5182 5.19486 16.5535 5.585 16.5552 5.98508H17.6635C17.6632 5.93558 17.6624 5.88627 17.6608 5.83715Z" fill="#E24B4B"/>
<path d="M12.4453 8.00445C14.5075 8.00445 16.1793 9.6762 16.1793 11.7384V15.9592H17.87V8.00445H12.4453Z" fill="#5D5B72"/>
<path d="M14.0986 10.3154C14.1178 10.328 14.138 10.3388 14.1595 10.3477C14.1806 10.3566 14.2027 10.3632 14.2251 10.3679C14.2476 10.3726 14.2711 10.3744 14.294 10.3744C14.317 10.3744 14.34 10.3726 14.3625 10.3679C14.385 10.3632 14.407 10.3566 14.4281 10.3477C14.4497 10.3388 14.4698 10.328 14.489 10.3154C14.5083 10.3027 14.5261 10.2877 14.5425 10.2718C14.6081 10.2062 14.6456 10.1157 14.6456 10.0234C14.6456 9.93054 14.6081 9.84007 14.5425 9.7745C14.5261 9.75856 14.5083 9.74356 14.489 9.7309C14.4698 9.71825 14.4497 9.70747 14.4281 9.69856C14.407 9.68965 14.385 9.68309 14.3625 9.6784C14.3175 9.6695 14.2706 9.6695 14.2251 9.6784C14.2026 9.68309 14.1806 9.68965 14.1595 9.69856C14.138 9.70747 14.1178 9.71825 14.0986 9.7309C14.0794 9.74356 14.0615 9.75856 14.0451 9.7745C13.98 9.84012 13.942 9.93054 13.942 10.0234C13.942 10.1157 13.98 10.2062 14.0451 10.2718C14.0615 10.2877 14.0794 10.3027 14.0986 10.3154Z" fill="black"/>
<path d="M9.38156 10.1574C9.39051 10.179 9.40124 10.1991 9.41395 10.2184C9.4266 10.2376 9.4416 10.2554 9.45754 10.2718C9.47395 10.2877 9.49176 10.3027 9.51098 10.3154C9.5302 10.328 9.5504 10.3388 9.57145 10.3477C9.59301 10.3566 9.61509 10.3632 9.63754 10.3679C9.66004 10.3726 9.68301 10.3749 9.70598 10.3749C9.72895 10.3749 9.75238 10.3726 9.77493 10.3679C9.79738 10.3632 9.81942 10.3566 9.84051 10.3477C9.86207 10.3388 9.88223 10.328 9.90145 10.3154C9.92067 10.3027 9.93848 10.2877 9.95493 10.2718C9.97087 10.2554 9.98587 10.2376 9.99852 10.2184C10.0112 10.1991 10.022 10.179 10.0309 10.1574C10.0397 10.1363 10.0463 10.1143 10.051 10.0918C10.0557 10.0693 10.058 10.0459 10.058 10.0234C10.058 10.0004 10.0557 9.97695 10.051 9.95445C10.0463 9.93195 10.0398 9.90992 10.0309 9.88882C10.022 9.86726 10.0111 9.84711 9.99852 9.82789C9.98587 9.80867 9.97087 9.79086 9.95493 9.77445C9.93848 9.75851 9.92071 9.74351 9.90145 9.73086C9.88223 9.7182 9.86207 9.70742 9.84051 9.69851C9.81942 9.68961 9.79738 9.68304 9.77493 9.67836C9.72942 9.66945 9.68301 9.66945 9.63754 9.67836C9.61504 9.68304 9.59301 9.68961 9.57145 9.69851C9.5504 9.70742 9.5302 9.7182 9.51098 9.73086C9.49181 9.74351 9.47395 9.75851 9.45754 9.77445C9.4416 9.79086 9.4266 9.80867 9.41395 9.82789C9.40124 9.84711 9.39051 9.86726 9.38156 9.88882C9.3727 9.90992 9.36609 9.93195 9.3614 9.95445C9.35667 9.97695 9.35437 10.0004 9.35437 10.0234C9.35437 10.0459 9.35671 10.0693 9.3614 10.0918C9.36609 10.1143 9.3727 10.1363 9.38156 10.1574Z" fill="black"/>
<path d="M14.489 9.73086C14.4698 9.7182 14.4497 9.70742 14.4281 9.69851C14.407 9.68961 14.385 9.68304 14.3625 9.67836C14.3175 9.66945 14.2706 9.66945 14.2251 9.67836C14.2026 9.68304 14.1806 9.68961 14.1595 9.69851C14.138 9.70742 14.1178 9.7182 14.0986 9.73086C14.0794 9.74351 14.0615 9.75851 14.0451 9.77445C13.98 9.84007 13.942 9.9305 13.942 10.0233C13.942 10.1157 13.98 10.2061 14.0451 10.2717C14.0615 10.2877 14.0793 10.3027 14.0986 10.3153C14.1178 10.328 14.138 10.3388 14.1595 10.3477C14.1806 10.3566 14.2027 10.3632 14.2251 10.3678C14.2476 10.3725 14.2711 10.3744 14.294 10.3744C14.317 10.3744 14.34 10.3725 14.3625 10.3678C14.385 10.3632 14.407 10.3566 14.4281 10.3477C14.4497 10.3388 14.4698 10.328 14.489 10.3153C14.5083 10.3027 14.5261 10.2877 14.5425 10.2717C14.6081 10.2061 14.6456 10.1157 14.6456 10.0233C14.6456 9.9305 14.6081 9.84003 14.5425 9.77445C14.5261 9.75851 14.5083 9.74351 14.489 9.73086Z" fill="black"/>
<path d="M9.41395 10.2184C9.4266 10.2376 9.4416 10.2554 9.45754 10.2718C9.47395 10.2877 9.49176 10.3027 9.51098 10.3154C9.5302 10.328 9.5504 10.3388 9.57145 10.3477C9.59301 10.3566 9.61509 10.3632 9.63754 10.3679C9.66004 10.3726 9.68301 10.3749 9.70598 10.3749C9.72895 10.3749 9.75238 10.3726 9.77493 10.3679C9.79738 10.3632 9.81942 10.3566 9.84051 10.3477C9.86207 10.3388 9.88223 10.328 9.90145 10.3154C9.92067 10.3027 9.93848 10.2877 9.95493 10.2718C9.97087 10.2554 9.98587 10.2376 9.99852 10.2184C10.0112 10.1991 10.022 10.179 10.0309 10.1574C10.0397 10.1363 10.0463 10.1143 10.051 10.0918C10.0557 10.0693 10.058 10.0459 10.058 10.0234C10.058 10.0004 10.0557 9.97695 10.051 9.95445C10.0463 9.93195 10.0398 9.90992 10.0309 9.88882C10.022 9.86726 10.0111 9.84711 9.99852 9.82789C9.98587 9.80867 9.97087 9.79086 9.95493 9.77445C9.93848 9.75851 9.92071 9.74351 9.90145 9.73086C9.88223 9.7182 9.86207 9.70742 9.84051 9.69851C9.81942 9.68961 9.79738 9.68304 9.77493 9.67836C9.72942 9.66945 9.68301 9.66945 9.63754 9.67836C9.61504 9.68304 9.59301 9.68961 9.57145 9.69851C9.5504 9.70742 9.5302 9.7182 9.51098 9.73086C9.49181 9.74351 9.47395 9.75851 9.45754 9.77445C9.4416 9.79086 9.4266 9.80867 9.41395 9.82789C9.40124 9.84711 9.39051 9.86726 9.38156 9.88882C9.3727 9.90992 9.36609 9.93195 9.3614 9.95445C9.35667 9.97695 9.35437 10.0004 9.35437 10.0234C9.35437 10.0459 9.35671 10.0693 9.3614 10.0918C9.36609 10.1143 9.37265 10.1363 9.38156 10.1574C9.39051 10.179 9.40124 10.1991 9.41395 10.2184Z" fill="black"/>
<path d="M10.5937 21.8984H13.4063C13.6005 21.8984 13.7579 21.741 13.7579 21.5468C13.7579 21.3527 13.6005 21.1953 13.4063 21.1953H10.5937C10.3995 21.1953 10.2422 21.3527 10.2422 21.5468C10.2422 21.741 10.3995 21.8984 10.5937 21.8984Z" fill="black"/>
<path d="M13.0476 11.2357H10.9523C10.7581 11.2357 10.6007 11.3931 10.6007 11.5873C10.6007 11.7814 10.7581 11.9389 10.9523 11.9389H12.696V12.2426C12.696 12.4219 12.6279 12.5923 12.5043 12.7222C12.3715 12.8618 12.1924 12.9386 11.9999 12.9386C11.7195 12.9386 11.4677 12.7717 11.3583 12.5134C11.2907 12.3532 11.1181 12.2698 10.9545 12.3083C10.9354 12.3128 10.9163 12.3186 10.8976 12.3266C10.7187 12.4022 10.6351 12.6085 10.7108 12.7873C10.9304 13.3063 11.4364 13.6417 11.9999 13.6417C12.3813 13.6417 12.7509 13.4832 13.0138 13.2068C13.2623 12.9456 13.3991 12.6031 13.3991 12.2426V11.5873C13.3991 11.3931 13.2418 11.2357 13.0476 11.2357Z" fill="black"/>
<path d="M20.657 7.71974L18.0114 5.80307C17.9588 4.27607 17.3386 2.8469 16.2536 1.76193C15.1175 0.625733 13.6069 0 12.0001 0C10.399 0 8.89207 0.621936 7.75718 1.75115C6.66527 2.83762 6.04132 4.27059 5.98859 5.80302L3.34306 7.71969C3.21964 7.80913 3.16794 7.96784 3.2149 8.11283C3.26192 8.25777 3.39697 8.35597 3.54936 8.35597H5.77854V9.80632C5.12735 9.92347 4.63156 10.4939 4.63156 11.1783C4.63156 11.8627 5.12735 12.4331 5.77854 12.5502V16.683C5.77854 17.5081 5.94035 18.2959 6.23332 19.0171C6.02154 19.5512 5.90506 20.133 5.90506 20.7416V23.6483C5.90506 23.8425 6.06241 23.9999 6.25662 23.9999H7.44574H16.5543H17.7434C17.9376 23.9999 18.095 23.8425 18.095 23.6483V20.7417C18.095 19.9578 17.9015 19.2184 17.5603 18.5682C17.2257 17.9306 16.7487 17.3791 16.1719 16.9559C15.8111 16.6912 15.4114 16.4768 14.9829 16.3231V16.1264C14.9829 15.9322 14.8255 15.7748 14.6313 15.7748C14.4371 15.7748 14.2798 15.9322 14.2798 16.1264V16.1315C14.1573 16.1082 14.0332 16.0896 13.9076 16.0761V15.3212C14.6547 15.0134 15.3118 14.5306 15.8276 13.924V15.9593C15.8276 16.151 15.9811 16.3066 16.1719 16.3105C16.1743 16.3105 16.1767 16.3109 16.1792 16.3109C16.3734 16.3109 16.5308 16.1535 16.5308 15.9593V11.7385C16.5308 10.3334 15.8176 9.09162 14.7345 8.35611H17.87H20.4508C20.6032 8.35611 20.7382 8.25791 20.7852 8.11297C20.8321 7.96789 20.7804 7.80917 20.657 7.71974ZM17.87 7.65289H12.4454H6.13006H4.63376L6.45044 6.33664H14.3125C14.5067 6.33664 14.6641 6.17924 14.6641 5.98508C14.6641 5.79093 14.5067 5.63352 14.3125 5.63352H6.70155C6.71262 5.47822 6.73048 5.32349 6.75504 5.17007H8.32811C8.52232 5.17007 8.67968 5.01266 8.67968 4.81851C8.67968 4.62435 8.52232 4.46694 8.32811 4.46694H6.91905C7.58482 2.29204 9.61422 0.703124 12.0001 0.703124C12.9464 0.703124 13.8548 0.94917 14.6527 1.41051C15.0512 1.64095 15.4223 1.92482 15.7565 2.25909C16.3829 2.88543 16.8336 3.64162 17.0838 4.4669H16.3829H9.78128C9.58708 4.4669 9.42972 4.6243 9.42972 4.81846C9.42972 5.01262 9.58708 5.17002 9.78128 5.17002H16.5043H17.2449C17.2694 5.32349 17.2873 5.47818 17.2984 5.63347H16.5447H15.7188C15.5246 5.63347 15.3672 5.79088 15.3672 5.98504C15.3672 6.17919 15.5246 6.3366 15.7188 6.3366H16.9455H17.5495L19.3662 7.65284H18.4066H17.8699V7.65289H17.87ZM17.3919 23.2968H16.9059V21.541C16.9059 21.4189 16.8425 21.3055 16.7386 21.2416L16.5543 21.1283L16.0832 20.8385V19.8964C16.0832 19.7023 15.9258 19.5449 15.7316 19.5449H14.983V17.1552V17.0792C16.3987 17.6927 17.392 19.1031 17.392 20.7418L17.3919 23.2968ZM6.60813 23.2968V20.7416C6.60813 19.1031 7.60132 17.6926 9.01713 17.0791V19.5448H8.26849C8.07429 19.5448 7.91693 19.7022 7.91693 19.8963V20.8384L7.26157 21.2415C7.15755 21.3054 7.09423 21.4188 7.09423 21.5409V23.2967L6.60813 23.2968ZM6.48162 16.683V12.5727H7.34913C7.47879 12.8891 7.63957 13.1894 7.82805 13.4698C8.37982 14.2904 9.16717 14.9399 10.0923 15.321V16.076C9.96672 16.0895 9.84264 16.1081 9.7202 16.1313V16.1262C9.7202 15.9321 9.56285 15.7747 9.36864 15.7747C9.17444 15.7747 9.01708 15.9321 9.01708 16.1262V16.3229C8.5886 16.4767 8.18885 16.6911 7.8281 16.9557C7.37885 17.2853 6.99021 17.6927 6.68215 18.1581C6.55165 17.6885 6.48162 17.1938 6.48162 16.683ZM5.33463 11.1783C5.33463 10.7972 5.64471 10.487 6.0259 10.487H6.9761V10.6737C6.9761 11.0857 7.0263 11.4861 7.12029 11.8696H6.0259C5.64476 11.8696 5.33463 11.5594 5.33463 11.1783ZM6.97615 8.35602V9.78392H6.48166V8.35602H6.97615ZM7.7973 21.7375L8.45266 21.3344C8.55668 21.2704 8.62 21.1571 8.62 21.035V20.248H9.01708V20.5794C9.01708 20.7736 9.17444 20.931 9.36864 20.931C9.56285 20.931 9.7202 20.7736 9.7202 20.5794V19.8964V16.8504C9.84349 16.8226 9.96883 16.8006 10.0961 16.7845C10.1554 17.7834 10.9865 18.5778 12 18.5778C12.5099 18.5778 12.989 18.3793 13.3485 18.0192C13.6819 17.6863 13.8765 17.2514 13.9039 16.7845C14.0311 16.8006 14.1565 16.8226 14.2798 16.8503V19.5448H10.7695C10.5753 19.5448 10.418 19.7022 10.418 19.8964C10.418 20.0905 10.5753 20.2479 10.7695 20.2479H14.2798V20.5794C14.2798 20.7735 14.4372 20.9309 14.6314 20.9309C14.8255 20.9309 14.9829 20.7735 14.9829 20.5794V20.2479H15.38V21.0349C15.38 21.157 15.4434 21.2704 15.5474 21.3344L16.2027 21.7374V23.2968H7.7973V21.7375ZM13.2045 16.6702C13.2045 16.9921 13.0792 17.2944 12.8514 17.5219C12.6243 17.7494 12.3219 17.8747 12.0001 17.8747C11.3359 17.8747 10.7956 17.3343 10.7956 16.6702V15.5513C11.1817 15.6467 11.585 15.6976 12.0001 15.6976C12.4151 15.6976 12.8185 15.6467 13.2045 15.5513V16.6702ZM15.7011 10.824C15.783 11.115 15.8277 11.4215 15.8277 11.7384V12.6764C15.4751 13.3475 14.9514 13.9151 14.3147 14.3207C13.6452 14.7471 12.851 14.9945 12.0001 14.9945C9.61755 14.9945 7.67927 13.0562 7.67927 10.6737V8.35611H12.449C13.9955 8.35775 15.3014 9.40306 15.7011 10.824Z" fill="black"/>
<path d="M17.5184 9.63101V10.1232V15.9592V16.683C17.5184 16.8808 17.5078 17.0803 17.4869 17.2758C17.4667 17.4652 17.6009 17.6351 17.7882 17.661C17.7918 17.6615 17.7954 17.6624 17.7992 17.6627C17.8119 17.6641 17.8245 17.6648 17.8369 17.6648C18.0144 17.6648 18.1668 17.5309 18.1861 17.3505C18.2096 17.1302 18.2215 16.9057 18.2215 16.6831V15.9592V12.5503C18.8727 12.4331 19.3685 11.8627 19.3685 11.1783C19.3685 10.4939 18.8727 9.92351 18.2215 9.80637V9.63101C18.2215 9.43686 18.0642 9.27945 17.87 9.27945C17.6758 9.27945 17.5184 9.43686 17.5184 9.63101ZM18.2215 11.823V10.5336C18.4807 10.6335 18.6654 10.8844 18.6654 11.1784C18.6654 11.4722 18.4807 11.7232 18.2215 11.823Z" fill="black"/>
</svg>
