<svg width="24" height="24" viewBox="0 0 24 24" fill="none" xmlns="http://www.w3.org/2000/svg">
<g clip-path="url(#clip0_112_671)">
<path fill-rule="evenodd" clip-rule="evenodd" d="M14.8 17.2V21.6C14.8 22.7046 13.9046 23.6 12.8 23.6H2.40002C1.86959 23.6 1.36088 23.3893 0.985811 23.0142C0.610738 22.6391 0.400024 22.1304 0.400024 21.6V10.4C0.400024 9.29542 1.29545 8.39999 2.40002 8.39999H12.8C13.0929 8.40157 13.382 8.46566 13.648 8.58799L7.49602 14.132C7.41267 14.2076 7.34475 14.2986 7.29602 14.4C7.23197 14.5235 7.19902 14.6608 7.20002 14.8C7.20002 15.4627 7.73728 16 8.40002 16H14V16.4C14.0013 16.8413 14.3587 17.1987 14.8 17.2Z" fill="#FFDC00"/>
<path fill-rule="evenodd" clip-rule="evenodd" d="M14 16.4V16H12.8V16.4C12.8013 16.8413 13.1587 17.1987 13.6 17.2V21.6C13.6 22.7046 12.7045 23.6 11.6 23.6H12.8C13.9045 23.6 14.8 22.7046 14.8 21.6V17.2C14.3587 17.1987 14.0013 16.8413 14 16.4Z" fill="#FEC108"/>
<path fill-rule="evenodd" clip-rule="evenodd" d="M14.8001 10.4V13.2C14.3588 13.2013 14.0014 13.5587 14.0001 14V14.4H9.50806L14.7001 9.776C14.7662 9.97739 14.8 10.188 14.8001 10.4Z" fill="#FFDC00"/>
<path fill-rule="evenodd" clip-rule="evenodd" d="M14.7 9.776L13.6 10.7556V13.2C13.1587 13.2013 12.8013 13.5587 12.8 14V14.4H14V14C14.0013 13.5587 14.3587 13.2013 14.8 13.2V10.4C14.7999 10.188 14.7662 9.97739 14.7 9.776Z" fill="#FEC108"/>
<path fill-rule="evenodd" clip-rule="evenodd" d="M4.00002 8.39999V5.72719C3.97383 3.80143 5.43508 2.18033 7.35322 2.00719C8.34848 1.93987 9.32711 2.28811 10.0561 2.96899C10.7851 3.64986 11.1993 4.60247 11.2 5.59999C11.2 6.04182 11.5582 6.39999 12 6.39999C12.4419 6.39999 12.8 6.04182 12.8 5.59999C12.8 4.22087 12.2522 2.89823 11.277 1.92304C10.3018 0.947849 8.97915 0.399994 7.60002 0.399994C4.72814 0.399994 2.40002 2.72811 2.40002 5.59999V8.39999H4.00002Z" fill="#7F8E94"/>
<path fill-rule="evenodd" clip-rule="evenodd" d="M8.49999 19.6H6.69999C6.48997 19.599 6.29134 19.5044 6.15827 19.3419C6.02519 19.1795 5.97156 18.9661 6.01199 18.76L6.47599 16.456C5.74808 15.9631 5.42741 15.0526 5.68575 14.2123C5.94409 13.372 6.72087 12.7989 7.59999 12.8C7.96888 12.7986 8.3307 12.9012 8.64399 13.096L7.49599 14.132C7.41263 14.2076 7.34472 14.2986 7.29599 14.4C7.23194 14.5235 7.19898 14.6608 7.19999 14.8C7.19999 15.4627 7.73725 16 8.39999 16H9.19599C9.06637 16.1783 8.90664 16.3326 8.72399 16.456L9.18799 18.76C9.22842 18.9661 9.17478 19.1795 9.04171 19.3419C8.90863 19.5044 8.71 19.599 8.49999 19.6Z" fill="#FF9801"/>
<path fill-rule="evenodd" clip-rule="evenodd" d="M16.2852 8.90001L14.68 7.11561C14.5381 6.95782 14.4647 6.7501 14.4759 6.53818C14.4872 6.32625 14.5822 6.12747 14.74 5.98561L15.082 5.67801C15.2032 5.56205 15.3843 5.53512 15.534 5.61081C15.8335 5.78112 16.2083 5.7406 16.4645 5.51023C16.7206 5.27986 16.8005 4.91138 16.6628 4.59561C16.6033 4.43884 16.6494 4.26162 16.7776 4.15361L20.66 0.605206C20.9885 0.309915 21.4942 0.336775 21.7896 0.665206L23.3944 2.44961C23.5363 2.60739 23.6098 2.81511 23.5985 3.02704C23.5873 3.23896 23.4923 3.43774 23.3344 3.57961L19.452 7.12761C19.3309 7.24369 19.1498 7.27079 19 7.19521C18.7007 7.02538 18.3262 7.06606 18.0703 7.2962C17.8144 7.52635 17.7344 7.89437 17.8716 8.21001C17.931 8.3669 17.885 8.5442 17.7568 8.65241L17.4148 8.96001C17.0863 9.2553 16.5806 9.22844 16.2852 8.90001Z" fill="#F44335"/>
<path fill-rule="evenodd" clip-rule="evenodd" d="M23.3948 2.44961L21.79 0.665206C21.4946 0.336775 20.9889 0.309915 20.6604 0.605206L20.592 0.667606L22.1948 2.44961C22.3367 2.60739 22.4101 2.81511 22.3989 3.02704C22.3876 3.23896 22.2926 3.43774 22.1348 3.57961L18.2524 7.12761C18.1313 7.24369 17.9501 7.27079 17.8004 7.19521C17.501 7.02538 17.1266 7.06606 16.8707 7.2962C16.6148 7.52635 16.5347 7.89437 16.672 8.21001C16.7314 8.3669 16.6854 8.5442 16.5572 8.65241L16.2836 8.89801C16.4254 9.05585 16.6242 9.15085 16.8361 9.1621C17.0481 9.17336 17.2558 9.09994 17.4136 8.95801L17.7556 8.65041C17.8838 8.5422 17.9298 8.3649 17.8704 8.20801C17.734 7.89228 17.8147 7.52473 18.0707 7.29515C18.3268 7.06556 18.7009 7.02532 19 7.19521C19.1497 7.27079 19.3309 7.24369 19.452 7.12761L23.3344 3.57961C23.4923 3.43779 23.5873 3.23905 23.5987 3.02712C23.61 2.81519 23.5367 2.60744 23.3948 2.44961Z" fill="#C81E1E"/>
<path fill-rule="evenodd" clip-rule="evenodd" d="M23.6 14V16.4C23.5987 16.8413 23.2413 17.1987 22.8 17.2H17.54C17.3726 17.2055 17.2201 17.1044 17.16 16.948C17.0521 16.6197 16.7456 16.3978 16.4 16.3978C16.0544 16.3978 15.7479 16.6197 15.64 16.948C15.5799 17.1044 15.4274 17.2055 15.26 17.2H14.8C14.3587 17.1987 14.0013 16.8413 14 16.4V14C14.0013 13.5587 14.3587 13.2013 14.8 13.2H15.26C15.4274 13.1945 15.5799 13.2956 15.64 13.452C15.7479 13.7803 16.0544 14.0022 16.4 14.0022C16.7456 14.0022 17.0521 13.7803 17.16 13.452C17.2201 13.2956 17.3726 13.1945 17.54 13.2H22.8C23.2413 13.2013 23.5987 13.5587 23.6 14Z" fill="#F44335"/>
<path fill-rule="evenodd" clip-rule="evenodd" d="M22.8 13.2H21.6C22.0413 13.2013 22.3987 13.5587 22.4 14V16.4C22.3987 16.8413 22.0413 17.1987 21.6 17.2H22.8C23.2413 17.1987 23.5987 16.8413 23.6 16.4V14C23.5987 13.5587 23.2413 13.2013 22.8 13.2Z" fill="#C81E1E"/>
<path fill-rule="evenodd" clip-rule="evenodd" d="M16.016 8.604L14.7 9.776L9.50802 14.4H7.29602C7.34475 14.2986 7.41267 14.2076 7.49602 14.132L8.64402 13.096L13.648 8.588L14.948 7.416L16.016 8.604Z" fill="#607D8B"/>
<path fill-rule="evenodd" clip-rule="evenodd" d="M14 14.4V16H8.39997C7.73723 16 7.19997 15.4627 7.19997 14.8C7.19897 14.6608 7.23192 14.5235 7.29597 14.4H14Z" fill="#7F8E94"/>
<path d="M22.8 12.8H17.54C17.2001 12.7934 16.894 13.0049 16.78 13.3252C16.726 13.4894 16.5728 13.6003 16.4 13.6003C16.2272 13.6003 16.074 13.4894 16.02 13.3252C15.906 13.0049 15.5999 12.7934 15.26 12.8H15.2V10.4C15.1979 10.237 15.1792 10.0747 15.144 9.9156L15.9864 9.1656C16.1986 9.40309 16.4971 9.54559 16.8152 9.5612H16.88C17.1756 9.56144 17.4607 9.45181 17.68 9.2536L18.0224 8.946C18.2796 8.72342 18.3658 8.36137 18.2364 8.0468C18.1687 7.88852 18.2083 7.70475 18.3352 7.5884C18.4634 7.47314 18.651 7.45299 18.8008 7.5384C19.1012 7.70114 19.4722 7.65275 19.7208 7.4184L23.6008 3.872C23.8374 3.65915 23.9798 3.361 23.9966 3.04316C24.0134 2.72532 23.9033 2.41382 23.6904 2.1772L22.0876 0.3976C21.6431 -0.0949993 20.8835 -0.134382 20.3904 0.3096L16.5104 3.856C16.2526 4.07821 16.1662 4.44058 16.296 4.7552C16.3635 4.91337 16.3239 5.09692 16.1972 5.2132C16.0689 5.32833 15.8813 5.34832 15.7316 5.2628C15.4325 5.10086 15.0634 5.14821 14.8148 5.3804L14.4724 5.6884C14.2358 5.90125 14.0934 6.1994 14.0766 6.51724C14.0598 6.83508 14.1699 7.14658 14.3828 7.3832L13.5616 8.1236C13.316 8.04181 13.0589 8.00007 12.8 8H4.4V5.7268C4.36955 4.0101 5.67 2.56128 7.38 2.4068C8.26571 2.34339 9.13751 2.65368 9.784 3.2624C10.4304 3.86824 10.798 4.71406 10.8 5.6C10.8 6.26274 11.3373 6.8 12 6.8C12.6627 6.8 13.2 6.26274 13.2 5.6C13.2 2.50721 10.6928 0 7.6 0C4.50721 0 2 2.50721 2 5.6V8.036C0.846679 8.23195 0.00217186 9.23015 0 10.4V21.6C0.00132295 22.9249 1.07507 23.9987 2.4 24H12.8C14.1249 23.9987 15.1987 22.9249 15.2 21.6V17.6H15.26C15.5999 17.6066 15.906 17.3951 16.02 17.0748C16.074 16.9107 16.2272 16.7997 16.4 16.7997C16.5728 16.7997 16.726 16.9107 16.78 17.0748C16.894 17.3951 17.2001 17.6066 17.54 17.6H22.8C23.4627 17.6 24 17.0627 24 16.4V14C24 13.3373 23.4627 12.8 22.8 12.8ZM14.4 12.8736C13.9223 13.0425 13.6021 13.4933 13.6 14H10.56L14.4 10.5788V12.8736ZM13.6 15.6H8.4C7.95817 15.6 7.6 15.2418 7.6 14.8H13.6V15.6ZM6.7012 16.1252C6.06677 15.7028 5.81946 14.8908 6.1107 14.1864C6.40195 13.482 7.1505 13.0818 7.898 13.2308L7.2272 13.8352C6.95532 14.0823 6.80022 14.4326 6.8 14.8C6.80285 15.655 7.47739 16.3567 8.3316 16.3932C8.32318 16.44 8.32318 16.488 8.3316 16.5348L8.7948 18.836C8.81293 18.9263 8.78926 19.02 8.7304 19.0908C8.67394 19.16 8.58932 19.2001 8.5 19.2H6.7C6.61054 19.2002 6.52574 19.1601 6.4692 19.0908C6.4108 19.021 6.38686 18.9286 6.404 18.8392L6.868 16.5348C6.8998 16.3772 6.83409 16.2158 6.7012 16.1252ZM15.008 6.2832L15.3372 5.9588C15.7862 6.21415 16.3482 6.15357 16.7324 5.8084C17.112 5.46589 17.238 4.92309 17.048 4.4484L20.928 0.9024C21.0069 0.831373 21.1108 0.794625 21.2168 0.800252C21.3228 0.805879 21.4223 0.853419 21.4932 0.9324L23.0976 2.7168C23.1688 2.79609 23.2055 2.90053 23.1994 3.00694C23.1933 3.11336 23.145 3.21294 23.0652 3.2836L19.198 6.8464C18.7507 6.59404 18.1926 6.65279 17.8076 6.99277C17.4226 7.33275 17.2953 7.87929 17.4904 8.3544L17.148 8.662C16.9837 8.80965 16.7309 8.79622 16.5832 8.632L16.3164 8.3356L15.2484 7.1476H15.2456L14.9792 6.8512C14.9072 6.77232 14.8697 6.66789 14.8751 6.56119C14.8805 6.45449 14.9283 6.35439 15.008 6.2832ZM15.4512 8.5708L9.3556 14H8.24L14.92 7.9796L15.4512 8.5708ZM7.6 0.8C10.2498 0.802866 12.3971 2.95022 12.4 5.6C12.4 5.82091 12.2209 6 12 6C11.7791 6 11.6 5.82091 11.6 5.6C11.5974 4.49328 11.138 3.43674 10.3304 2.68C9.52334 1.91796 8.4335 1.52962 7.3264 1.6096C5.19784 1.79459 3.5725 3.59039 3.6 5.7268V8H2.8V5.6C2.80287 2.95022 4.95022 0.802866 7.6 0.8ZM12.8 23.2H2.4C1.51634 23.2 0.8 22.4837 0.8 21.6V10.4C0.8 9.51634 1.51634 8.8 2.4 8.8H12.8H12.8128L8.5828 12.612C7.49577 12.126 6.21676 12.5105 5.57789 13.5153C4.93902 14.5201 5.1335 15.8415 6.0348 16.6196L5.6192 18.6832C5.55566 19.0067 5.63999 19.3416 5.84913 19.5964C6.05828 19.8512 6.37035 19.9993 6.7 20H8.5C8.82818 20.0003 9.13924 19.8536 9.3476 19.6C9.55914 19.3437 9.64459 19.0061 9.5804 18.68L9.1656 16.62C9.23767 16.5509 9.3054 16.4774 9.3684 16.4H13.6C13.6021 16.9067 13.9223 17.3575 14.4 17.5264V21.6C14.4 22.4837 13.6837 23.2 12.8 23.2ZM23.2 16.4C23.2 16.6209 23.0209 16.8 22.8 16.8L17.5384 16.8208C17.3752 16.3307 16.9166 16 16.4 16C15.8895 16 15.4337 16.3199 15.26 16.8H14.8C14.5791 16.8 14.4 16.6209 14.4 16.4V14C14.4 13.7791 14.5791 13.6 14.8 13.6L15.2616 13.5792C15.4248 14.0693 15.8834 14.4 16.4 14.4C16.9105 14.4 17.3663 14.0801 17.54 13.6H22.8C23.0209 13.6 23.2 13.7791 23.2 14V16.4Z" fill="black"/>
</g>
<defs>
<clipPath id="clip0_112_671">
<rect width="24" height="24" fill="white"/>
</clipPath>
</defs>
</svg>
