<svg width="24" height="24" viewBox="0 0 24 24" fill="none" xmlns="http://www.w3.org/2000/svg">
<path d="M20.4638 2.75246H18.5228V3.83841H20.4638C20.7025 3.83841 20.9939 4.09088 20.9939 4.38558V7.05633C20.9939 7.39411 20.702 7.74169 20.3693 7.80005L13.0431 9.08564C12.1892 9.2355 11.5203 10.032 11.5203 10.899V14.2957H12.6062V10.899C12.6062 10.5612 12.8981 10.2136 13.2308 10.1553L20.557 8.86978C21.4109 8.71993 22.0798 7.92343 22.0798 7.05643V4.38558C22.0798 3.51563 21.3246 2.75246 20.4638 2.75246Z" fill="#4EB9FF"/>
<path d="M13.6858 16.039L14.1556 13.2097L13.6858 16.039Z" fill="#FF755C"/>
<path d="M2.46292 2.75246C2.16306 2.75246 1.91992 2.99555 1.91992 3.29546C1.91992 3.59536 2.16306 3.83846 2.46292 3.83846H4.37336V2.75246H2.46292Z" fill="#4EB9FF"/>
<path d="M10.4408 16.039V22.4389C10.4408 23.0011 10.8967 23.457 11.4589 23.457H12.6677C13.23 23.457 13.6858 23.0011 13.6858 22.4389V16.039L12.0633 14.953L10.4408 16.039ZM12.6063 21.8281C12.6063 22.128 12.3632 22.371 12.0633 22.371C11.7635 22.371 11.5203 22.128 11.5203 21.8281V21.0954C11.5203 20.7955 11.7635 20.5524 12.0633 20.5524C12.3632 20.5524 12.6063 20.7955 12.6063 21.0954V21.8281Z" fill="#FF4181"/>
<path d="M9.97083 13.2097L10.4407 16.039H13.6857L14.1556 13.2097H9.97083Z" fill="#FF80AB"/>
<path d="M19.6088 4.68525C19.6088 5.43783 18.9988 6.04791 18.2462 6.04791H4.65013C3.89755 6.04791 3.28748 5.43783 3.28748 4.68525V1.90566C3.28748 1.15308 3.89755 0.542999 4.65013 0.542999H18.2462C18.9988 0.542999 19.6088 1.15308 19.6088 1.90566V4.68525Z" fill="#FFCE47"/>
<path d="M11.5203 21.0954V21.828C11.5203 22.128 11.7634 22.371 12.0633 22.371C12.3631 22.371 12.6063 22.128 12.6063 21.828V21.0954C12.6063 20.7955 12.3631 20.5524 12.0633 20.5524C11.7635 20.5525 11.5203 20.7956 11.5203 21.0954Z" fill="#01121C"/>
<path d="M20.4638 2.75245H20.1518V1.90566C20.1518 0.854859 19.2969 0 18.2461 0H4.65006C3.59931 0 2.74441 0.854859 2.74441 1.90566V2.7525H2.46292C2.16306 2.7525 1.91992 2.99559 1.91992 3.2955C1.91992 3.59541 2.16306 3.8385 2.46292 3.8385H2.74441V4.6853C2.74441 5.73609 3.59927 6.59095 4.65006 6.59095H18.2461C19.2969 6.59095 20.1518 5.73609 20.1518 4.6853V3.83841H20.4638C20.7025 3.83841 20.9939 4.09087 20.9939 4.38558V7.05633C20.9939 7.39411 20.702 7.74169 20.3693 7.80005L13.0431 9.08564C12.1892 9.2355 11.5202 10.032 11.5202 10.899V12.6667H9.97084C9.81133 12.6667 9.65978 12.7369 9.55666 12.8587C9.45348 12.9803 9.409 13.1413 9.4352 13.2987L9.89777 16.0838V22.4389C9.89777 23.2997 10.5981 24 11.4588 24H12.6677C13.5285 24 14.2288 23.2997 14.2288 22.4389V16.0837L14.6913 13.2986C14.7175 13.1412 14.6731 12.9802 14.5699 12.8586C14.4668 12.7369 14.3153 12.6667 14.1557 12.6667H12.6063V10.899C12.6063 10.5612 12.8982 10.2136 13.231 10.1552L20.5571 8.86973C21.4111 8.71987 22.08 7.92337 22.08 7.05637V4.38558C22.0798 3.51562 21.3246 2.75245 20.4638 2.75245ZM19.0658 4.68525C19.0658 5.13722 18.6981 5.50495 18.2461 5.50495H4.65006C4.19809 5.50495 3.83036 5.13727 3.83036 4.68525V1.90566C3.83036 1.45369 4.198 1.08595 4.65006 1.08595H18.2461C18.6981 1.08595 19.0658 1.45364 19.0658 1.90566V4.68525H19.0658ZM13.1501 15.9501C13.1452 15.9795 13.1428 16.0092 13.1428 16.039V22.4389C13.1428 22.7009 12.9296 22.914 12.6677 22.914H11.4588C11.1968 22.914 10.9837 22.7009 10.9837 22.4389V16.582H11.5138C11.8136 16.582 12.0568 16.3389 12.0568 16.039C12.0568 15.7391 11.8136 15.496 11.5138 15.496H10.901L10.6115 13.7527H13.5151L13.1501 15.9501Z" fill="#01121C"/>
</svg>
