<svg width="30" height="30" viewBox="0 0 30 30" fill="none" xmlns="http://www.w3.org/2000/svg">
<path d="M25.3125 13.125H23.4375V11.25C23.4375 10.2141 22.5984 9.375 21.5625 9.375H18.75V8.4375C18.75 7.92188 18.3281 7.5 17.8125 7.5H5.15625V18.75V20.625H27.1875V18.75V15C27.1875 13.9641 26.3484 13.125 25.3125 13.125Z" fill="#FFCC4D"/>
<path d="M23.4375 11.25V13.125H18.75V9.375H21.5625C22.5984 9.375 23.4375 10.2141 23.4375 11.25Z" fill="#A4F2FF"/>
<path d="M27.1875 15V18.75H18.75V13.125H23.4375H25.3125C26.3484 13.125 27.1875 13.9641 27.1875 15Z" fill="#EE3A43"/>
<path d="M27.1875 18.75V20.625H5.15625V18.75H18.75H27.1875Z" fill="#FFB07B"/>
<path d="M21.5625 22.5C22.598 22.5 23.4375 21.6605 23.4375 20.625C23.4375 19.5895 22.598 18.75 21.5625 18.75C20.527 18.75 19.6875 19.5895 19.6875 20.625C19.6875 21.6605 20.527 22.5 21.5625 22.5Z" fill="#8E8E8E"/>
<path d="M11.25 22.5C12.2855 22.5 13.125 21.6605 13.125 20.625C13.125 19.5895 12.2855 18.75 11.25 18.75C10.2145 18.75 9.375 19.5895 9.375 20.625C9.375 21.6605 10.2145 22.5 11.25 22.5Z" fill="#8E8E8E"/>
<path d="M27.1875 21.0938H25.3125C25.0538 21.0938 24.8438 20.8842 24.8438 20.625C24.8438 20.3658 25.0538 20.1562 25.3125 20.1562H27.1875C27.4462 20.1562 27.6562 20.3658 27.6562 20.625C27.6562 20.8842 27.4462 21.0938 27.1875 21.0938Z" fill="black"/>
<path d="M27.1875 21.0938C26.9288 21.0938 26.7188 20.8842 26.7188 20.625V15C26.7188 14.7408 26.9288 14.5312 27.1875 14.5312C27.4463 14.5312 27.6562 14.7408 27.6562 15V20.625C27.6562 20.8842 27.4463 21.0938 27.1875 21.0938Z" fill="black"/>
<path d="M5.15625 19.2188C4.8975 19.2188 4.6875 19.0092 4.6875 18.75V15C4.6875 14.7408 4.8975 14.5312 5.15625 14.5312C5.415 14.5312 5.625 14.7408 5.625 15V18.75C5.625 19.0092 5.415 19.2188 5.15625 19.2188Z" fill="black"/>
<path d="M18.75 19.2188C18.4913 19.2188 18.2812 19.0092 18.2812 18.75V8.4375C18.2812 8.17828 18.4913 7.96875 18.75 7.96875C19.0088 7.96875 19.2188 8.17828 19.2188 8.4375V18.75C19.2188 19.0092 19.0088 19.2188 18.75 19.2188Z" fill="black"/>
<path d="M27.1875 19.2188H5.15625C4.8975 19.2188 4.6875 19.0092 4.6875 18.75C4.6875 18.4908 4.8975 18.2812 5.15625 18.2812H27.1875C27.4463 18.2812 27.6562 18.4908 27.6562 18.75C27.6562 19.0092 27.4463 19.2188 27.1875 19.2188Z" fill="black"/>
<path d="M5.15625 21.0938C4.8975 21.0938 4.6875 20.8842 4.6875 20.625V18.75C4.6875 18.4908 4.8975 18.2812 5.15625 18.2812C5.415 18.2812 5.625 18.4908 5.625 18.75V20.625C5.625 20.8842 5.415 21.0938 5.15625 21.0938Z" fill="black"/>
<path d="M9.375 21.0938H5.15625C4.8975 21.0938 4.6875 20.8842 4.6875 20.625C4.6875 20.3658 4.8975 20.1562 5.15625 20.1562H9.375C9.63375 20.1562 9.84375 20.3658 9.84375 20.625C9.84375 20.8842 9.63375 21.0938 9.375 21.0938Z" fill="black"/>
<path d="M19.6875 21.0938H15C14.7413 21.0938 14.5312 20.8842 14.5312 20.625C14.5312 20.3658 14.7413 20.1562 15 20.1562H19.6875C19.9462 20.1562 20.1562 20.3658 20.1562 20.625C20.1562 20.8842 19.9462 21.0938 19.6875 21.0938Z" fill="black"/>
<path d="M11.25 22.9688C9.97969 22.9688 8.90625 21.8953 8.90625 20.625C8.90625 19.3547 9.97969 18.2812 11.25 18.2812C12.5203 18.2812 13.5938 19.3547 13.5938 20.625C13.5938 21.8953 12.5203 22.9688 11.25 22.9688ZM11.25 19.2188C10.4878 19.2188 9.84375 19.8628 9.84375 20.625C9.84375 21.3872 10.4878 22.0312 11.25 22.0312C12.0122 22.0312 12.6562 21.3872 12.6562 20.625C12.6562 19.8628 12.0122 19.2188 11.25 19.2188Z" fill="black"/>
<path d="M21.5625 22.9688C20.2922 22.9688 19.2188 21.8953 19.2188 20.625C19.2188 19.3547 20.2922 18.2812 21.5625 18.2812C22.8328 18.2812 23.9062 19.3547 23.9062 20.625C23.9062 21.8953 22.8328 22.9688 21.5625 22.9688ZM21.5625 19.2188C20.8003 19.2188 20.1562 19.8628 20.1562 20.625C20.1562 21.3872 20.8003 22.0312 21.5625 22.0312C22.3247 22.0312 22.9688 21.3872 22.9688 20.625C22.9688 19.8628 22.3247 19.2188 21.5625 19.2188Z" fill="black"/>
<path d="M8.4375 9.84375H2.8125C2.55375 9.84375 2.34375 9.63422 2.34375 9.375C2.34375 9.11578 2.55375 8.90625 2.8125 8.90625H8.4375C8.69625 8.90625 8.90625 9.11578 8.90625 9.375C8.90625 9.63422 8.69625 9.84375 8.4375 9.84375Z" fill="black"/>
<path d="M10.3125 11.7188H3.75C3.49125 11.7188 3.28125 11.5092 3.28125 11.25C3.28125 10.9908 3.49125 10.7812 3.75 10.7812H10.3125C10.5712 10.7812 10.7812 10.9908 10.7812 11.25C10.7812 11.5092 10.5712 11.7188 10.3125 11.7188Z" fill="black"/>
<path d="M11.25 13.5938H4.6875C4.42875 13.5938 4.21875 13.3842 4.21875 13.125C4.21875 12.8658 4.42875 12.6562 4.6875 12.6562H11.25C11.5087 12.6562 11.7188 12.8658 11.7188 13.125C11.7188 13.3842 11.5087 13.5938 11.25 13.5938Z" fill="black"/>
<path d="M17.8125 7.96875H4.6875C4.42875 7.96875 4.21875 7.75922 4.21875 7.5C4.21875 7.24078 4.42875 7.03125 4.6875 7.03125H17.8125C18.0712 7.03125 18.2812 7.24078 18.2812 7.5C18.2812 7.75922 18.0712 7.96875 17.8125 7.96875Z" fill="black"/>
<path d="M18.75 8.90625C18.4913 8.90625 18.2812 8.69672 18.2812 8.4375C18.2812 8.17875 18.0708 7.96875 17.8125 7.96875C17.5538 7.96875 17.3438 7.75922 17.3438 7.5C17.3438 7.24078 17.5538 7.03125 17.8125 7.03125C18.5878 7.03125 19.2188 7.66219 19.2188 8.4375C19.2188 8.69672 19.0087 8.90625 18.75 8.90625Z" fill="black"/>
<path d="M25.3125 13.5938H20.625C20.3663 13.5938 20.1562 13.3842 20.1562 13.125C20.1562 12.8658 20.3663 12.6562 20.625 12.6562H25.3125C25.5712 12.6562 25.7812 12.8658 25.7812 13.125C25.7812 13.3842 25.5712 13.5938 25.3125 13.5938Z" fill="black"/>
<path d="M23.4375 13.5938C23.1788 13.5938 22.9688 13.3842 22.9688 13.125V11.25C22.9688 10.9908 23.1788 10.7812 23.4375 10.7812C23.6963 10.7812 23.9062 10.9908 23.9062 11.25V13.125C23.9062 13.3842 23.6963 13.5938 23.4375 13.5938Z" fill="black"/>
<path d="M23.4375 11.7188C23.1788 11.7188 22.9688 11.5092 22.9688 11.25C22.9688 10.4747 22.3378 9.84375 21.5625 9.84375C21.3038 9.84375 21.0938 9.63422 21.0938 9.375C21.0938 9.11578 21.3038 8.90625 21.5625 8.90625C22.8548 8.90625 23.9062 9.95766 23.9062 11.25C23.9062 11.5092 23.6962 11.7188 23.4375 11.7188Z" fill="black"/>
<path d="M21.5625 9.84375H18.75C18.4913 9.84375 18.2812 9.63422 18.2812 9.375C18.2812 9.11578 18.4913 8.90625 18.75 8.90625H21.5625C21.8212 8.90625 22.0312 9.11578 22.0312 9.375C22.0312 9.63422 21.8212 9.84375 21.5625 9.84375Z" fill="black"/>
<path d="M27.1875 15.4688C26.9288 15.4688 26.7188 15.2592 26.7188 15C26.7188 14.2247 26.0878 13.5938 25.3125 13.5938C25.0538 13.5938 24.8438 13.3842 24.8438 13.125C24.8438 12.8658 25.0538 12.6562 25.3125 12.6562C26.6048 12.6562 27.6562 13.7077 27.6562 15C27.6562 15.2592 27.4462 15.4688 27.1875 15.4688Z" fill="black"/>
</svg>
